<?xml version="1.0" encoding="UTF-8" standalone="no"?>
<svg xmlns:xlink="http://www.w3.org/1999/xlink" xmlns="http://www.w3.org/2000/svg" height="194" preserveAspectRatio="xMidYMid meet" xml:space="preserve" version="1.1" viewBox="0 0 723 194" width="723">
<style type="text/css">
<![CDATA[
.title_font {fill:#000000; text-anchor:middle;
font-family:Roboto; font-size:20pt; font-weight:normal; font-style:normal; }
.literal_font {fill:#000000; text-anchor:middle;
font-family:Roboto; font-size:14pt; font-weight:normal; font-style:normal; }
.token_font {fill:#000000; text-anchor:middle;
font-family:Roboto; font-size:16pt; font-weight:normal; font-style:normal; }
.box_font {fill:#000000; text-anchor:middle;
font-family:Roboto; font-size:14pt; font-weight:normal; font-style:normal; }
.bubble_font {fill:#000000; text-anchor:middle;
font-family:Roboto; font-size:14pt; font-weight:normal; font-style:normal; }
.label {fill: #000; text-anchor:middle; font-size:16pt; font-weight:bold; font-family:Sans;}
.link {fill: #0D47A1;}
.link:hover {fill: #0D47A1; text-decoration:underline;}
.link:visited {fill: #4A148C;}
]]>
</style>
<defs>
<marker id="arrow" markerHeight="4" markerUnits="strokeWidth" markerWidth="5" orient="auto" refX="2.5" refY="2">
<path d="M0,0 L0.5,2 L0,4 L4.5,2 z" fill="#000000"/>
</marker>
</defs>
<rect fill="white" height="100%" width="100%"/>
<circle cx="13" cy="63" fill="#ffffff" r="3" stroke="#000000" stroke-width="2"/>
<path d="M47,78 A14,14 0 0,1 47,50 H96 A14,14 0 0,1 96,78 z" fill="#ffffff" fill-opacity="1.0" stroke="#000000" stroke-width="2"/>
<text class="bubble_font" x="71" y="69">ALTER</text>
<path d="M141,78 A14,14 0 0,1 141,50 H190 A14,14 0 0,1 190,78 z" fill="#ffffff" fill-opacity="1.0" stroke="#000000" stroke-width="2"/>
<text class="bubble_font" x="165" y="69">TABLE</text>
<line marker-end="url(#arrow)" stroke="#000000" stroke-width="2" x1="109" x2="123" y1="63" y2="63"/>
<path d="M228,78 H331 L338,64 L331,50 H228 L221,64 z" fill="#ffffff" fill-opacity="1.0" stroke="#000000" stroke-width="2"/>
<text class="literal_font" x="279" y="69">table name</text>
<line marker-end="url(#arrow)" stroke="#000000" stroke-width="2" x1="203" x2="217" y1="63" y2="63"/>
<path d="M174,184 A14,14 0 0,1 174,156 H208 A14,14 0 0,1 208,184 z" fill="#ffffff" fill-opacity="1.0" stroke="#000000" stroke-width="2"/>
<text class="bubble_font" x="191" y="175">ADD</text>
<path d="M253,184 A14,14 0 0,1 253,156 H354 A14,14 0 0,1 354,184 z" fill="#ffffff" fill-opacity="1.0" stroke="#000000" stroke-width="2"/>
<text class="bubble_font" x="303" y="175">CONSTRAINT</text>
<line marker-end="url(#arrow)" stroke="#000000" stroke-width="2" x1="221" x2="235" y1="169" y2="169"/>
<path d="M392,184 H470 L477,170 L470,156 H392 L385,170 z" fill="#ffffff" fill-opacity="1.0" stroke="#000000" stroke-width="2"/>
<text class="literal_font" x="431" y="175">fk name</text>
<line marker-end="url(#arrow)" stroke="#000000" stroke-width="2" x1="367" x2="381" y1="169" y2="169"/>
<rect fill="#ffffff" fill-opacity="1.0" height="28" stroke="#000000" stroke-width="2" width="196" x="494" y="156"/>
<a xlink:href="1050_celesta_sql.html#foreign_key_definition" target="_parent"><text class="box_font link" x="592" y="175">foreign_key_definition</text></a>
<line marker-end="url(#arrow)" stroke="#000000" stroke-width="2" x1="476" x2="490" y1="169" y2="169"/>
<line stroke="#000000" stroke-width="2" x1="338" x2="376" y1="63" y2="63"/>
<path d="M385,72 A9,9 0 0,0 376,63" fill="none" stroke="#000000" stroke-width="2"/>
<line marker-end="url(#arrow)" stroke="#000000" stroke-width="2" x1="385" x2="385" y1="72" y2="86"/>
<line stroke="#000000" stroke-width="2" x1="385" x2="385" y1="90" y2="108"/>
<path d="M376,117 A9,9 0 0,0 385,108" fill="none" stroke="#000000" stroke-width="2"/>
<line marker-end="url(#arrow)" stroke="#000000" stroke-width="2" x1="376" x2="253" y1="117" y2="117"/>
<line stroke="#000000" stroke-width="2" x1="249" x2="122" y1="117" y2="117"/>
<path d="M122,117 A9,9 0 0,0 113,126" fill="none" stroke="#000000" stroke-width="2"/>
<line marker-end="url(#arrow)" stroke="#000000" stroke-width="2" x1="113" x2="113" y1="126" y2="139"/>
<line stroke="#000000" stroke-width="2" x1="113" x2="113" y1="143" y2="160"/>
<path d="M113,160 A9,9 0 0,0 122,169" fill="none" stroke="#000000" stroke-width="2"/>
<line marker-end="url(#arrow)" stroke="#000000" stroke-width="2" x1="122" x2="156" y1="169" y2="169"/>
<line marker-end="url(#arrow)" stroke="#000000" stroke-width="2" x1="15" x2="29" y1="63" y2="63"/>
<circle cx="710" cy="169" fill="#ffffff" r="3" stroke="#000000" stroke-width="2"/>
<line marker-end="url(#arrow)" stroke="#000000" stroke-width="2" x1="689" x2="703" y1="169" y2="169"/>
<text class="title_font" x="124" y="28">add_foreign_key</text>
</svg>
