<?xml version="1.0" encoding="UTF-8" standalone="no"?>
<svg xmlns:xlink="http://www.w3.org/1999/xlink" xmlns="http://www.w3.org/2000/svg" height="202" preserveAspectRatio="xMidYMid meet" xml:space="preserve" version="1.1" viewBox="0 0 708 202" width="708">
<style type="text/css">
<![CDATA[
.title_font {fill:#000000; text-anchor:middle;
font-family:Roboto; font-size:20pt; font-weight:normal; font-style:normal; }
.literal_font {fill:#000000; text-anchor:middle;
font-family:Roboto; font-size:14pt; font-weight:normal; font-style:normal; }
.token_font {fill:#000000; text-anchor:middle;
font-family:Roboto; font-size:16pt; font-weight:normal; font-style:normal; }
.box_font {fill:#000000; text-anchor:middle;
font-family:Roboto; font-size:14pt; font-weight:normal; font-style:normal; }
.bubble_font {fill:#000000; text-anchor:middle;
font-family:Roboto; font-size:14pt; font-weight:normal; font-style:normal; }
.label {fill: #000; text-anchor:middle; font-size:16pt; font-weight:bold; font-family:Sans;}
.link {fill: #0D47A1;}
.link:hover {fill: #0D47A1; text-decoration:underline;}
.link:visited {fill: #4A148C;}
]]>
</style>
<defs>
<marker id="arrow" markerHeight="4" markerUnits="strokeWidth" markerWidth="5" orient="auto" refX="2.5" refY="2">
<path d="M0,0 L0.5,2 L0,4 L4.5,2 z" fill="#000000"/>
</marker>
</defs>
<rect fill="white" height="100%" width="100%"/>
<circle cx="13" cy="63" fill="#ffffff" r="3" stroke="#000000" stroke-width="2"/>
<path d="M95,78 A14,14 0 0,1 95,50 H150 A14,14 0 0,1 150,78 z" fill="#ffffff" fill-opacity="1.0" stroke="#000000" stroke-width="2"/>
<text class="bubble_font" x="122" y="69">COUNT</text>
<path d="M196,79 A15,15 0 0,1 196,49 H203 A15,15 0 0,1 203,79 z" fill="#ffffff" fill-opacity="1.0" stroke="#000000" stroke-width="2"/>
<text class="token_font" x="199" y="69">(</text>
<line marker-end="url(#arrow)" stroke="#000000" stroke-width="2" x1="163" x2="177" y1="63" y2="63"/>
<path d="M250,79 A15,15 0 0,1 250,49 H259 A15,15 0 0,1 259,79 z" fill="#ffffff" fill-opacity="1.0" stroke="#000000" stroke-width="2"/>
<text class="token_font" x="254" y="69">*</text>
<line marker-end="url(#arrow)" stroke="#000000" stroke-width="2" x1="217" x2="231" y1="63" y2="63"/>
<path d="M306,79 A15,15 0 0,1 306,49 H313 A15,15 0 0,1 313,79 z" fill="#ffffff" fill-opacity="1.0" stroke="#000000" stroke-width="2"/>
<text class="token_font" x="309" y="69">)</text>
<line marker-end="url(#arrow)" stroke="#000000" stroke-width="2" x1="273" x2="287" y1="63" y2="63"/>
<path d="M143,117 A14,14 0 0,1 143,89 H177 A14,14 0 0,1 177,117 z" fill="#ffffff" fill-opacity="1.0" stroke="#000000" stroke-width="2"/>
<text class="bubble_font" x="160" y="108">SUM</text>
<path d="M143,155 A14,14 0 0,1 143,127 H172 A14,14 0 0,1 172,155 z" fill="#ffffff" fill-opacity="1.0" stroke="#000000" stroke-width="2"/>
<text class="bubble_font" x="157" y="146">MIN</text>
<path d="M143,192 A14,14 0 0,1 143,164 H177 A14,14 0 0,1 177,192 z" fill="#ffffff" fill-opacity="1.0" stroke="#000000" stroke-width="2"/>
<text class="bubble_font" x="160" y="183">MAX</text>
<line marker-end="url(#arrow)" stroke="#000000" stroke-width="2" x1="81" x2="125" y1="102" y2="102"/>
<line stroke="#000000" stroke-width="2" x1="191" x2="240" y1="102" y2="102"/>
<path d="M100,121 A19,19 0 0,0 81,102" fill="none" stroke="#000000" stroke-width="2"/>
<line marker-end="url(#arrow)" stroke="#000000" stroke-width="2" x1="119" x2="125" y1="140" y2="140"/>
<line stroke="#000000" stroke-width="2" x1="186" x2="201" y1="140" y2="140"/>
<path d="M100,121 A19,19 0 0,0 119,140" fill="none" stroke="#000000" stroke-width="2"/>
<path d="M201,140 A19,19 0 0,0 220,121" fill="none" stroke="#000000" stroke-width="2"/>
<line marker-end="url(#arrow)" stroke="#000000" stroke-width="2" x1="119" x2="125" y1="177" y2="177"/>
<line stroke="#000000" stroke-width="2" x1="191" x2="201" y1="177" y2="177"/>
<path d="M100,158 A19,19 0 0,0 119,177" fill="none" stroke="#000000" stroke-width="2"/>
<path d="M201,177 A19,19 0 0,0 220,158" fill="none" stroke="#000000" stroke-width="2"/>
<path d="M239,102 A19,19 0 0,0 220,121" fill="none" stroke="#000000" stroke-width="2"/>
<line stroke="#000000" stroke-width="2" x1="100" x2="100" y1="158" y2="121"/>
<line stroke="#000000" stroke-width="2" x1="220" x2="220" y1="158" y2="121"/>
<path d="M271,118 A15,15 0 0,1 271,88 H278 A15,15 0 0,1 278,118 z" fill="#ffffff" fill-opacity="1.0" stroke="#000000" stroke-width="2"/>
<text class="token_font" x="274" y="108">(</text>
<rect fill="#ffffff" fill-opacity="1.0" height="28" stroke="#000000" stroke-width="2" width="57" x="310" y="89"/>
<a xlink:href="1050_celesta_sql.html#term" target="_parent"><text class="box_font link" x="338" y="108">term</text></a>
<line marker-end="url(#arrow)" stroke="#000000" stroke-width="2" x1="292" x2="306" y1="102" y2="102"/>
<path d="M399,118 A15,15 0 0,1 399,88 H406 A15,15 0 0,1 406,118 z" fill="#ffffff" fill-opacity="1.0" stroke="#000000" stroke-width="2"/>
<text class="token_font" x="402" y="108">)</text>
<line marker-end="url(#arrow)" stroke="#000000" stroke-width="2" x1="366" x2="380" y1="102" y2="102"/>
<line marker-end="url(#arrow)" stroke="#000000" stroke-width="2" x1="238" x2="252" y1="102" y2="102"/>
<line marker-end="url(#arrow)" stroke="#000000" stroke-width="2" x1="33" x2="77" y1="63" y2="63"/>
<line stroke="#000000" stroke-width="2" x1="328" x2="489" y1="63" y2="63"/>
<path d="M52,82 A19,19 0 0,0 33,63" fill="none" stroke="#000000" stroke-width="2"/>
<line marker-end="url(#arrow)" stroke="#000000" stroke-width="2" x1="71" x2="77" y1="102" y2="102"/>
<line stroke="#000000" stroke-width="2" x1="421" x2="450" y1="102" y2="102"/>
<path d="M52,83 A19,19 0 0,0 71,102" fill="none" stroke="#000000" stroke-width="2"/>
<path d="M450,102 A19,19 0 0,0 469,83" fill="none" stroke="#000000" stroke-width="2"/>
<path d="M488,63 A19,19 0 0,0 469,82" fill="none" stroke="#000000" stroke-width="2"/>
<line stroke="#000000" stroke-width="2" x1="52" x2="52" y1="83" y2="82"/>
<line stroke="#000000" stroke-width="2" x1="469" x2="469" y1="83" y2="82"/>
<path d="M519,78 A14,14 0 0,1 519,50 H539 A14,14 0 0,1 539,78 z" fill="#ffffff" fill-opacity="1.0" stroke="#000000" stroke-width="2"/>
<text class="bubble_font" x="529" y="69">AS</text>
<line marker-end="url(#arrow)" stroke="#000000" stroke-width="2" x1="487" x2="501" y1="63" y2="63"/>
<path d="M577,78 H668 L675,64 L668,50 H577 L570,64 z" fill="#ffffff" fill-opacity="1.0" stroke="#000000" stroke-width="2"/>
<text class="literal_font" x="622" y="69">field alias</text>
<line marker-end="url(#arrow)" stroke="#000000" stroke-width="2" x1="552" x2="566" y1="63" y2="63"/>
<line marker-end="url(#arrow)" stroke="#000000" stroke-width="2" x1="15" x2="29" y1="63" y2="63"/>
<circle cx="695" cy="63" fill="#ffffff" r="3" stroke="#000000" stroke-width="2"/>
<line marker-end="url(#arrow)" stroke="#000000" stroke-width="2" x1="674" x2="688" y1="63" y2="63"/>
<text class="title_font" x="91" y="28">aggregate</text>
</svg>
