<?xml version="1.0" encoding="UTF-8" standalone="no"?>
<svg xmlns:xlink="http://www.w3.org/1999/xlink" xmlns="http://www.w3.org/2000/svg" height="135" preserveAspectRatio="xMidYMid meet" xml:space="preserve" version="1.1" viewBox="0 0 634 135" width="634">
<style type="text/css">
<![CDATA[
.title_font {fill:#000000; text-anchor:middle;
font-family:Roboto; font-size:20pt; font-weight:normal; font-style:normal; }
.literal_font {fill:#000000; text-anchor:middle;
font-family:Roboto; font-size:14pt; font-weight:normal; font-style:normal; }
.token_font {fill:#000000; text-anchor:middle;
font-family:Roboto; font-size:16pt; font-weight:normal; font-style:normal; }
.box_font {fill:#000000; text-anchor:middle;
font-family:Roboto; font-size:14pt; font-weight:normal; font-style:normal; }
.bubble_font {fill:#000000; text-anchor:middle;
font-family:Roboto; font-size:14pt; font-weight:normal; font-style:normal; }
.label {fill: #000; text-anchor:middle; font-size:16pt; font-weight:bold; font-family:Sans;}
.link {fill: #0D47A1;}
.link:hover {fill: #0D47A1; text-decoration:underline;}
.link:visited {fill: #4A148C;}
]]>
</style>
<defs>
<marker id="arrow" markerHeight="4" markerUnits="strokeWidth" markerWidth="5" orient="auto" refX="2.5" refY="2">
<path d="M0,0 L0.5,2 L0,4 L4.5,2 z" fill="#000000"/>
</marker>
</defs>
<rect fill="white" height="100%" width="100%"/>
<circle cx="13" cy="63" fill="#ffffff" r="3" stroke="#000000" stroke-width="2"/>
<path d="M47,78 A14,14 0 0,1 47,50 H72 A14,14 0 0,1 72,78 z" fill="#ffffff" fill-opacity="1.0" stroke="#000000" stroke-width="2"/>
<text class="bubble_font" x="59" y="69">BIT</text>
<rect fill="#ffffff" fill-opacity="1.0" height="28" stroke="#000000" stroke-width="2" width="99" x="103" y="50"/>
<a xlink:href="1050_celesta_sql.html#nullability" target="_parent"><text class="box_font link" x="152" y="69">nullability</text></a>
<line marker-end="url(#arrow)" stroke="#000000" stroke-width="2" x1="85" x2="99" y1="63" y2="63"/>
<path d="M271,78 A14,14 0 0,1 271,50 H341 A14,14 0 0,1 341,78 z" fill="#ffffff" fill-opacity="1.0" stroke="#000000" stroke-width="2"/>
<text class="bubble_font" x="306" y="69">DEFAULT</text>
<path d="M434,78 A14,14 0 0,1 434,50 H475 A14,14 0 0,1 475,78 z" fill="#ffffff" fill-opacity="1.0" stroke="#000000" stroke-width="2"/>
<text class="bubble_font" x="454" y="69">TRUE</text>
<path d="M434,116 A14,14 0 0,1 434,88 H482 A14,14 0 0,1 482,116 z" fill="#ffffff" fill-opacity="1.0" stroke="#000000" stroke-width="2"/>
<text class="bubble_font" x="458" y="107">FALSE</text>
<line marker-end="url(#arrow)" stroke="#000000" stroke-width="2" x1="372" x2="416" y1="63" y2="63"/>
<line stroke="#000000" stroke-width="2" x1="489" x2="545" y1="63" y2="63"/>
<path d="M391,82 A19,19 0 0,0 372,63" fill="none" stroke="#000000" stroke-width="2"/>
<line marker-end="url(#arrow)" stroke="#000000" stroke-width="2" x1="410" x2="416" y1="101" y2="101"/>
<line stroke="#000000" stroke-width="2" x1="496" x2="506" y1="101" y2="101"/>
<path d="M391,82 A19,19 0 0,0 410,101" fill="none" stroke="#000000" stroke-width="2"/>
<path d="M506,101 A19,19 0 0,0 525,82" fill="none" stroke="#000000" stroke-width="2"/>
<path d="M544,63 A19,19 0 0,0 525,82" fill="none" stroke="#000000" stroke-width="2"/>
<line stroke="#000000" stroke-width="2" x1="391" x2="391" y1="82" y2="82"/>
<line stroke="#000000" stroke-width="2" x1="525" x2="525" y1="82" y2="82"/>
<line marker-end="url(#arrow)" stroke="#000000" stroke-width="2" x1="354" x2="368" y1="63" y2="63"/>
<line stroke="#000000" stroke-width="2" x1="409" x2="410" y1="125" y2="125"/>
<line stroke="#000000" stroke-width="2" x1="219" x2="257" y1="63" y2="63"/>
<line stroke="#000000" stroke-width="2" x1="544" x2="602" y1="63" y2="63"/>
<path d="M238,82 A19,19 0 0,0 219,63" fill="none" stroke="#000000" stroke-width="2"/>
<line marker-end="url(#arrow)" stroke="#000000" stroke-width="2" x1="257" x2="405" y1="125" y2="125"/>
<line stroke="#000000" stroke-width="2" x1="410" x2="563" y1="125" y2="125"/>
<path d="M238,106 A19,19 0 0,0 257,125" fill="none" stroke="#000000" stroke-width="2"/>
<path d="M563,125 A19,19 0 0,0 582,106" fill="none" stroke="#000000" stroke-width="2"/>
<path d="M601,63 A19,19 0 0,0 582,82" fill="none" stroke="#000000" stroke-width="2"/>
<line stroke="#000000" stroke-width="2" x1="238" x2="238" y1="106" y2="82"/>
<line stroke="#000000" stroke-width="2" x1="582" x2="582" y1="106" y2="82"/>
<line marker-end="url(#arrow)" stroke="#000000" stroke-width="2" x1="201" x2="215" y1="63" y2="63"/>
<line marker-end="url(#arrow)" stroke="#000000" stroke-width="2" x1="15" x2="29" y1="63" y2="63"/>
<circle cx="621" cy="63" fill="#ffffff" r="3" stroke="#000000" stroke-width="2"/>
<line marker-end="url(#arrow)" stroke="#000000" stroke-width="2" x1="600" x2="614" y1="63" y2="63"/>
<text class="title_font" x="79" y="28">bit_field</text>
</svg>
