<?xml version="1.0" encoding="UTF-8" standalone="no"?>
<svg xmlns:xlink="http://www.w3.org/1999/xlink" xmlns="http://www.w3.org/2000/svg" height="111" preserveAspectRatio="xMidYMid meet" xml:space="preserve" version="1.1" viewBox="0 0 590 111" width="590">
<style type="text/css">
<![CDATA[
.title_font {fill:#000000; text-anchor:middle;
font-family:Roboto; font-size:20pt; font-weight:normal; font-style:normal; }
.literal_font {fill:#000000; text-anchor:middle;
font-family:Roboto; font-size:14pt; font-weight:normal; font-style:normal; }
.token_font {fill:#000000; text-anchor:middle;
font-family:Roboto; font-size:16pt; font-weight:normal; font-style:normal; }
.box_font {fill:#000000; text-anchor:middle;
font-family:Roboto; font-size:14pt; font-weight:normal; font-style:normal; }
.bubble_font {fill:#000000; text-anchor:middle;
font-family:Roboto; font-size:14pt; font-weight:normal; font-style:normal; }
.label {fill: #000; text-anchor:middle; font-size:16pt; font-weight:bold; font-family:Sans;}
.link {fill: #0D47A1;}
.link:hover {fill: #0D47A1; text-decoration:underline;}
.link:visited {fill: #4A148C;}
]]>
</style>
<defs>
<marker id="arrow" markerHeight="4" markerUnits="strokeWidth" markerWidth="5" orient="auto" refX="2.5" refY="2">
<path d="M0,0 L0.5,2 L0,4 L4.5,2 z" fill="#000000"/>
</marker>
</defs>
<rect fill="white" height="100%" width="100%"/>
<circle cx="13" cy="63" fill="#ffffff" r="3" stroke="#000000" stroke-width="2"/>
<path d="M47,78 A14,14 0 0,1 47,50 H89 A14,14 0 0,1 89,78 z" fill="#ffffff" fill-opacity="1.0" stroke="#000000" stroke-width="2"/>
<text class="bubble_font" x="68" y="69">BLOB</text>
<rect fill="#ffffff" fill-opacity="1.0" height="28" stroke="#000000" stroke-width="2" width="99" x="120" y="50"/>
<a xlink:href="1050_celesta_sql.html#nullability" target="_parent"><text class="box_font link" x="169" y="69">nullability</text></a>
<line marker-end="url(#arrow)" stroke="#000000" stroke-width="2" x1="102" x2="116" y1="63" y2="63"/>
<path d="M288,78 A14,14 0 0,1 288,50 H358 A14,14 0 0,1 358,78 z" fill="#ffffff" fill-opacity="1.0" stroke="#000000" stroke-width="2"/>
<text class="bubble_font" x="323" y="69">DEFAULT</text>
<path d="M396,78 H512 L519,64 L512,50 H396 L389,64 z" fill="#ffffff" fill-opacity="1.0" stroke="#000000" stroke-width="2"/>
<text class="literal_font" x="454" y="69">binary literal</text>
<line marker-end="url(#arrow)" stroke="#000000" stroke-width="2" x1="371" x2="385" y1="63" y2="63"/>
<line stroke="#000000" stroke-width="2" x1="396" x2="397" y1="101" y2="101"/>
<line stroke="#000000" stroke-width="2" x1="236" x2="274" y1="63" y2="63"/>
<line stroke="#000000" stroke-width="2" x1="519" x2="558" y1="63" y2="63"/>
<path d="M255,82 A19,19 0 0,0 236,63" fill="none" stroke="#000000" stroke-width="2"/>
<line marker-end="url(#arrow)" stroke="#000000" stroke-width="2" x1="274" x2="392" y1="101" y2="101"/>
<line stroke="#000000" stroke-width="2" x1="397" x2="519" y1="101" y2="101"/>
<path d="M255,82 A19,19 0 0,0 274,101" fill="none" stroke="#000000" stroke-width="2"/>
<path d="M519,101 A19,19 0 0,0 538,82" fill="none" stroke="#000000" stroke-width="2"/>
<path d="M557,63 A19,19 0 0,0 538,82" fill="none" stroke="#000000" stroke-width="2"/>
<line stroke="#000000" stroke-width="2" x1="255" x2="255" y1="82" y2="82"/>
<line stroke="#000000" stroke-width="2" x1="538" x2="538" y1="82" y2="82"/>
<line marker-end="url(#arrow)" stroke="#000000" stroke-width="2" x1="218" x2="232" y1="63" y2="63"/>
<line marker-end="url(#arrow)" stroke="#000000" stroke-width="2" x1="15" x2="29" y1="63" y2="63"/>
<circle cx="577" cy="63" fill="#ffffff" r="3" stroke="#000000" stroke-width="2"/>
<line marker-end="url(#arrow)" stroke="#000000" stroke-width="2" x1="556" x2="570" y1="63" y2="63"/>
<text class="title_font" x="88" y="28">blob_field</text>
</svg>
