<?xml version="1.0" encoding="UTF-8" standalone="no"?>
<svg xmlns:xlink="http://www.w3.org/1999/xlink" xmlns="http://www.w3.org/2000/svg" height="202" preserveAspectRatio="xMidYMid meet" xml:space="preserve" version="1.1" viewBox="0 0 545 202" width="545">
<style type="text/css">
<![CDATA[
.title_font {fill:#000000; text-anchor:middle;
font-family:Roboto; font-size:20pt; font-weight:normal; font-style:normal; }
.literal_font {fill:#000000; text-anchor:middle;
font-family:Roboto; font-size:14pt; font-weight:normal; font-style:normal; }
.token_font {fill:#000000; text-anchor:middle;
font-family:Roboto; font-size:16pt; font-weight:normal; font-style:normal; }
.box_font {fill:#000000; text-anchor:middle;
font-family:Roboto; font-size:14pt; font-weight:normal; font-style:normal; }
.bubble_font {fill:#000000; text-anchor:middle;
font-family:Roboto; font-size:14pt; font-weight:normal; font-style:normal; }
.label {fill: #000; text-anchor:middle; font-size:16pt; font-weight:bold; font-family:Sans;}
.link {fill: #0D47A1;}
.link:hover {fill: #0D47A1; text-decoration:underline;}
.link:visited {fill: #4A148C;}
]]>
</style>
<defs>
<marker id="arrow" markerHeight="4" markerUnits="strokeWidth" markerWidth="5" orient="auto" refX="2.5" refY="2">
<path d="M0,0 L0.5,2 L0,4 L4.5,2 z" fill="#000000"/>
</marker>
</defs>
<rect fill="white" height="100%" width="100%"/>
<circle cx="13" cy="63" fill="#ffffff" r="3" stroke="#000000" stroke-width="2"/>
<path d="M104,78 A14,14 0 0,1 104,50 H137 A14,14 0 0,1 137,78 z" fill="#ffffff" fill-opacity="1.0" stroke="#000000" stroke-width="2"/>
<text class="bubble_font" x="120" y="69">NOT</text>
<line stroke="#000000" stroke-width="2" x1="120" x2="121" y1="101" y2="101"/>
<line stroke="#000000" stroke-width="2" x1="52" x2="90" y1="63" y2="63"/>
<line stroke="#000000" stroke-width="2" x1="151" x2="190" y1="63" y2="63"/>
<path d="M71,82 A19,19 0 0,0 52,63" fill="none" stroke="#000000" stroke-width="2"/>
<line marker-end="url(#arrow)" stroke="#000000" stroke-width="2" x1="90" x2="116" y1="101" y2="101"/>
<line stroke="#000000" stroke-width="2" x1="121" x2="151" y1="101" y2="101"/>
<path d="M71,82 A19,19 0 0,0 90,101" fill="none" stroke="#000000" stroke-width="2"/>
<path d="M151,101 A19,19 0 0,0 170,82" fill="none" stroke="#000000" stroke-width="2"/>
<path d="M189,63 A19,19 0 0,0 170,82" fill="none" stroke="#000000" stroke-width="2"/>
<line stroke="#000000" stroke-width="2" x1="71" x2="71" y1="82" y2="82"/>
<line stroke="#000000" stroke-width="2" x1="170" x2="170" y1="82" y2="82"/>
<rect fill="#ffffff" fill-opacity="1.0" height="28" stroke="#000000" stroke-width="2" width="95" x="254" y="50"/>
<a xlink:href="1050_celesta_sql.html#predicate" target="_parent"><text class="box_font link" x="301" y="69">predicate</text></a>
<path d="M269,117 A15,15 0 0,1 269,87 H276 A15,15 0 0,1 276,117 z" fill="#ffffff" fill-opacity="1.0" stroke="#000000" stroke-width="2"/>
<text class="token_font" x="272" y="107">(</text>
<rect fill="#ffffff" fill-opacity="1.0" height="28" stroke="#000000" stroke-width="2" width="93" x="308" y="88"/>
<a xlink:href="1050_celesta_sql.html#condition" target="_parent"><text class="box_font link" x="354" y="107">condition</text></a>
<line marker-end="url(#arrow)" stroke="#000000" stroke-width="2" x1="290" x2="304" y1="101" y2="101"/>
<path d="M433,117 A15,15 0 0,1 433,87 H440 A15,15 0 0,1 440,117 z" fill="#ffffff" fill-opacity="1.0" stroke="#000000" stroke-width="2"/>
<text class="token_font" x="436" y="107">)</text>
<line marker-end="url(#arrow)" stroke="#000000" stroke-width="2" x1="400" x2="414" y1="101" y2="101"/>
<line marker-end="url(#arrow)" stroke="#000000" stroke-width="2" x1="206" x2="250" y1="63" y2="63"/>
<line stroke="#000000" stroke-width="2" x1="349" x2="504" y1="63" y2="63"/>
<path d="M225,82 A19,19 0 0,0 206,63" fill="none" stroke="#000000" stroke-width="2"/>
<line marker-end="url(#arrow)" stroke="#000000" stroke-width="2" x1="244" x2="250" y1="101" y2="101"/>
<line stroke="#000000" stroke-width="2" x1="455" x2="465" y1="101" y2="101"/>
<path d="M225,82 A19,19 0 0,0 244,101" fill="none" stroke="#000000" stroke-width="2"/>
<path d="M465,101 A19,19 0 0,0 484,82" fill="none" stroke="#000000" stroke-width="2"/>
<path d="M503,63 A19,19 0 0,0 484,82" fill="none" stroke="#000000" stroke-width="2"/>
<line stroke="#000000" stroke-width="2" x1="225" x2="225" y1="82" y2="82"/>
<line stroke="#000000" stroke-width="2" x1="484" x2="484" y1="82" y2="82"/>
<line marker-end="url(#arrow)" stroke="#000000" stroke-width="2" x1="188" x2="202" y1="63" y2="63"/>
<path d="M241,154 A14,14 0 0,1 241,126 H274 A14,14 0 0,1 274,154 z" fill="#ffffff" fill-opacity="1.0" stroke="#000000" stroke-width="2"/>
<text class="bubble_font" x="257" y="145">AND</text>
<path d="M247,192 A14,14 0 0,1 247,164 H269 A14,14 0 0,1 269,192 z" fill="#ffffff" fill-opacity="1.0" stroke="#000000" stroke-width="2"/>
<text class="bubble_font" x="258" y="183">OR</text>
<line stroke="#000000" stroke-width="2" x1="185" x2="227" y1="139" y2="139"/>
<line marker-end="url(#arrow)" stroke="#000000" stroke-width="2" x1="332" x2="292" y1="139" y2="139"/>
<path d="M204,158 A19,19 0 0,0 185,139" fill="none" stroke="#000000" stroke-width="2"/>
<line stroke="#000000" stroke-width="2" x1="223" x2="233" y1="177" y2="177"/>
<line marker-end="url(#arrow)" stroke="#000000" stroke-width="2" x1="293" x2="287" y1="177" y2="177"/>
<path d="M204,158 A19,19 0 0,0 223,177" fill="none" stroke="#000000" stroke-width="2"/>
<path d="M293,177 A19,19 0 0,0 312,158" fill="none" stroke="#000000" stroke-width="2"/>
<path d="M331,139 A19,19 0 0,0 312,158" fill="none" stroke="#000000" stroke-width="2"/>
<line stroke="#000000" stroke-width="2" x1="204" x2="204" y1="158" y2="158"/>
<line stroke="#000000" stroke-width="2" x1="312" x2="312" y1="158" y2="158"/>
<line stroke="#000000" stroke-width="2" x1="52" x2="185" y1="139" y2="139"/>
<line marker-end="url(#arrow)" stroke="#000000" stroke-width="2" x1="503" x2="335" y1="139" y2="139"/>
<line stroke="#000000" stroke-width="2" x1="33" x2="52" y1="63" y2="63"/>
<path d="M52,63 A9,9 0 0,0 43,72" fill="none" stroke="#000000" stroke-width="2"/>
<line marker-end="url(#arrow)" stroke="#000000" stroke-width="2" x1="43" x2="43" y1="130" y2="105"/>
<line stroke="#000000" stroke-width="2" x1="43" x2="43" y1="101" y2="72"/>
<path d="M43,130 A9,9 0 0,0 52,139" fill="none" stroke="#000000" stroke-width="2"/>
<path d="M512,72 A9,9 0 0,0 503,63" fill="none" stroke="#000000" stroke-width="2"/>
<line marker-end="url(#arrow)" stroke="#000000" stroke-width="2" x1="512" x2="512" y1="72" y2="97"/>
<line stroke="#000000" stroke-width="2" x1="512" x2="512" y1="101" y2="130"/>
<path d="M503,139 A9,9 0 0,0 512,130" fill="none" stroke="#000000" stroke-width="2"/>
<line stroke="#000000" stroke-width="2" x1="503" x2="512" y1="63" y2="63"/>
<line marker-end="url(#arrow)" stroke="#000000" stroke-width="2" x1="15" x2="29" y1="63" y2="63"/>
<circle cx="532" cy="63" fill="#ffffff" r="3" stroke="#000000" stroke-width="2"/>
<line marker-end="url(#arrow)" stroke="#000000" stroke-width="2" x1="511" x2="525" y1="63" y2="63"/>
<text class="title_font" x="85" y="28">condition</text>
</svg>
