<?xml version="1.0" encoding="UTF-8" standalone="no"?>
<svg xmlns:xlink="http://www.w3.org/1999/xlink" xmlns="http://www.w3.org/2000/svg" height="234" preserveAspectRatio="xMidYMid meet" xml:space="preserve" version="1.1" viewBox="0 0 630 234" width="630">
<style type="text/css">
<![CDATA[
.title_font {fill:#000000; text-anchor:middle;
font-family:Roboto; font-size:20pt; font-weight:normal; font-style:normal; }
.literal_font {fill:#000000; text-anchor:middle;
font-family:Roboto; font-size:14pt; font-weight:normal; font-style:normal; }
.token_font {fill:#000000; text-anchor:middle;
font-family:Roboto; font-size:16pt; font-weight:normal; font-style:normal; }
.box_font {fill:#000000; text-anchor:middle;
font-family:Roboto; font-size:14pt; font-weight:normal; font-style:normal; }
.bubble_font {fill:#000000; text-anchor:middle;
font-family:Roboto; font-size:14pt; font-weight:normal; font-style:normal; }
.label {fill: #000; text-anchor:middle; font-size:16pt; font-weight:bold; font-family:Sans;}
.link {fill: #0D47A1;}
.link:hover {fill: #0D47A1; text-decoration:underline;}
.link:visited {fill: #4A148C;}
]]>
</style>
<defs>
<marker id="arrow" markerHeight="4" markerUnits="strokeWidth" markerWidth="5" orient="auto" refX="2.5" refY="2">
<path d="M0,0 L0.5,2 L0,4 L4.5,2 z" fill="#000000"/>
</marker>
</defs>
<rect fill="white" height="100%" width="100%"/>
<circle cx="13" cy="63" fill="#ffffff" r="3" stroke="#000000" stroke-width="2"/>
<path d="M47,78 A14,14 0 0,1 47,50 H108 A14,14 0 0,1 108,78 z" fill="#ffffff" fill-opacity="1.0" stroke="#000000" stroke-width="2"/>
<text class="bubble_font" x="77" y="69">CREATE</text>
<path d="M153,78 A14,14 0 0,1 153,50 H233 A14,14 0 0,1 233,78 z" fill="#ffffff" fill-opacity="1.0" stroke="#000000" stroke-width="2"/>
<text class="bubble_font" x="193" y="69">FUNCTION</text>
<line marker-end="url(#arrow)" stroke="#000000" stroke-width="2" x1="121" x2="135" y1="63" y2="63"/>
<path d="M271,78 H399 L406,64 L399,50 H271 L264,64 z" fill="#ffffff" fill-opacity="1.0" stroke="#000000" stroke-width="2"/>
<text class="literal_font" x="335" y="69">function name</text>
<line marker-end="url(#arrow)" stroke="#000000" stroke-width="2" x1="246" x2="260" y1="63" y2="63"/>
<path d="M175,186 A15,15 0 0,1 175,156 H182 A15,15 0 0,1 182,186 z" fill="#ffffff" fill-opacity="1.0" stroke="#000000" stroke-width="2"/>
<text class="token_font" x="178" y="176">(</text>
<rect fill="#ffffff" fill-opacity="1.0" height="28" stroke="#000000" stroke-width="2" width="154" x="233" y="157"/>
<a xlink:href="1050_celesta_sql.html#param_definition" target="_parent"><text class="box_font link" x="310" y="176">param_definition</text></a>
<path d="M307,224 A15,15 0 0,1 307,194 H313 A15,15 0 0,1 313,224 z" fill="#ffffff" fill-opacity="1.0" stroke="#000000" stroke-width="2"/>
<text class="token_font" x="310" y="214">,</text>
<line stroke="#000000" stroke-width="2" x1="233" x2="292" y1="208" y2="208"/>
<line marker-end="url(#arrow)" stroke="#000000" stroke-width="2" x1="387" x2="332" y1="208" y2="208"/>
<line stroke="#000000" stroke-width="2" x1="214" x2="233" y1="170" y2="170"/>
<path d="M233,170 A9,9 0 0,0 224,179" fill="none" stroke="#000000" stroke-width="2"/>
<line marker-end="url(#arrow)" stroke="#000000" stroke-width="2" x1="224" x2="224" y1="199" y2="193"/>
<line stroke="#000000" stroke-width="2" x1="224" x2="224" y1="189" y2="179"/>
<path d="M224,199 A9,9 0 0,0 233,208" fill="none" stroke="#000000" stroke-width="2"/>
<path d="M396,179 A9,9 0 0,0 387,170" fill="none" stroke="#000000" stroke-width="2"/>
<line marker-end="url(#arrow)" stroke="#000000" stroke-width="2" x1="396" x2="396" y1="179" y2="185"/>
<line stroke="#000000" stroke-width="2" x1="396" x2="396" y1="189" y2="199"/>
<path d="M387,208 A9,9 0 0,0 396,199" fill="none" stroke="#000000" stroke-width="2"/>
<line stroke="#000000" stroke-width="2" x1="387" x2="396" y1="170" y2="170"/>
<line marker-end="url(#arrow)" stroke="#000000" stroke-width="2" x1="196" x2="210" y1="170" y2="170"/>
<path d="M428,186 A15,15 0 0,1 428,156 H435 A15,15 0 0,1 435,186 z" fill="#ffffff" fill-opacity="1.0" stroke="#000000" stroke-width="2"/>
<text class="token_font" x="431" y="176">)</text>
<line marker-end="url(#arrow)" stroke="#000000" stroke-width="2" x1="395" x2="409" y1="170" y2="170"/>
<path d="M481,185 A14,14 0 0,1 481,157 H501 A14,14 0 0,1 501,185 z" fill="#ffffff" fill-opacity="1.0" stroke="#000000" stroke-width="2"/>
<text class="bubble_font" x="491" y="176">AS</text>
<line marker-end="url(#arrow)" stroke="#000000" stroke-width="2" x1="449" x2="463" y1="170" y2="170"/>
<rect fill="#ffffff" fill-opacity="1.0" height="28" stroke="#000000" stroke-width="2" width="65" x="532" y="157"/>
<a xlink:href="1050_celesta_sql.html#query" target="_parent"><text class="box_font link" x="564" y="176">query</text></a>
<line marker-end="url(#arrow)" stroke="#000000" stroke-width="2" x1="514" x2="528" y1="170" y2="170"/>
<line stroke="#000000" stroke-width="2" x1="406" x2="444" y1="63" y2="63"/>
<path d="M453,72 A9,9 0 0,0 444,63" fill="none" stroke="#000000" stroke-width="2"/>
<line marker-end="url(#arrow)" stroke="#000000" stroke-width="2" x1="453" x2="453" y1="72" y2="86"/>
<line stroke="#000000" stroke-width="2" x1="453" x2="453" y1="90" y2="108"/>
<path d="M444,117 A9,9 0 0,0 453,108" fill="none" stroke="#000000" stroke-width="2"/>
<line marker-end="url(#arrow)" stroke="#000000" stroke-width="2" x1="444" x2="287" y1="117" y2="117"/>
<line stroke="#000000" stroke-width="2" x1="283" x2="122" y1="117" y2="117"/>
<path d="M122,117 A9,9 0 0,0 113,126" fill="none" stroke="#000000" stroke-width="2"/>
<line marker-end="url(#arrow)" stroke="#000000" stroke-width="2" x1="113" x2="113" y1="126" y2="139"/>
<line stroke="#000000" stroke-width="2" x1="113" x2="113" y1="143" y2="161"/>
<path d="M113,161 A9,9 0 0,0 122,170" fill="none" stroke="#000000" stroke-width="2"/>
<line marker-end="url(#arrow)" stroke="#000000" stroke-width="2" x1="122" x2="156" y1="170" y2="170"/>
<line marker-end="url(#arrow)" stroke="#000000" stroke-width="2" x1="15" x2="29" y1="63" y2="63"/>
<circle cx="617" cy="170" fill="#ffffff" r="3" stroke="#000000" stroke-width="2"/>
<line marker-end="url(#arrow)" stroke="#000000" stroke-width="2" x1="596" x2="610" y1="170" y2="170"/>
<text class="title_font" x="120" y="28">create_function</text>
</svg>
