<?xml version="1.0" encoding="UTF-8" standalone="no"?>
<svg xmlns:xlink="http://www.w3.org/1999/xlink" xmlns="http://www.w3.org/2000/svg" height="400" preserveAspectRatio="xMidYMid meet" xml:space="preserve" version="1.1" viewBox="0 0 788 400" width="788">
<style type="text/css">
<![CDATA[
.title_font {fill:#000000; text-anchor:middle;
font-family:Roboto; font-size:20pt; font-weight:normal; font-style:normal; }
.literal_font {fill:#000000; text-anchor:middle;
font-family:Roboto; font-size:14pt; font-weight:normal; font-style:normal; }
.token_font {fill:#000000; text-anchor:middle;
font-family:Roboto; font-size:16pt; font-weight:normal; font-style:normal; }
.box_font {fill:#000000; text-anchor:middle;
font-family:Roboto; font-size:14pt; font-weight:normal; font-style:normal; }
.bubble_font {fill:#000000; text-anchor:middle;
font-family:Roboto; font-size:14pt; font-weight:normal; font-style:normal; }
.label {fill: #000; text-anchor:middle; font-size:16pt; font-weight:bold; font-family:Sans;}
.link {fill: #0D47A1;}
.link:hover {fill: #0D47A1; text-decoration:underline;}
.link:visited {fill: #4A148C;}
]]>
</style>
<defs>
<marker id="arrow" markerHeight="4" markerUnits="strokeWidth" markerWidth="5" orient="auto" refX="2.5" refY="2">
<path d="M0,0 L0.5,2 L0,4 L4.5,2 z" fill="#000000"/>
</marker>
</defs>
<rect fill="white" height="100%" width="100%"/>
<circle cx="13" cy="63" fill="#ffffff" r="3" stroke="#000000" stroke-width="2"/>
<path d="M47,78 A14,14 0 0,1 47,50 H108 A14,14 0 0,1 108,78 z" fill="#ffffff" fill-opacity="1.0" stroke="#000000" stroke-width="2"/>
<text class="bubble_font" x="77" y="69">CREATE</text>
<path d="M153,78 A14,14 0 0,1 153,50 H268 A14,14 0 0,1 268,78 z" fill="#ffffff" fill-opacity="1.0" stroke="#000000" stroke-width="2"/>
<text class="bubble_font" x="210" y="69">MATERIALIZED</text>
<line marker-end="url(#arrow)" stroke="#000000" stroke-width="2" x1="121" x2="135" y1="63" y2="63"/>
<path d="M313,78 A14,14 0 0,1 313,50 H353 A14,14 0 0,1 353,78 z" fill="#ffffff" fill-opacity="1.0" stroke="#000000" stroke-width="2"/>
<text class="bubble_font" x="333" y="69">VIEW</text>
<line marker-end="url(#arrow)" stroke="#000000" stroke-width="2" x1="281" x2="295" y1="63" y2="63"/>
<path d="M391,78 H490 L497,64 L490,50 H391 L384,64 z" fill="#ffffff" fill-opacity="1.0" stroke="#000000" stroke-width="2"/>
<text class="literal_font" x="440" y="69">view name</text>
<line marker-end="url(#arrow)" stroke="#000000" stroke-width="2" x1="366" x2="380" y1="63" y2="63"/>
<path d="M528,78 A14,14 0 0,1 528,50 H548 A14,14 0 0,1 548,78 z" fill="#ffffff" fill-opacity="1.0" stroke="#000000" stroke-width="2"/>
<text class="bubble_font" x="538" y="69">AS</text>
<line marker-end="url(#arrow)" stroke="#000000" stroke-width="2" x1="496" x2="510" y1="63" y2="63"/>
<path d="M124,184 A14,14 0 0,1 124,156 H182 A14,14 0 0,1 182,184 z" fill="#ffffff" fill-opacity="1.0" stroke="#000000" stroke-width="2"/>
<text class="bubble_font" x="153" y="175">SELECT</text>
<rect fill="#ffffff" fill-opacity="1.0" height="28" stroke="#000000" stroke-width="2" width="208" x="280" y="156"/>
<a xlink:href="1050_celesta_sql.html#materialized_aggregate" target="_parent"><text class="box_font link" x="384" y="175">materialized_aggregate</text></a>
<path d="M287,222 H385 L392,208 L385,194 H287 L280,208 z" fill="#ffffff" fill-opacity="1.0" stroke="#000000" stroke-width="2"/>
<text class="literal_font" x="336" y="213">field name</text>
<path d="M461,222 A14,14 0 0,1 461,194 H481 A14,14 0 0,1 481,222 z" fill="#ffffff" fill-opacity="1.0" stroke="#000000" stroke-width="2"/>
<text class="bubble_font" x="471" y="213">AS</text>
<path d="M519,222 H610 L617,208 L610,194 H519 L512,208 z" fill="#ffffff" fill-opacity="1.0" stroke="#000000" stroke-width="2"/>
<text class="literal_font" x="564" y="213">field alias</text>
<line marker-end="url(#arrow)" stroke="#000000" stroke-width="2" x1="494" x2="508" y1="207" y2="207"/>
<line stroke="#000000" stroke-width="2" x1="531" x2="532" y1="245" y2="245"/>
<line stroke="#000000" stroke-width="2" x1="409" x2="447" y1="207" y2="207"/>
<line stroke="#000000" stroke-width="2" x1="617" x2="656" y1="207" y2="207"/>
<path d="M428,226 A19,19 0 0,0 409,207" fill="none" stroke="#000000" stroke-width="2"/>
<line marker-end="url(#arrow)" stroke="#000000" stroke-width="2" x1="447" x2="527" y1="245" y2="245"/>
<line stroke="#000000" stroke-width="2" x1="532" x2="617" y1="245" y2="245"/>
<path d="M428,226 A19,19 0 0,0 447,245" fill="none" stroke="#000000" stroke-width="2"/>
<path d="M617,245 A19,19 0 0,0 636,226" fill="none" stroke="#000000" stroke-width="2"/>
<path d="M655,207 A19,19 0 0,0 636,226" fill="none" stroke="#000000" stroke-width="2"/>
<line stroke="#000000" stroke-width="2" x1="428" x2="428" y1="226" y2="226"/>
<line stroke="#000000" stroke-width="2" x1="636" x2="636" y1="226" y2="226"/>
<line marker-end="url(#arrow)" stroke="#000000" stroke-width="2" x1="391" x2="405" y1="207" y2="207"/>
<line marker-end="url(#arrow)" stroke="#000000" stroke-width="2" x1="232" x2="276" y1="169" y2="169"/>
<line stroke="#000000" stroke-width="2" x1="488" x2="723" y1="169" y2="169"/>
<path d="M251,188 A19,19 0 0,0 232,169" fill="none" stroke="#000000" stroke-width="2"/>
<line marker-end="url(#arrow)" stroke="#000000" stroke-width="2" x1="270" x2="276" y1="207" y2="207"/>
<line stroke="#000000" stroke-width="2" x1="655" x2="684" y1="207" y2="207"/>
<path d="M251,188 A19,19 0 0,0 270,207" fill="none" stroke="#000000" stroke-width="2"/>
<path d="M684,207 A19,19 0 0,0 703,188" fill="none" stroke="#000000" stroke-width="2"/>
<path d="M722,169 A19,19 0 0,0 703,188" fill="none" stroke="#000000" stroke-width="2"/>
<line stroke="#000000" stroke-width="2" x1="251" x2="251" y1="188" y2="188"/>
<line stroke="#000000" stroke-width="2" x1="703" x2="703" y1="188" y2="188"/>
<path d="M474,284 A15,15 0 0,1 474,254 H480 A15,15 0 0,1 480,284 z" fill="#ffffff" fill-opacity="1.0" stroke="#000000" stroke-width="2"/>
<text class="token_font" x="477" y="274">,</text>
<line stroke="#000000" stroke-width="2" x1="232" x2="459" y1="268" y2="268"/>
<line marker-end="url(#arrow)" stroke="#000000" stroke-width="2" x1="722" x2="499" y1="268" y2="268"/>
<line stroke="#000000" stroke-width="2" x1="213" x2="232" y1="169" y2="169"/>
<path d="M232,169 A9,9 0 0,0 223,178" fill="none" stroke="#000000" stroke-width="2"/>
<line marker-end="url(#arrow)" stroke="#000000" stroke-width="2" x1="223" x2="223" y1="259" y2="222"/>
<line stroke="#000000" stroke-width="2" x1="223" x2="223" y1="218" y2="178"/>
<path d="M223,259 A9,9 0 0,0 232,268" fill="none" stroke="#000000" stroke-width="2"/>
<path d="M731,178 A9,9 0 0,0 722,169" fill="none" stroke="#000000" stroke-width="2"/>
<line marker-end="url(#arrow)" stroke="#000000" stroke-width="2" x1="731" x2="731" y1="178" y2="214"/>
<line stroke="#000000" stroke-width="2" x1="731" x2="731" y1="218" y2="259"/>
<path d="M722,268 A9,9 0 0,0 731,259" fill="none" stroke="#000000" stroke-width="2"/>
<line stroke="#000000" stroke-width="2" x1="722" x2="731" y1="169" y2="169"/>
<line marker-end="url(#arrow)" stroke="#000000" stroke-width="2" x1="195" x2="209" y1="169" y2="169"/>
<line stroke="#000000" stroke-width="2" x1="562" x2="600" y1="63" y2="63"/>
<path d="M609,72 A9,9 0 0,0 600,63" fill="none" stroke="#000000" stroke-width="2"/>
<line marker-end="url(#arrow)" stroke="#000000" stroke-width="2" x1="609" x2="609" y1="72" y2="86"/>
<line stroke="#000000" stroke-width="2" x1="609" x2="609" y1="90" y2="108"/>
<path d="M600,117 A9,9 0 0,0 609,108" fill="none" stroke="#000000" stroke-width="2"/>
<line marker-end="url(#arrow)" stroke="#000000" stroke-width="2" x1="600" x2="340" y1="117" y2="117"/>
<line stroke="#000000" stroke-width="2" x1="336" x2="72" y1="117" y2="117"/>
<path d="M72,117 A9,9 0 0,0 63,126" fill="none" stroke="#000000" stroke-width="2"/>
<line marker-end="url(#arrow)" stroke="#000000" stroke-width="2" x1="63" x2="63" y1="126" y2="139"/>
<line stroke="#000000" stroke-width="2" x1="63" x2="63" y1="143" y2="160"/>
<path d="M63,160 A9,9 0 0,0 72,169" fill="none" stroke="#000000" stroke-width="2"/>
<line marker-end="url(#arrow)" stroke="#000000" stroke-width="2" x1="72" x2="106" y1="169" y2="169"/>
<path d="M418,390 A14,14 0 0,1 418,362 H462 A14,14 0 0,1 462,390 z" fill="#ffffff" fill-opacity="1.0" stroke="#000000" stroke-width="2"/>
<text class="bubble_font" x="440" y="381">FROM</text>
<rect fill="#ffffff" fill-opacity="1.0" height="28" stroke="#000000" stroke-width="2" width="90" x="493" y="362"/>
<a xlink:href="1050_celesta_sql.html#table_ref" target="_parent"><text class="box_font link" x="538" y="381">table_ref</text></a>
<line marker-end="url(#arrow)" stroke="#000000" stroke-width="2" x1="475" x2="489" y1="375" y2="375"/>
<rect fill="#ffffff" fill-opacity="1.0" height="28" stroke="#000000" stroke-width="2" width="93" x="600" y="362"/>
<a xlink:href="1050_celesta_sql.html#group_by" target="_parent"><text class="box_font link" x="646" y="381">group_by</text></a>
<line marker-end="url(#arrow)" stroke="#000000" stroke-width="2" x1="582" x2="596" y1="375" y2="375"/>
<line stroke="#000000" stroke-width="2" x1="731" x2="769" y1="169" y2="169"/>
<path d="M778,178 A9,9 0 0,0 769,169" fill="none" stroke="#000000" stroke-width="2"/>
<line marker-end="url(#arrow)" stroke="#000000" stroke-width="2" x1="778" x2="778" y1="178" y2="242"/>
<line stroke="#000000" stroke-width="2" x1="778" x2="778" y1="246" y2="314"/>
<path d="M769,323 A9,9 0 0,0 778,314" fill="none" stroke="#000000" stroke-width="2"/>
<line marker-end="url(#arrow)" stroke="#000000" stroke-width="2" x1="769" x2="571" y1="323" y2="323"/>
<line stroke="#000000" stroke-width="2" x1="567" x2="366" y1="323" y2="323"/>
<path d="M366,323 A9,9 0 0,0 357,332" fill="none" stroke="#000000" stroke-width="2"/>
<line marker-end="url(#arrow)" stroke="#000000" stroke-width="2" x1="357" x2="357" y1="332" y2="345"/>
<line stroke="#000000" stroke-width="2" x1="357" x2="357" y1="349" y2="366"/>
<path d="M357,366 A9,9 0 0,0 366,375" fill="none" stroke="#000000" stroke-width="2"/>
<line marker-end="url(#arrow)" stroke="#000000" stroke-width="2" x1="366" x2="400" y1="375" y2="375"/>
<line marker-end="url(#arrow)" stroke="#000000" stroke-width="2" x1="15" x2="29" y1="63" y2="63"/>
<circle cx="713" cy="375" fill="#ffffff" r="3" stroke="#000000" stroke-width="2"/>
<line marker-end="url(#arrow)" stroke="#000000" stroke-width="2" x1="692" x2="706" y1="375" y2="375"/>
<text class="title_font" x="174" y="28">create_materialized_view</text>
</svg>
