<?xml version="1.0" encoding="UTF-8" standalone="no"?>
<svg xmlns:xlink="http://www.w3.org/1999/xlink" xmlns="http://www.w3.org/2000/svg" height="234" preserveAspectRatio="xMidYMid meet" xml:space="preserve" version="1.1" viewBox="0 0 611 234" width="611">
<style type="text/css">
<![CDATA[
.title_font {fill:#000000; text-anchor:middle;
font-family:Roboto; font-size:20pt; font-weight:normal; font-style:normal; }
.literal_font {fill:#000000; text-anchor:middle;
font-family:Roboto; font-size:14pt; font-weight:normal; font-style:normal; }
.token_font {fill:#000000; text-anchor:middle;
font-family:Roboto; font-size:16pt; font-weight:normal; font-style:normal; }
.box_font {fill:#000000; text-anchor:middle;
font-family:Roboto; font-size:14pt; font-weight:normal; font-style:normal; }
.bubble_font {fill:#000000; text-anchor:middle;
font-family:Roboto; font-size:14pt; font-weight:normal; font-style:normal; }
.label {fill: #000; text-anchor:middle; font-size:16pt; font-weight:bold; font-family:Sans;}
.link {fill: #0D47A1;}
.link:hover {fill: #0D47A1; text-decoration:underline;}
.link:visited {fill: #4A148C;}
]]>
</style>
<defs>
<marker id="arrow" markerHeight="4" markerUnits="strokeWidth" markerWidth="5" orient="auto" refX="2.5" refY="2">
<path d="M0,0 L0.5,2 L0,4 L4.5,2 z" fill="#000000"/>
</marker>
</defs>
<rect fill="white" height="100%" width="100%"/>
<circle cx="13" cy="63" fill="#ffffff" r="3" stroke="#000000" stroke-width="2"/>
<path d="M47,78 A14,14 0 0,1 47,50 H108 A14,14 0 0,1 108,78 z" fill="#ffffff" fill-opacity="1.0" stroke="#000000" stroke-width="2"/>
<text class="bubble_font" x="77" y="69">CREATE</text>
<path d="M153,78 A14,14 0 0,1 153,50 H201 A14,14 0 0,1 201,78 z" fill="#ffffff" fill-opacity="1.0" stroke="#000000" stroke-width="2"/>
<text class="bubble_font" x="177" y="69">INDEX</text>
<line marker-end="url(#arrow)" stroke="#000000" stroke-width="2" x1="121" x2="135" y1="63" y2="63"/>
<path d="M239,78 H345 L352,64 L345,50 H239 L232,64 z" fill="#ffffff" fill-opacity="1.0" stroke="#000000" stroke-width="2"/>
<text class="literal_font" x="292" y="69">index name</text>
<line marker-end="url(#arrow)" stroke="#000000" stroke-width="2" x1="214" x2="228" y1="63" y2="63"/>
<path d="M383,78 A14,14 0 0,1 383,50 H406 A14,14 0 0,1 406,78 z" fill="#ffffff" fill-opacity="1.0" stroke="#000000" stroke-width="2"/>
<text class="bubble_font" x="394" y="69">ON</text>
<line marker-end="url(#arrow)" stroke="#000000" stroke-width="2" x1="351" x2="365" y1="63" y2="63"/>
<path d="M444,78 H547 L554,64 L547,50 H444 L437,64 z" fill="#ffffff" fill-opacity="1.0" stroke="#000000" stroke-width="2"/>
<text class="literal_font" x="495" y="69">table name</text>
<line marker-end="url(#arrow)" stroke="#000000" stroke-width="2" x1="419" x2="433" y1="63" y2="63"/>
<path d="M283,186 A15,15 0 0,1 283,156 H290 A15,15 0 0,1 290,186 z" fill="#ffffff" fill-opacity="1.0" stroke="#000000" stroke-width="2"/>
<text class="token_font" x="286" y="176">(</text>
<path d="M348,185 H446 L453,171 L446,157 H348 L341,171 z" fill="#ffffff" fill-opacity="1.0" stroke="#000000" stroke-width="2"/>
<text class="literal_font" x="397" y="176">field name</text>
<path d="M394,224 A15,15 0 0,1 394,194 H400 A15,15 0 0,1 400,224 z" fill="#ffffff" fill-opacity="1.0" stroke="#000000" stroke-width="2"/>
<text class="token_font" x="397" y="214">,</text>
<line stroke="#000000" stroke-width="2" x1="341" x2="379" y1="208" y2="208"/>
<line marker-end="url(#arrow)" stroke="#000000" stroke-width="2" x1="453" x2="419" y1="208" y2="208"/>
<line stroke="#000000" stroke-width="2" x1="322" x2="341" y1="170" y2="170"/>
<path d="M341,170 A9,9 0 0,0 332,179" fill="none" stroke="#000000" stroke-width="2"/>
<line marker-end="url(#arrow)" stroke="#000000" stroke-width="2" x1="332" x2="332" y1="199" y2="193"/>
<line stroke="#000000" stroke-width="2" x1="332" x2="332" y1="189" y2="179"/>
<path d="M332,199 A9,9 0 0,0 341,208" fill="none" stroke="#000000" stroke-width="2"/>
<path d="M462,179 A9,9 0 0,0 453,170" fill="none" stroke="#000000" stroke-width="2"/>
<line marker-end="url(#arrow)" stroke="#000000" stroke-width="2" x1="462" x2="462" y1="179" y2="185"/>
<line stroke="#000000" stroke-width="2" x1="462" x2="462" y1="189" y2="199"/>
<path d="M453,208 A9,9 0 0,0 462,199" fill="none" stroke="#000000" stroke-width="2"/>
<line stroke="#000000" stroke-width="2" x1="453" x2="462" y1="170" y2="170"/>
<line marker-end="url(#arrow)" stroke="#000000" stroke-width="2" x1="304" x2="318" y1="170" y2="170"/>
<path d="M494,186 A15,15 0 0,1 494,156 H501 A15,15 0 0,1 501,186 z" fill="#ffffff" fill-opacity="1.0" stroke="#000000" stroke-width="2"/>
<text class="token_font" x="497" y="176">)</text>
<line marker-end="url(#arrow)" stroke="#000000" stroke-width="2" x1="461" x2="475" y1="170" y2="170"/>
<line stroke="#000000" stroke-width="2" x1="554" x2="592" y1="63" y2="63"/>
<path d="M601,72 A9,9 0 0,0 592,63" fill="none" stroke="#000000" stroke-width="2"/>
<line marker-end="url(#arrow)" stroke="#000000" stroke-width="2" x1="601" x2="601" y1="72" y2="86"/>
<line stroke="#000000" stroke-width="2" x1="601" x2="601" y1="90" y2="108"/>
<path d="M592,117 A9,9 0 0,0 601,108" fill="none" stroke="#000000" stroke-width="2"/>
<line marker-end="url(#arrow)" stroke="#000000" stroke-width="2" x1="592" x2="415" y1="117" y2="117"/>
<line stroke="#000000" stroke-width="2" x1="411" x2="230" y1="117" y2="117"/>
<path d="M230,117 A9,9 0 0,0 221,126" fill="none" stroke="#000000" stroke-width="2"/>
<line marker-end="url(#arrow)" stroke="#000000" stroke-width="2" x1="221" x2="221" y1="126" y2="139"/>
<line stroke="#000000" stroke-width="2" x1="221" x2="221" y1="143" y2="161"/>
<path d="M221,161 A9,9 0 0,0 230,170" fill="none" stroke="#000000" stroke-width="2"/>
<line marker-end="url(#arrow)" stroke="#000000" stroke-width="2" x1="230" x2="264" y1="170" y2="170"/>
<line marker-end="url(#arrow)" stroke="#000000" stroke-width="2" x1="15" x2="29" y1="63" y2="63"/>
<circle cx="536" cy="170" fill="#ffffff" r="3" stroke="#000000" stroke-width="2"/>
<line marker-end="url(#arrow)" stroke="#000000" stroke-width="2" x1="515" x2="529" y1="170" y2="170"/>
<text class="title_font" x="105" y="28">create_index</text>
</svg>
