<?xml version="1.0" encoding="UTF-8" standalone="no"?>
<svg xmlns:xlink="http://www.w3.org/1999/xlink" xmlns="http://www.w3.org/2000/svg" height="352" preserveAspectRatio="xMidYMid meet" xml:space="preserve" version="1.1" viewBox="0 0 658 352" width="658">
<style type="text/css">
<![CDATA[
.title_font {fill:#000000; text-anchor:middle;
font-family:Roboto; font-size:20pt; font-weight:normal; font-style:normal; }
.literal_font {fill:#000000; text-anchor:middle;
font-family:Roboto; font-size:14pt; font-weight:normal; font-style:normal; }
.token_font {fill:#000000; text-anchor:middle;
font-family:Roboto; font-size:16pt; font-weight:normal; font-style:normal; }
.box_font {fill:#000000; text-anchor:middle;
font-family:Roboto; font-size:14pt; font-weight:normal; font-style:normal; }
.bubble_font {fill:#000000; text-anchor:middle;
font-family:Roboto; font-size:14pt; font-weight:normal; font-style:normal; }
.label {fill: #000; text-anchor:middle; font-size:16pt; font-weight:bold; font-family:Sans;}
.link {fill: #0D47A1;}
.link:hover {fill: #0D47A1; text-decoration:underline;}
.link:visited {fill: #4A148C;}
]]>
</style>
<defs>
<marker id="arrow" markerHeight="4" markerUnits="strokeWidth" markerWidth="5" orient="auto" refX="2.5" refY="2">
<path d="M0,0 L0.5,2 L0,4 L4.5,2 z" fill="#000000"/>
</marker>
</defs>
<rect fill="white" height="100%" width="100%"/>
<circle cx="13" cy="63" fill="#ffffff" r="3" stroke="#000000" stroke-width="2"/>
<path d="M47,78 A14,14 0 0,1 47,50 H108 A14,14 0 0,1 108,78 z" fill="#ffffff" fill-opacity="1.0" stroke="#000000" stroke-width="2"/>
<text class="bubble_font" x="77" y="69">CREATE</text>
<path d="M153,78 A14,14 0 0,1 153,50 H237 A14,14 0 0,1 237,78 z" fill="#ffffff" fill-opacity="1.0" stroke="#000000" stroke-width="2"/>
<text class="bubble_font" x="195" y="69">SEQUENCE</text>
<line marker-end="url(#arrow)" stroke="#000000" stroke-width="2" x1="121" x2="135" y1="63" y2="63"/>
<path d="M275,78 H416 L423,64 L416,50 H275 L268,64 z" fill="#ffffff" fill-opacity="1.0" stroke="#000000" stroke-width="2"/>
<text class="literal_font" x="345" y="69">sequence_name</text>
<line marker-end="url(#arrow)" stroke="#000000" stroke-width="2" x1="250" x2="264" y1="63" y2="63"/>
<path d="M241,184 A14,14 0 0,1 241,156 H291 A14,14 0 0,1 291,184 z" fill="#ffffff" fill-opacity="1.0" stroke="#000000" stroke-width="2"/>
<text class="bubble_font" x="266" y="175">START</text>
<path d="M336,184 A14,14 0 0,1 336,156 H377 A14,14 0 0,1 377,184 z" fill="#ffffff" fill-opacity="1.0" stroke="#000000" stroke-width="2"/>
<text class="bubble_font" x="356" y="175">WITH</text>
<line marker-end="url(#arrow)" stroke="#000000" stroke-width="2" x1="304" x2="318" y1="169" y2="169"/>
<path d="M415,184 H541 L548,170 L541,156 H415 L408,170 z" fill="#ffffff" fill-opacity="1.0" stroke="#000000" stroke-width="2"/>
<text class="literal_font" x="478" y="175">integer_literal</text>
<line marker-end="url(#arrow)" stroke="#000000" stroke-width="2" x1="390" x2="404" y1="169" y2="169"/>
<path d="M241,222 A14,14 0 0,1 241,194 H332 A14,14 0 0,1 332,222 z" fill="#ffffff" fill-opacity="1.0" stroke="#000000" stroke-width="2"/>
<text class="bubble_font" x="286" y="213">INCREMENT</text>
<path d="M377,222 A14,14 0 0,1 377,194 H397 A14,14 0 0,1 397,222 z" fill="#ffffff" fill-opacity="1.0" stroke="#000000" stroke-width="2"/>
<text class="bubble_font" x="387" y="213">BY</text>
<line marker-end="url(#arrow)" stroke="#000000" stroke-width="2" x1="345" x2="359" y1="207" y2="207"/>
<path d="M435,222 H561 L568,208 L561,194 H435 L428,208 z" fill="#ffffff" fill-opacity="1.0" stroke="#000000" stroke-width="2"/>
<text class="literal_font" x="498" y="213">integer_literal</text>
<line marker-end="url(#arrow)" stroke="#000000" stroke-width="2" x1="410" x2="424" y1="207" y2="207"/>
<path d="M241,259 A14,14 0 0,1 241,231 H321 A14,14 0 0,1 321,259 z" fill="#ffffff" fill-opacity="1.0" stroke="#000000" stroke-width="2"/>
<text class="bubble_font" x="281" y="250">MINVALUE</text>
<path d="M359,259 H485 L492,245 L485,231 H359 L352,245 z" fill="#ffffff" fill-opacity="1.0" stroke="#000000" stroke-width="2"/>
<text class="literal_font" x="422" y="250">integer_literal</text>
<line marker-end="url(#arrow)" stroke="#000000" stroke-width="2" x1="334" x2="348" y1="244" y2="244"/>
<path d="M241,296 A14,14 0 0,1 241,268 H326 A14,14 0 0,1 326,296 z" fill="#ffffff" fill-opacity="1.0" stroke="#000000" stroke-width="2"/>
<text class="bubble_font" x="283" y="287">MAXVALUE</text>
<path d="M364,296 H490 L497,282 L490,268 H364 L357,282 z" fill="#ffffff" fill-opacity="1.0" stroke="#000000" stroke-width="2"/>
<text class="literal_font" x="427" y="287">integer_literal</text>
<line marker-end="url(#arrow)" stroke="#000000" stroke-width="2" x1="339" x2="353" y1="281" y2="281"/>
<path d="M241,333 A14,14 0 0,1 241,305 H290 A14,14 0 0,1 290,333 z" fill="#ffffff" fill-opacity="1.0" stroke="#000000" stroke-width="2"/>
<text class="bubble_font" x="265" y="324">CYCLE</text>
<line marker-end="url(#arrow)" stroke="#000000" stroke-width="2" x1="179" x2="223" y1="169" y2="169"/>
<line stroke="#000000" stroke-width="2" x1="548" x2="617" y1="169" y2="169"/>
<path d="M198,188 A19,19 0 0,0 179,169" fill="none" stroke="#000000" stroke-width="2"/>
<line marker-end="url(#arrow)" stroke="#000000" stroke-width="2" x1="217" x2="223" y1="207" y2="207"/>
<line stroke="#000000" stroke-width="2" x1="568" x2="578" y1="207" y2="207"/>
<path d="M198,188 A19,19 0 0,0 217,207" fill="none" stroke="#000000" stroke-width="2"/>
<path d="M578,207 A19,19 0 0,0 597,188" fill="none" stroke="#000000" stroke-width="2"/>
<line marker-end="url(#arrow)" stroke="#000000" stroke-width="2" x1="217" x2="223" y1="244" y2="244"/>
<line stroke="#000000" stroke-width="2" x1="492" x2="578" y1="244" y2="244"/>
<path d="M198,225 A19,19 0 0,0 217,244" fill="none" stroke="#000000" stroke-width="2"/>
<path d="M578,244 A19,19 0 0,0 597,225" fill="none" stroke="#000000" stroke-width="2"/>
<line marker-end="url(#arrow)" stroke="#000000" stroke-width="2" x1="217" x2="223" y1="281" y2="281"/>
<line stroke="#000000" stroke-width="2" x1="497" x2="578" y1="281" y2="281"/>
<path d="M198,262 A19,19 0 0,0 217,281" fill="none" stroke="#000000" stroke-width="2"/>
<path d="M578,281 A19,19 0 0,0 597,262" fill="none" stroke="#000000" stroke-width="2"/>
<line marker-end="url(#arrow)" stroke="#000000" stroke-width="2" x1="217" x2="223" y1="318" y2="318"/>
<line stroke="#000000" stroke-width="2" x1="304" x2="578" y1="318" y2="318"/>
<path d="M198,299 A19,19 0 0,0 217,318" fill="none" stroke="#000000" stroke-width="2"/>
<path d="M578,318 A19,19 0 0,0 597,299" fill="none" stroke="#000000" stroke-width="2"/>
<path d="M616,169 A19,19 0 0,0 597,188" fill="none" stroke="#000000" stroke-width="2"/>
<line stroke="#000000" stroke-width="2" x1="198" x2="198" y1="299" y2="188"/>
<line stroke="#000000" stroke-width="2" x1="597" x2="597" y1="299" y2="188"/>
<line stroke="#000000" stroke-width="2" x1="397" x2="398" y1="342" y2="342"/>
<line stroke="#000000" stroke-width="2" x1="179" x2="397" y1="342" y2="342"/>
<line marker-end="url(#arrow)" stroke="#000000" stroke-width="2" x1="616" x2="402" y1="342" y2="342"/>
<line stroke="#000000" stroke-width="2" x1="160" x2="179" y1="169" y2="169"/>
<path d="M179,169 A9,9 0 0,0 170,178" fill="none" stroke="#000000" stroke-width="2"/>
<line marker-end="url(#arrow)" stroke="#000000" stroke-width="2" x1="170" x2="170" y1="333" y2="259"/>
<line stroke="#000000" stroke-width="2" x1="170" x2="170" y1="255" y2="178"/>
<path d="M170,333 A9,9 0 0,0 179,342" fill="none" stroke="#000000" stroke-width="2"/>
<path d="M625,178 A9,9 0 0,0 616,169" fill="none" stroke="#000000" stroke-width="2"/>
<line marker-end="url(#arrow)" stroke="#000000" stroke-width="2" x1="625" x2="625" y1="178" y2="251"/>
<line stroke="#000000" stroke-width="2" x1="625" x2="625" y1="255" y2="333"/>
<path d="M616,342 A9,9 0 0,0 625,333" fill="none" stroke="#000000" stroke-width="2"/>
<line stroke="#000000" stroke-width="2" x1="616" x2="625" y1="169" y2="169"/>
<line stroke="#000000" stroke-width="2" x1="423" x2="461" y1="63" y2="63"/>
<path d="M470,72 A9,9 0 0,0 461,63" fill="none" stroke="#000000" stroke-width="2"/>
<line marker-end="url(#arrow)" stroke="#000000" stroke-width="2" x1="470" x2="470" y1="72" y2="86"/>
<line stroke="#000000" stroke-width="2" x1="470" x2="470" y1="90" y2="108"/>
<path d="M461,117 A9,9 0 0,0 470,108" fill="none" stroke="#000000" stroke-width="2"/>
<line marker-end="url(#arrow)" stroke="#000000" stroke-width="2" x1="461" x2="295" y1="117" y2="117"/>
<line stroke="#000000" stroke-width="2" x1="291" x2="122" y1="117" y2="117"/>
<path d="M122,117 A9,9 0 0,0 113,126" fill="none" stroke="#000000" stroke-width="2"/>
<line marker-end="url(#arrow)" stroke="#000000" stroke-width="2" x1="113" x2="113" y1="126" y2="139"/>
<line stroke="#000000" stroke-width="2" x1="113" x2="113" y1="143" y2="160"/>
<path d="M113,160 A9,9 0 0,0 122,169" fill="none" stroke="#000000" stroke-width="2"/>
<line marker-end="url(#arrow)" stroke="#000000" stroke-width="2" x1="122" x2="156" y1="169" y2="169"/>
<line marker-end="url(#arrow)" stroke="#000000" stroke-width="2" x1="15" x2="29" y1="63" y2="63"/>
<circle cx="645" cy="169" fill="#ffffff" r="3" stroke="#000000" stroke-width="2"/>
<line marker-end="url(#arrow)" stroke="#000000" stroke-width="2" x1="624" x2="638" y1="169" y2="169"/>
<text class="title_font" x="127" y="28">create_sequence</text>
</svg>
