<?xml version="1.0" encoding="UTF-8" standalone="no"?>
<svg xmlns:xlink="http://www.w3.org/1999/xlink" xmlns="http://www.w3.org/2000/svg" height="365" preserveAspectRatio="xMidYMid meet" xml:space="preserve" version="1.1" viewBox="0 0 604 365" width="604">
<style type="text/css">
<![CDATA[
.title_font {fill:#000000; text-anchor:middle;
font-family:Roboto; font-size:20pt; font-weight:normal; font-style:normal; }
.literal_font {fill:#000000; text-anchor:middle;
font-family:Roboto; font-size:14pt; font-weight:normal; font-style:normal; }
.token_font {fill:#000000; text-anchor:middle;
font-family:Roboto; font-size:16pt; font-weight:normal; font-style:normal; }
.box_font {fill:#000000; text-anchor:middle;
font-family:Roboto; font-size:14pt; font-weight:normal; font-style:normal; }
.bubble_font {fill:#000000; text-anchor:middle;
font-family:Roboto; font-size:14pt; font-weight:normal; font-style:normal; }
.label {fill: #000; text-anchor:middle; font-size:16pt; font-weight:bold; font-family:Sans;}
.link {fill: #0D47A1;}
.link:hover {fill: #0D47A1; text-decoration:underline;}
.link:visited {fill: #4A148C;}
]]>
</style>
<defs>
<marker id="arrow" markerHeight="4" markerUnits="strokeWidth" markerWidth="5" orient="auto" refX="2.5" refY="2">
<path d="M0,0 L0.5,2 L0,4 L4.5,2 z" fill="#000000"/>
</marker>
</defs>
<rect fill="white" height="100%" width="100%"/>
<circle cx="13" cy="63" fill="#ffffff" r="3" stroke="#000000" stroke-width="2"/>
<path d="M47,78 A14,14 0 0,1 47,50 H108 A14,14 0 0,1 108,78 z" fill="#ffffff" fill-opacity="1.0" stroke="#000000" stroke-width="2"/>
<text class="bubble_font" x="77" y="69">CREATE</text>
<path d="M201,78 A14,14 0 0,1 201,50 H250 A14,14 0 0,1 250,78 z" fill="#ffffff" fill-opacity="1.0" stroke="#000000" stroke-width="2"/>
<text class="bubble_font" x="225" y="69">GRAIN</text>
<path d="M201,116 A14,14 0 0,1 201,88 H266 A14,14 0 0,1 266,116 z" fill="#ffffff" fill-opacity="1.0" stroke="#000000" stroke-width="2"/>
<text class="bubble_font" x="233" y="107">SCHEMA</text>
<line marker-end="url(#arrow)" stroke="#000000" stroke-width="2" x1="139" x2="183" y1="63" y2="63"/>
<line stroke="#000000" stroke-width="2" x1="264" x2="329" y1="63" y2="63"/>
<path d="M158,82 A19,19 0 0,0 139,63" fill="none" stroke="#000000" stroke-width="2"/>
<line marker-end="url(#arrow)" stroke="#000000" stroke-width="2" x1="177" x2="183" y1="101" y2="101"/>
<line stroke="#000000" stroke-width="2" x1="280" x2="290" y1="101" y2="101"/>
<path d="M158,82 A19,19 0 0,0 177,101" fill="none" stroke="#000000" stroke-width="2"/>
<path d="M290,101 A19,19 0 0,0 309,82" fill="none" stroke="#000000" stroke-width="2"/>
<path d="M328,63 A19,19 0 0,0 309,82" fill="none" stroke="#000000" stroke-width="2"/>
<line stroke="#000000" stroke-width="2" x1="158" x2="158" y1="82" y2="82"/>
<line stroke="#000000" stroke-width="2" x1="309" x2="309" y1="82" y2="82"/>
<line marker-end="url(#arrow)" stroke="#000000" stroke-width="2" x1="121" x2="135" y1="63" y2="63"/>
<path d="M352,78 H458 L465,64 L458,50 H352 L345,64 z" fill="#ffffff" fill-opacity="1.0" stroke="#000000" stroke-width="2"/>
<text class="literal_font" x="405" y="69">grain_name</text>
<line marker-end="url(#arrow)" stroke="#000000" stroke-width="2" x1="327" x2="341" y1="63" y2="63"/>
<path d="M174,223 A14,14 0 0,1 174,195 H243 A14,14 0 0,1 243,223 z" fill="#ffffff" fill-opacity="1.0" stroke="#000000" stroke-width="2"/>
<text class="bubble_font" x="208" y="214">VERSION</text>
<path d="M289,224 A15,15 0 0,1 289,194 H294 A15,15 0 0,1 294,224 z" fill="#ffffff" fill-opacity="1.0" stroke="#000000" stroke-width="2"/>
<text class="token_font" x="291" y="214">'</text>
<line marker-end="url(#arrow)" stroke="#000000" stroke-width="2" x1="256" x2="270" y1="208" y2="208"/>
<path d="M333,223 H488 L495,209 L488,195 H333 L326,209 z" fill="#ffffff" fill-opacity="1.0" stroke="#000000" stroke-width="2"/>
<text class="literal_font" x="410" y="214">grain_version_tag</text>
<line marker-end="url(#arrow)" stroke="#000000" stroke-width="2" x1="308" x2="322" y1="208" y2="208"/>
<path d="M527,224 A15,15 0 0,1 527,194 H532 A15,15 0 0,1 532,224 z" fill="#ffffff" fill-opacity="1.0" stroke="#000000" stroke-width="2"/>
<text class="token_font" x="529" y="214">'</text>
<line marker-end="url(#arrow)" stroke="#000000" stroke-width="2" x1="494" x2="508" y1="208" y2="208"/>
<line stroke="#000000" stroke-width="2" x1="465" x2="503" y1="63" y2="63"/>
<path d="M512,72 A9,9 0 0,0 503,63" fill="none" stroke="#000000" stroke-width="2"/>
<line marker-end="url(#arrow)" stroke="#000000" stroke-width="2" x1="512" x2="512" y1="72" y2="105"/>
<line stroke="#000000" stroke-width="2" x1="512" x2="512" y1="109" y2="146"/>
<path d="M503,155 A9,9 0 0,0 512,146" fill="none" stroke="#000000" stroke-width="2"/>
<line marker-end="url(#arrow)" stroke="#000000" stroke-width="2" x1="503" x2="316" y1="155" y2="155"/>
<line stroke="#000000" stroke-width="2" x1="312" x2="122" y1="155" y2="155"/>
<path d="M122,155 A9,9 0 0,0 113,164" fill="none" stroke="#000000" stroke-width="2"/>
<line marker-end="url(#arrow)" stroke="#000000" stroke-width="2" x1="113" x2="113" y1="164" y2="177"/>
<line stroke="#000000" stroke-width="2" x1="113" x2="113" y1="181" y2="199"/>
<path d="M113,199 A9,9 0 0,0 122,208" fill="none" stroke="#000000" stroke-width="2"/>
<line marker-end="url(#arrow)" stroke="#000000" stroke-width="2" x1="122" x2="156" y1="208" y2="208"/>
<line stroke="#000000" stroke-width="2" x1="351" x2="352" y1="302" y2="302"/>
<path d="M222,355 A14,14 0 0,1 222,327 H263 A14,14 0 0,1 263,355 z" fill="#ffffff" fill-opacity="1.0" stroke="#000000" stroke-width="2"/>
<text class="bubble_font" x="242" y="346">WITH</text>
<path d="M308,355 A14,14 0 0,1 308,327 H331 A14,14 0 0,1 331,355 z" fill="#ffffff" fill-opacity="1.0" stroke="#000000" stroke-width="2"/>
<text class="bubble_font" x="319" y="346">NO</text>
<line marker-end="url(#arrow)" stroke="#000000" stroke-width="2" x1="276" x2="290" y1="340" y2="340"/>
<path d="M376,355 A14,14 0 0,1 376,327 H481 A14,14 0 0,1 481,355 z" fill="#ffffff" fill-opacity="1.0" stroke="#000000" stroke-width="2"/>
<text class="bubble_font" x="428" y="346">AUTOUPDATE</text>
<line marker-end="url(#arrow)" stroke="#000000" stroke-width="2" x1="344" x2="358" y1="340" y2="340"/>
<line marker-end="url(#arrow)" stroke="#000000" stroke-width="2" x1="160" x2="347" y1="302" y2="302"/>
<line stroke="#000000" stroke-width="2" x1="352" x2="544" y1="302" y2="302"/>
<path d="M179,321 A19,19 0 0,0 160,302" fill="none" stroke="#000000" stroke-width="2"/>
<line marker-end="url(#arrow)" stroke="#000000" stroke-width="2" x1="198" x2="204" y1="340" y2="340"/>
<line stroke="#000000" stroke-width="2" x1="495" x2="505" y1="340" y2="340"/>
<path d="M179,321 A19,19 0 0,0 198,340" fill="none" stroke="#000000" stroke-width="2"/>
<path d="M505,340 A19,19 0 0,0 524,321" fill="none" stroke="#000000" stroke-width="2"/>
<path d="M543,302 A19,19 0 0,0 524,321" fill="none" stroke="#000000" stroke-width="2"/>
<line stroke="#000000" stroke-width="2" x1="179" x2="179" y1="321" y2="321"/>
<line stroke="#000000" stroke-width="2" x1="524" x2="524" y1="321" y2="321"/>
<line stroke="#000000" stroke-width="2" x1="547" x2="585" y1="208" y2="208"/>
<path d="M594,217 A9,9 0 0,0 585,208" fill="none" stroke="#000000" stroke-width="2"/>
<line marker-end="url(#arrow)" stroke="#000000" stroke-width="2" x1="594" x2="594" y1="217" y2="231"/>
<line stroke="#000000" stroke-width="2" x1="594" x2="594" y1="235" y2="254"/>
<path d="M585,263 A9,9 0 0,0 594,254" fill="none" stroke="#000000" stroke-width="2"/>
<line marker-end="url(#arrow)" stroke="#000000" stroke-width="2" x1="585" x2="357" y1="263" y2="263"/>
<line stroke="#000000" stroke-width="2" x1="353" x2="122" y1="263" y2="263"/>
<path d="M122,263 A9,9 0 0,0 113,272" fill="none" stroke="#000000" stroke-width="2"/>
<line marker-end="url(#arrow)" stroke="#000000" stroke-width="2" x1="113" x2="113" y1="272" y2="278"/>
<line stroke="#000000" stroke-width="2" x1="113" x2="113" y1="282" y2="293"/>
<path d="M113,293 A9,9 0 0,0 122,302" fill="none" stroke="#000000" stroke-width="2"/>
<line marker-end="url(#arrow)" stroke="#000000" stroke-width="2" x1="122" x2="156" y1="302" y2="302"/>
<line marker-end="url(#arrow)" stroke="#000000" stroke-width="2" x1="15" x2="29" y1="63" y2="63"/>
<circle cx="563" cy="302" fill="#ffffff" r="3" stroke="#000000" stroke-width="2"/>
<line marker-end="url(#arrow)" stroke="#000000" stroke-width="2" x1="542" x2="556" y1="302" y2="302"/>
<text class="title_font" x="103" y="28">create_grain</text>
</svg>
