<?xml version="1.0" encoding="UTF-8" standalone="no"?>
<svg xmlns:xlink="http://www.w3.org/1999/xlink" xmlns="http://www.w3.org/2000/svg" height="88" preserveAspectRatio="xMidYMid meet" xml:space="preserve" version="1.1" viewBox="0 0 517 88" width="517">
<style type="text/css">
<![CDATA[
.title_font {fill:#000000; text-anchor:middle;
font-family:Roboto; font-size:20pt; font-weight:normal; font-style:normal; }
.literal_font {fill:#000000; text-anchor:middle;
font-family:Roboto; font-size:14pt; font-weight:normal; font-style:normal; }
.token_font {fill:#000000; text-anchor:middle;
font-family:Roboto; font-size:16pt; font-weight:normal; font-style:normal; }
.box_font {fill:#000000; text-anchor:middle;
font-family:Roboto; font-size:14pt; font-weight:normal; font-style:normal; }
.bubble_font {fill:#000000; text-anchor:middle;
font-family:Roboto; font-size:14pt; font-weight:normal; font-style:normal; }
.label {fill: #000; text-anchor:middle; font-size:16pt; font-weight:bold; font-family:Sans;}
.link {fill: #0D47A1;}
.link:hover {fill: #0D47A1; text-decoration:underline;}
.link:visited {fill: #4A148C;}
]]>
</style>
<defs>
<marker id="arrow" markerHeight="4" markerUnits="strokeWidth" markerWidth="5" orient="auto" refX="2.5" refY="2">
<path d="M0,0 L0.5,2 L0,4 L4.5,2 z" fill="#000000"/>
</marker>
</defs>
<rect fill="white" height="100%" width="100%"/>
<circle cx="13" cy="63" fill="#ffffff" r="3" stroke="#000000" stroke-width="2"/>
<path d="M47,78 A14,14 0 0,1 47,50 H108 A14,14 0 0,1 108,78 z" fill="#ffffff" fill-opacity="1.0" stroke="#000000" stroke-width="2"/>
<text class="bubble_font" x="77" y="69">CREATE</text>
<path d="M153,78 A14,14 0 0,1 153,50 H193 A14,14 0 0,1 193,78 z" fill="#ffffff" fill-opacity="1.0" stroke="#000000" stroke-width="2"/>
<text class="bubble_font" x="173" y="69">VIEW</text>
<line marker-end="url(#arrow)" stroke="#000000" stroke-width="2" x1="121" x2="135" y1="63" y2="63"/>
<path d="M231,78 H330 L337,64 L330,50 H231 L224,64 z" fill="#ffffff" fill-opacity="1.0" stroke="#000000" stroke-width="2"/>
<text class="literal_font" x="280" y="69">view name</text>
<line marker-end="url(#arrow)" stroke="#000000" stroke-width="2" x1="206" x2="220" y1="63" y2="63"/>
<path d="M368,78 A14,14 0 0,1 368,50 H388 A14,14 0 0,1 388,78 z" fill="#ffffff" fill-opacity="1.0" stroke="#000000" stroke-width="2"/>
<text class="bubble_font" x="378" y="69">AS</text>
<line marker-end="url(#arrow)" stroke="#000000" stroke-width="2" x1="336" x2="350" y1="63" y2="63"/>
<rect fill="#ffffff" fill-opacity="1.0" height="28" stroke="#000000" stroke-width="2" width="65" x="419" y="50"/>
<a xlink:href="1050_celesta_sql.html#query" target="_parent"><text class="box_font link" x="451" y="69">query</text></a>
<line marker-end="url(#arrow)" stroke="#000000" stroke-width="2" x1="401" x2="415" y1="63" y2="63"/>
<line marker-end="url(#arrow)" stroke="#000000" stroke-width="2" x1="15" x2="29" y1="63" y2="63"/>
<circle cx="504" cy="63" fill="#ffffff" r="3" stroke="#000000" stroke-width="2"/>
<line marker-end="url(#arrow)" stroke="#000000" stroke-width="2" x1="483" x2="497" y1="63" y2="63"/>
<text class="title_font" x="100" y="28">create_view</text>
</svg>
