<?xml version="1.0" encoding="UTF-8" standalone="no"?>
<svg xmlns:xlink="http://www.w3.org/1999/xlink" xmlns="http://www.w3.org/2000/svg" height="88" preserveAspectRatio="xMidYMid meet" xml:space="preserve" version="1.1" viewBox="0 0 545 88" width="545">
<style type="text/css">
<![CDATA[
.title_font {fill:#000000; text-anchor:middle;
font-family:Roboto; font-size:20pt; font-weight:normal; font-style:normal; }
.literal_font {fill:#000000; text-anchor:middle;
font-family:Roboto; font-size:14pt; font-weight:normal; font-style:normal; }
.token_font {fill:#000000; text-anchor:middle;
font-family:Roboto; font-size:16pt; font-weight:normal; font-style:normal; }
.box_font {fill:#000000; text-anchor:middle;
font-family:Roboto; font-size:14pt; font-weight:normal; font-style:normal; }
.bubble_font {fill:#000000; text-anchor:middle;
font-family:Roboto; font-size:14pt; font-weight:normal; font-style:normal; }
.label {fill: #000; text-anchor:middle; font-size:16pt; font-weight:bold; font-family:Sans;}
.link {fill: #0D47A1;}
.link:hover {fill: #0D47A1; text-decoration:underline;}
.link:visited {fill: #4A148C;}
]]>
</style>
<defs>
<marker id="arrow" markerHeight="4" markerUnits="strokeWidth" markerWidth="5" orient="auto" refX="2.5" refY="2">
<path d="M0,0 L0.5,2 L0,4 L4.5,2 z" fill="#000000"/>
</marker>
</defs>
<rect fill="white" height="100%" width="100%"/>
<circle cx="13" cy="63" fill="#ffffff" r="3" stroke="#000000" stroke-width="2"/>
<path d="M47,78 A14,14 0 0,1 47,50 H126 A14,14 0 0,1 126,78 z" fill="#ffffff" fill-opacity="1.0" stroke="#000000" stroke-width="2"/>
<text class="bubble_font" x="86" y="69">DATETIME</text>
<path d="M171,78 A14,14 0 0,1 171,50 H212 A14,14 0 0,1 212,78 z" fill="#ffffff" fill-opacity="1.0" stroke="#000000" stroke-width="2"/>
<text class="bubble_font" x="191" y="69">WITH</text>
<line marker-end="url(#arrow)" stroke="#000000" stroke-width="2" x1="139" x2="153" y1="63" y2="63"/>
<path d="M257,78 A14,14 0 0,1 257,50 H294 A14,14 0 0,1 294,78 z" fill="#ffffff" fill-opacity="1.0" stroke="#000000" stroke-width="2"/>
<text class="bubble_font" x="275" y="69">TIME</text>
<line marker-end="url(#arrow)" stroke="#000000" stroke-width="2" x1="225" x2="239" y1="63" y2="63"/>
<path d="M339,78 A14,14 0 0,1 339,50 H382 A14,14 0 0,1 382,78 z" fill="#ffffff" fill-opacity="1.0" stroke="#000000" stroke-width="2"/>
<text class="bubble_font" x="360" y="69">ZONE</text>
<line marker-end="url(#arrow)" stroke="#000000" stroke-width="2" x1="307" x2="321" y1="63" y2="63"/>
<rect fill="#ffffff" fill-opacity="1.0" height="28" stroke="#000000" stroke-width="2" width="99" x="413" y="50"/>
<a xlink:href="1050_celesta_sql.html#nullability" target="_parent"><text class="box_font link" x="462" y="69">nullability</text></a>
<line marker-end="url(#arrow)" stroke="#000000" stroke-width="2" x1="395" x2="409" y1="63" y2="63"/>
<line marker-end="url(#arrow)" stroke="#000000" stroke-width="2" x1="15" x2="29" y1="63" y2="63"/>
<circle cx="532" cy="63" fill="#ffffff" r="3" stroke="#000000" stroke-width="2"/>
<line marker-end="url(#arrow)" stroke="#000000" stroke-width="2" x1="511" x2="525" y1="63" y2="63"/>
<text class="title_font" x="203" y="28">datetime_with_time_zone_field</text>
</svg>
