<?xml version="1.0" encoding="UTF-8" standalone="no"?>
<svg xmlns:xlink="http://www.w3.org/1999/xlink" xmlns="http://www.w3.org/2000/svg" height="137" preserveAspectRatio="xMidYMid meet" xml:space="preserve" version="1.1" viewBox="0 0 811 137" width="811">
<style type="text/css">
<![CDATA[
.title_font {fill:#000000; text-anchor:middle;
font-family:Roboto; font-size:20pt; font-weight:normal; font-style:normal; }
.literal_font {fill:#000000; text-anchor:middle;
font-family:Roboto; font-size:14pt; font-weight:normal; font-style:normal; }
.token_font {fill:#000000; text-anchor:middle;
font-family:Roboto; font-size:16pt; font-weight:normal; font-style:normal; }
.box_font {fill:#000000; text-anchor:middle;
font-family:Roboto; font-size:14pt; font-weight:normal; font-style:normal; }
.bubble_font {fill:#000000; text-anchor:middle;
font-family:Roboto; font-size:14pt; font-weight:normal; font-style:normal; }
.label {fill: #000; text-anchor:middle; font-size:16pt; font-weight:bold; font-family:Sans;}
.link {fill: #0D47A1;}
.link:hover {fill: #0D47A1; text-decoration:underline;}
.link:visited {fill: #4A148C;}
]]>
</style>
<defs>
<marker id="arrow" markerHeight="4" markerUnits="strokeWidth" markerWidth="5" orient="auto" refX="2.5" refY="2">
<path d="M0,0 L0.5,2 L0,4 L4.5,2 z" fill="#000000"/>
</marker>
</defs>
<rect fill="white" height="100%" width="100%"/>
<circle cx="13" cy="63" fill="#ffffff" r="3" stroke="#000000" stroke-width="2"/>
<path d="M47,78 A14,14 0 0,1 47,50 H126 A14,14 0 0,1 126,78 z" fill="#ffffff" fill-opacity="1.0" stroke="#000000" stroke-width="2"/>
<text class="bubble_font" x="86" y="69">DATETIME</text>
<rect fill="#ffffff" fill-opacity="1.0" height="28" stroke="#000000" stroke-width="2" width="99" x="157" y="50"/>
<a xlink:href="1050_celesta_sql.html#nullability" target="_parent"><text class="box_font link" x="206" y="69">nullability</text></a>
<line marker-end="url(#arrow)" stroke="#000000" stroke-width="2" x1="139" x2="153" y1="63" y2="63"/>
<path d="M325,78 A14,14 0 0,1 325,50 H395 A14,14 0 0,1 395,78 z" fill="#ffffff" fill-opacity="1.0" stroke="#000000" stroke-width="2"/>
<text class="bubble_font" x="360" y="69">DEFAULT</text>
<path d="M479,79 A15,15 0 0,1 479,49 H484 A15,15 0 0,1 484,79 z" fill="#ffffff" fill-opacity="1.0" stroke="#000000" stroke-width="2"/>
<text class="token_font" x="481" y="69">'</text>
<path d="M523,78 H624 L631,64 L624,50 H523 L516,64 z" fill="#ffffff" fill-opacity="1.0" stroke="#000000" stroke-width="2"/>
<text class="literal_font" x="573" y="69">YYYYMMDD</text>
<line marker-end="url(#arrow)" stroke="#000000" stroke-width="2" x1="498" x2="512" y1="63" y2="63"/>
<path d="M663,79 A15,15 0 0,1 663,49 H668 A15,15 0 0,1 668,79 z" fill="#ffffff" fill-opacity="1.0" stroke="#000000" stroke-width="2"/>
<text class="token_font" x="665" y="69">'</text>
<line marker-end="url(#arrow)" stroke="#000000" stroke-width="2" x1="630" x2="644" y1="63" y2="63"/>
<path d="M489,118 A15,15 0 0,1 489,88 H585 A15,15 0 0,1 585,118 z" fill="#ffffff" fill-opacity="1.0" stroke="#000000" stroke-width="2"/>
<text class="token_font" x="537" y="108">GETDATE()</text>
<line stroke="#000000" stroke-width="2" x1="426" x2="464" y1="63" y2="63"/>
<line stroke="#000000" stroke-width="2" x1="683" x2="722" y1="63" y2="63"/>
<path d="M445,82 A19,19 0 0,0 426,63" fill="none" stroke="#000000" stroke-width="2"/>
<line marker-end="url(#arrow)" stroke="#000000" stroke-width="2" x1="464" x2="470" y1="102" y2="102"/>
<line stroke="#000000" stroke-width="2" x1="600" x2="683" y1="102" y2="102"/>
<path d="M445,83 A19,19 0 0,0 464,102" fill="none" stroke="#000000" stroke-width="2"/>
<path d="M683,102 A19,19 0 0,0 702,83" fill="none" stroke="#000000" stroke-width="2"/>
<path d="M721,63 A19,19 0 0,0 702,82" fill="none" stroke="#000000" stroke-width="2"/>
<line stroke="#000000" stroke-width="2" x1="445" x2="445" y1="83" y2="82"/>
<line stroke="#000000" stroke-width="2" x1="702" x2="702" y1="83" y2="82"/>
<line marker-end="url(#arrow)" stroke="#000000" stroke-width="2" x1="408" x2="422" y1="63" y2="63"/>
<line stroke="#000000" stroke-width="2" x1="525" x2="526" y1="127" y2="127"/>
<line stroke="#000000" stroke-width="2" x1="273" x2="311" y1="63" y2="63"/>
<line stroke="#000000" stroke-width="2" x1="721" x2="779" y1="63" y2="63"/>
<path d="M292,82 A19,19 0 0,0 273,63" fill="none" stroke="#000000" stroke-width="2"/>
<line marker-end="url(#arrow)" stroke="#000000" stroke-width="2" x1="311" x2="521" y1="127" y2="127"/>
<line stroke="#000000" stroke-width="2" x1="526" x2="740" y1="127" y2="127"/>
<path d="M292,108 A19,19 0 0,0 311,127" fill="none" stroke="#000000" stroke-width="2"/>
<path d="M740,127 A19,19 0 0,0 759,108" fill="none" stroke="#000000" stroke-width="2"/>
<path d="M778,63 A19,19 0 0,0 759,82" fill="none" stroke="#000000" stroke-width="2"/>
<line stroke="#000000" stroke-width="2" x1="292" x2="292" y1="108" y2="82"/>
<line stroke="#000000" stroke-width="2" x1="759" x2="759" y1="108" y2="82"/>
<line marker-end="url(#arrow)" stroke="#000000" stroke-width="2" x1="255" x2="269" y1="63" y2="63"/>
<line marker-end="url(#arrow)" stroke="#000000" stroke-width="2" x1="15" x2="29" y1="63" y2="63"/>
<circle cx="798" cy="63" fill="#ffffff" r="3" stroke="#000000" stroke-width="2"/>
<line marker-end="url(#arrow)" stroke="#000000" stroke-width="2" x1="777" x2="791" y1="63" y2="63"/>
<text class="title_font" x="113" y="28">datetime_field</text>
</svg>
