<?xml version="1.0" encoding="UTF-8" standalone="no"?>
<svg xmlns:xlink="http://www.w3.org/1999/xlink" xmlns="http://www.w3.org/2000/svg" height="479" preserveAspectRatio="xMidYMid meet" xml:space="preserve" version="1.1" viewBox="0 0 794 479" width="794">
<style type="text/css">
<![CDATA[
.title_font {fill:#000000; text-anchor:middle;
font-family:Roboto; font-size:20pt; font-weight:normal; font-style:normal; }
.literal_font {fill:#000000; text-anchor:middle;
font-family:Roboto; font-size:14pt; font-weight:normal; font-style:normal; }
.token_font {fill:#000000; text-anchor:middle;
font-family:Roboto; font-size:16pt; font-weight:normal; font-style:normal; }
.box_font {fill:#000000; text-anchor:middle;
font-family:Roboto; font-size:14pt; font-weight:normal; font-style:normal; }
.bubble_font {fill:#000000; text-anchor:middle;
font-family:Roboto; font-size:14pt; font-weight:normal; font-style:normal; }
.label {fill: #000; text-anchor:middle; font-size:16pt; font-weight:bold; font-family:Sans;}
.link {fill: #0D47A1;}
.link:hover {fill: #0D47A1; text-decoration:underline;}
.link:visited {fill: #4A148C;}
]]>
</style>
<defs>
<marker id="arrow" markerHeight="4" markerUnits="strokeWidth" markerWidth="5" orient="auto" refX="2.5" refY="2">
<path d="M0,0 L0.5,2 L0,4 L4.5,2 z" fill="#000000"/>
</marker>
</defs>
<rect fill="white" height="100%" width="100%"/>
<circle cx="13" cy="63" fill="#ffffff" r="3" stroke="#000000" stroke-width="2"/>
<path d="M40,78 H138 L145,64 L138,50 H40 L33,64 z" fill="#ffffff" fill-opacity="1.0" stroke="#000000" stroke-width="2"/>
<text class="literal_font" x="89" y="69">field name</text>
<rect fill="#ffffff" fill-opacity="1.0" height="28" stroke="#000000" stroke-width="2" width="84" x="210" y="50"/>
<a xlink:href="1050_celesta_sql.html#int_field" target="_parent"><text class="box_font link" x="252" y="69">int_field</text></a>
<rect fill="#ffffff" fill-opacity="1.0" height="28" stroke="#000000" stroke-width="2" width="124" x="210" y="88"/>
<a xlink:href="1050_celesta_sql.html#floating_field" target="_parent"><text class="box_font link" x="272" y="107">floating_field</text></a>
<rect fill="#ffffff" fill-opacity="1.0" height="28" stroke="#000000" stroke-width="2" width="125" x="210" y="125"/>
<a xlink:href="1050_celesta_sql.html#decimal_field" target="_parent"><text class="box_font link" x="272" y="144">decimal_field</text></a>
<rect fill="#ffffff" fill-opacity="1.0" height="28" stroke="#000000" stroke-width="2" width="95" x="210" y="162"/>
<a xlink:href="1050_celesta_sql.html#text_field" target="_parent"><text class="box_font link" x="257" y="181">text_field</text></a>
<rect fill="#ffffff" fill-opacity="1.0" height="28" stroke="#000000" stroke-width="2" width="97" x="210" y="199"/>
<a xlink:href="1050_celesta_sql.html#blob_field" target="_parent"><text class="box_font link" x="258" y="218">blob_field</text></a>
<rect fill="#ffffff" fill-opacity="1.0" height="28" stroke="#000000" stroke-width="2" width="134" x="210" y="236"/>
<a xlink:href="1050_celesta_sql.html#datetime_field" target="_parent"><text class="box_font link" x="277" y="255">datetime_field</text></a>
<rect fill="#ffffff" fill-opacity="1.0" height="28" stroke="#000000" stroke-width="2" width="265" x="210" y="273"/>
<a xlink:href="1050_celesta_sql.html#datetime_with_time_zone_field" target="_parent"><text class="box_font link" x="342" y="292">datetime_with_time_zone_field</text></a>
<rect fill="#ffffff" fill-opacity="1.0" height="28" stroke="#000000" stroke-width="2" width="84" x="210" y="310"/>
<a xlink:href="1050_celesta_sql.html#bit_field" target="_parent"><text class="box_font link" x="252" y="329">bit_field</text></a>
<line marker-end="url(#arrow)" stroke="#000000" stroke-width="2" x1="162" x2="206" y1="63" y2="63"/>
<line stroke="#000000" stroke-width="2" x1="294" x2="524" y1="63" y2="63"/>
<path d="M181,82 A19,19 0 0,0 162,63" fill="none" stroke="#000000" stroke-width="2"/>
<line marker-end="url(#arrow)" stroke="#000000" stroke-width="2" x1="200" x2="206" y1="101" y2="101"/>
<line stroke="#000000" stroke-width="2" x1="334" x2="485" y1="101" y2="101"/>
<path d="M181,82 A19,19 0 0,0 200,101" fill="none" stroke="#000000" stroke-width="2"/>
<path d="M485,101 A19,19 0 0,0 504,82" fill="none" stroke="#000000" stroke-width="2"/>
<line marker-end="url(#arrow)" stroke="#000000" stroke-width="2" x1="200" x2="206" y1="138" y2="138"/>
<line stroke="#000000" stroke-width="2" x1="335" x2="485" y1="138" y2="138"/>
<path d="M181,119 A19,19 0 0,0 200,138" fill="none" stroke="#000000" stroke-width="2"/>
<path d="M485,138 A19,19 0 0,0 504,119" fill="none" stroke="#000000" stroke-width="2"/>
<line marker-end="url(#arrow)" stroke="#000000" stroke-width="2" x1="200" x2="206" y1="175" y2="175"/>
<line stroke="#000000" stroke-width="2" x1="305" x2="485" y1="175" y2="175"/>
<path d="M181,156 A19,19 0 0,0 200,175" fill="none" stroke="#000000" stroke-width="2"/>
<path d="M485,175 A19,19 0 0,0 504,156" fill="none" stroke="#000000" stroke-width="2"/>
<line marker-end="url(#arrow)" stroke="#000000" stroke-width="2" x1="200" x2="206" y1="212" y2="212"/>
<line stroke="#000000" stroke-width="2" x1="307" x2="485" y1="212" y2="212"/>
<path d="M181,193 A19,19 0 0,0 200,212" fill="none" stroke="#000000" stroke-width="2"/>
<path d="M485,212 A19,19 0 0,0 504,193" fill="none" stroke="#000000" stroke-width="2"/>
<line marker-end="url(#arrow)" stroke="#000000" stroke-width="2" x1="200" x2="206" y1="249" y2="249"/>
<line stroke="#000000" stroke-width="2" x1="344" x2="485" y1="249" y2="249"/>
<path d="M181,230 A19,19 0 0,0 200,249" fill="none" stroke="#000000" stroke-width="2"/>
<path d="M485,249 A19,19 0 0,0 504,230" fill="none" stroke="#000000" stroke-width="2"/>
<line marker-end="url(#arrow)" stroke="#000000" stroke-width="2" x1="200" x2="206" y1="286" y2="286"/>
<line stroke="#000000" stroke-width="2" x1="475" x2="485" y1="286" y2="286"/>
<path d="M181,267 A19,19 0 0,0 200,286" fill="none" stroke="#000000" stroke-width="2"/>
<path d="M485,286 A19,19 0 0,0 504,267" fill="none" stroke="#000000" stroke-width="2"/>
<line marker-end="url(#arrow)" stroke="#000000" stroke-width="2" x1="200" x2="206" y1="323" y2="323"/>
<line stroke="#000000" stroke-width="2" x1="294" x2="485" y1="323" y2="323"/>
<path d="M181,304 A19,19 0 0,0 200,323" fill="none" stroke="#000000" stroke-width="2"/>
<path d="M485,323 A19,19 0 0,0 504,304" fill="none" stroke="#000000" stroke-width="2"/>
<path d="M523,63 A19,19 0 0,0 504,82" fill="none" stroke="#000000" stroke-width="2"/>
<line stroke="#000000" stroke-width="2" x1="181" x2="181" y1="304" y2="82"/>
<line stroke="#000000" stroke-width="2" x1="504" x2="504" y1="304" y2="82"/>
<line marker-end="url(#arrow)" stroke="#000000" stroke-width="2" x1="144" x2="158" y1="63" y2="63"/>
<line stroke="#000000" stroke-width="2" x1="344" x2="345" y1="416" y2="416"/>
<path d="M273,469 A14,14 0 0,1 273,441 H342 A14,14 0 0,1 342,469 z" fill="#ffffff" fill-opacity="1.0" stroke="#000000" stroke-width="2"/>
<text class="bubble_font" x="307" y="460">PRIMARY</text>
<path d="M387,469 A14,14 0 0,1 387,441 H416 A14,14 0 0,1 416,469 z" fill="#ffffff" fill-opacity="1.0" stroke="#000000" stroke-width="2"/>
<text class="bubble_font" x="401" y="460">KEY</text>
<line marker-end="url(#arrow)" stroke="#000000" stroke-width="2" x1="355" x2="369" y1="454" y2="454"/>
<line marker-end="url(#arrow)" stroke="#000000" stroke-width="2" x1="211" x2="340" y1="416" y2="416"/>
<line stroke="#000000" stroke-width="2" x1="345" x2="479" y1="416" y2="416"/>
<path d="M230,435 A19,19 0 0,0 211,416" fill="none" stroke="#000000" stroke-width="2"/>
<line marker-end="url(#arrow)" stroke="#000000" stroke-width="2" x1="249" x2="255" y1="454" y2="454"/>
<line stroke="#000000" stroke-width="2" x1="430" x2="440" y1="454" y2="454"/>
<path d="M230,435 A19,19 0 0,0 249,454" fill="none" stroke="#000000" stroke-width="2"/>
<path d="M440,454 A19,19 0 0,0 459,435" fill="none" stroke="#000000" stroke-width="2"/>
<path d="M478,416 A19,19 0 0,0 459,435" fill="none" stroke="#000000" stroke-width="2"/>
<line stroke="#000000" stroke-width="2" x1="230" x2="230" y1="435" y2="435"/>
<line stroke="#000000" stroke-width="2" x1="459" x2="459" y1="435" y2="435"/>
<line stroke="#000000" stroke-width="2" x1="627" x2="628" y1="416" y2="416"/>
<rect fill="#ffffff" fill-opacity="1.0" height="28" stroke="#000000" stroke-width="2" width="170" x="543" y="441"/>
<a xlink:href="1050_celesta_sql.html#inline_fk_definition" target="_parent"><text class="box_font link" x="628" y="460">inline_fk_definition</text></a>
<line marker-end="url(#arrow)" stroke="#000000" stroke-width="2" x1="495" x2="623" y1="416" y2="416"/>
<line stroke="#000000" stroke-width="2" x1="628" x2="762" y1="416" y2="416"/>
<path d="M514,435 A19,19 0 0,0 495,416" fill="none" stroke="#000000" stroke-width="2"/>
<line marker-end="url(#arrow)" stroke="#000000" stroke-width="2" x1="533" x2="539" y1="454" y2="454"/>
<line stroke="#000000" stroke-width="2" x1="713" x2="723" y1="454" y2="454"/>
<path d="M514,435 A19,19 0 0,0 533,454" fill="none" stroke="#000000" stroke-width="2"/>
<path d="M723,454 A19,19 0 0,0 742,435" fill="none" stroke="#000000" stroke-width="2"/>
<path d="M761,416 A19,19 0 0,0 742,435" fill="none" stroke="#000000" stroke-width="2"/>
<line stroke="#000000" stroke-width="2" x1="514" x2="514" y1="435" y2="435"/>
<line stroke="#000000" stroke-width="2" x1="742" x2="742" y1="435" y2="435"/>
<line marker-end="url(#arrow)" stroke="#000000" stroke-width="2" x1="477" x2="491" y1="416" y2="416"/>
<line stroke="#000000" stroke-width="2" x1="523" x2="561" y1="63" y2="63"/>
<path d="M570,72 A9,9 0 0,0 561,63" fill="none" stroke="#000000" stroke-width="2"/>
<line marker-end="url(#arrow)" stroke="#000000" stroke-width="2" x1="570" x2="570" y1="72" y2="216"/>
<line stroke="#000000" stroke-width="2" x1="570" x2="570" y1="220" y2="368"/>
<path d="M561,377 A9,9 0 0,0 570,368" fill="none" stroke="#000000" stroke-width="2"/>
<line marker-end="url(#arrow)" stroke="#000000" stroke-width="2" x1="561" x2="371" y1="377" y2="377"/>
<line stroke="#000000" stroke-width="2" x1="367" x2="173" y1="377" y2="377"/>
<path d="M173,377 A9,9 0 0,0 164,386" fill="none" stroke="#000000" stroke-width="2"/>
<line marker-end="url(#arrow)" stroke="#000000" stroke-width="2" x1="164" x2="164" y1="386" y2="392"/>
<line stroke="#000000" stroke-width="2" x1="164" x2="164" y1="396" y2="407"/>
<path d="M164,407 A9,9 0 0,0 173,416" fill="none" stroke="#000000" stroke-width="2"/>
<line marker-end="url(#arrow)" stroke="#000000" stroke-width="2" x1="173" x2="207" y1="416" y2="416"/>
<line marker-end="url(#arrow)" stroke="#000000" stroke-width="2" x1="15" x2="29" y1="63" y2="63"/>
<circle cx="781" cy="416" fill="#ffffff" r="3" stroke="#000000" stroke-width="2"/>
<line marker-end="url(#arrow)" stroke="#000000" stroke-width="2" x1="760" x2="774" y1="416" y2="416"/>
<text class="title_font" x="116" y="28">field_definition</text>
</svg>
