<?xml version="1.0" encoding="UTF-8" standalone="no"?>
<svg xmlns:xlink="http://www.w3.org/1999/xlink" xmlns="http://www.w3.org/2000/svg" height="352" preserveAspectRatio="xMidYMid meet" xml:space="preserve" version="1.1" viewBox="0 0 792 352" width="792">
<style type="text/css">
<![CDATA[
.title_font {fill:#000000; text-anchor:middle;
font-family:Roboto; font-size:20pt; font-weight:normal; font-style:normal; }
.literal_font {fill:#000000; text-anchor:middle;
font-family:Roboto; font-size:14pt; font-weight:normal; font-style:normal; }
.token_font {fill:#000000; text-anchor:middle;
font-family:Roboto; font-size:16pt; font-weight:normal; font-style:normal; }
.box_font {fill:#000000; text-anchor:middle;
font-family:Roboto; font-size:14pt; font-weight:normal; font-style:normal; }
.bubble_font {fill:#000000; text-anchor:middle;
font-family:Roboto; font-size:14pt; font-weight:normal; font-style:normal; }
.label {fill: #000; text-anchor:middle; font-size:16pt; font-weight:bold; font-family:Sans;}
.link {fill: #0D47A1;}
.link:hover {fill: #0D47A1; text-decoration:underline;}
.link:visited {fill: #4A148C;}
]]>
</style>
<defs>
<marker id="arrow" markerHeight="4" markerUnits="strokeWidth" markerWidth="5" orient="auto" refX="2.5" refY="2">
<path d="M0,0 L0.5,2 L0,4 L4.5,2 z" fill="#000000"/>
</marker>
</defs>
<rect fill="white" height="100%" width="100%"/>
<circle cx="13" cy="63" fill="#ffffff" r="3" stroke="#000000" stroke-width="2"/>
<path d="M86,79 A15,15 0 0,1 86,49 H103 A15,15 0 0,1 103,79 z" fill="#ffffff" fill-opacity="1.0" stroke="#000000" stroke-width="2"/>
<text class="token_font" x="94" y="69">@</text>
<line stroke="#000000" stroke-width="2" x1="94" x2="95" y1="101" y2="101"/>
<line stroke="#000000" stroke-width="2" x1="33" x2="71" y1="63" y2="63"/>
<line stroke="#000000" stroke-width="2" x1="118" x2="157" y1="63" y2="63"/>
<path d="M52,82 A19,19 0 0,0 33,63" fill="none" stroke="#000000" stroke-width="2"/>
<line marker-end="url(#arrow)" stroke="#000000" stroke-width="2" x1="71" x2="90" y1="101" y2="101"/>
<line stroke="#000000" stroke-width="2" x1="95" x2="118" y1="101" y2="101"/>
<path d="M52,82 A19,19 0 0,0 71,101" fill="none" stroke="#000000" stroke-width="2"/>
<path d="M118,101 A19,19 0 0,0 137,82" fill="none" stroke="#000000" stroke-width="2"/>
<path d="M156,63 A19,19 0 0,0 137,82" fill="none" stroke="#000000" stroke-width="2"/>
<line stroke="#000000" stroke-width="2" x1="52" x2="52" y1="82" y2="82"/>
<line stroke="#000000" stroke-width="2" x1="137" x2="137" y1="82" y2="82"/>
<path d="M235,78 A14,14 0 0,1 235,50 H264 A14,14 0 0,1 264,78 z" fill="#ffffff" fill-opacity="1.0" stroke="#000000" stroke-width="2"/>
<text class="bubble_font" x="249" y="69">null</text>
<path d="M228,116 H326 L333,102 L326,88 H228 L221,102 z" fill="#ffffff" fill-opacity="1.0" stroke="#000000" stroke-width="2"/>
<text class="literal_font" x="277" y="107">text literal</text>
<path d="M403,117 A15,15 0 0,1 403,87 H415 A15,15 0 0,1 415,117 z" fill="#ffffff" fill-opacity="1.0" stroke="#000000" stroke-width="2"/>
<text class="token_font" x="409" y="107">..</text>
<path d="M492,116 H590 L597,102 L590,88 H492 L485,102 z" fill="#ffffff" fill-opacity="1.0" stroke="#000000" stroke-width="2"/>
<text class="literal_font" x="541" y="107">text literal</text>
<line stroke="#000000" stroke-width="2" x1="540" x2="541" y1="139" y2="139"/>
<line stroke="#000000" stroke-width="2" x1="447" x2="485" y1="101" y2="101"/>
<line stroke="#000000" stroke-width="2" x1="597" x2="636" y1="101" y2="101"/>
<path d="M466,120 A19,19 0 0,0 447,101" fill="none" stroke="#000000" stroke-width="2"/>
<line marker-end="url(#arrow)" stroke="#000000" stroke-width="2" x1="485" x2="536" y1="139" y2="139"/>
<line stroke="#000000" stroke-width="2" x1="541" x2="597" y1="139" y2="139"/>
<path d="M466,120 A19,19 0 0,0 485,139" fill="none" stroke="#000000" stroke-width="2"/>
<path d="M597,139 A19,19 0 0,0 616,120" fill="none" stroke="#000000" stroke-width="2"/>
<path d="M635,101 A19,19 0 0,0 616,120" fill="none" stroke="#000000" stroke-width="2"/>
<line stroke="#000000" stroke-width="2" x1="466" x2="466" y1="120" y2="120"/>
<line stroke="#000000" stroke-width="2" x1="616" x2="616" y1="120" y2="120"/>
<line marker-end="url(#arrow)" stroke="#000000" stroke-width="2" x1="429" x2="443" y1="101" y2="101"/>
<line stroke="#000000" stroke-width="2" x1="520" x2="521" y1="148" y2="148"/>
<line stroke="#000000" stroke-width="2" x1="350" x2="388" y1="101" y2="101"/>
<line stroke="#000000" stroke-width="2" x1="635" x2="693" y1="101" y2="101"/>
<path d="M369,120 A19,19 0 0,0 350,101" fill="none" stroke="#000000" stroke-width="2"/>
<line marker-end="url(#arrow)" stroke="#000000" stroke-width="2" x1="388" x2="516" y1="148" y2="148"/>
<line stroke="#000000" stroke-width="2" x1="521" x2="654" y1="148" y2="148"/>
<path d="M369,129 A19,19 0 0,0 388,148" fill="none" stroke="#000000" stroke-width="2"/>
<path d="M654,148 A19,19 0 0,0 673,129" fill="none" stroke="#000000" stroke-width="2"/>
<path d="M692,101 A19,19 0 0,0 673,120" fill="none" stroke="#000000" stroke-width="2"/>
<line stroke="#000000" stroke-width="2" x1="369" x2="369" y1="129" y2="120"/>
<line stroke="#000000" stroke-width="2" x1="673" x2="673" y1="129" y2="120"/>
<line marker-end="url(#arrow)" stroke="#000000" stroke-width="2" x1="332" x2="346" y1="101" y2="101"/>
<path d="M284,187 A15,15 0 0,1 284,157 H296 A15,15 0 0,1 296,187 z" fill="#ffffff" fill-opacity="1.0" stroke="#000000" stroke-width="2"/>
<text class="token_font" x="290" y="177">..</text>
<path d="M284,226 A15,15 0 0,1 284,196 H298 A15,15 0 0,1 298,226 z" fill="#ffffff" fill-opacity="1.0" stroke="#000000" stroke-width="2"/>
<text class="token_font" x="291" y="216">&gt;</text>
<path d="M284,265 A15,15 0 0,1 284,235 H298 A15,15 0 0,1 298,265 z" fill="#ffffff" fill-opacity="1.0" stroke="#000000" stroke-width="2"/>
<text class="token_font" x="291" y="255">&lt;</text>
<line marker-end="url(#arrow)" stroke="#000000" stroke-width="2" x1="221" x2="265" y1="171" y2="171"/>
<line stroke="#000000" stroke-width="2" x1="311" x2="362" y1="171" y2="171"/>
<path d="M240,190 A19,19 0 0,0 221,171" fill="none" stroke="#000000" stroke-width="2"/>
<line marker-end="url(#arrow)" stroke="#000000" stroke-width="2" x1="259" x2="265" y1="210" y2="210"/>
<line stroke="#000000" stroke-width="2" x1="313" x2="323" y1="210" y2="210"/>
<path d="M240,191 A19,19 0 0,0 259,210" fill="none" stroke="#000000" stroke-width="2"/>
<path d="M323,210 A19,19 0 0,0 342,191" fill="none" stroke="#000000" stroke-width="2"/>
<line marker-end="url(#arrow)" stroke="#000000" stroke-width="2" x1="259" x2="265" y1="249" y2="249"/>
<line stroke="#000000" stroke-width="2" x1="313" x2="323" y1="249" y2="249"/>
<path d="M240,230 A19,19 0 0,0 259,249" fill="none" stroke="#000000" stroke-width="2"/>
<path d="M323,249 A19,19 0 0,0 342,230" fill="none" stroke="#000000" stroke-width="2"/>
<path d="M361,171 A19,19 0 0,0 342,190" fill="none" stroke="#000000" stroke-width="2"/>
<line stroke="#000000" stroke-width="2" x1="240" x2="240" y1="230" y2="190"/>
<line stroke="#000000" stroke-width="2" x1="342" x2="342" y1="230" y2="190"/>
<path d="M385,186 H483 L490,172 L483,158 H385 L378,172 z" fill="#ffffff" fill-opacity="1.0" stroke="#000000" stroke-width="2"/>
<text class="literal_font" x="434" y="177">text literal</text>
<line marker-end="url(#arrow)" stroke="#000000" stroke-width="2" x1="360" x2="374" y1="171" y2="171"/>
<path d="M274,304 A15,15 0 0,1 274,274 H290 A15,15 0 0,1 290,304 z" fill="#ffffff" fill-opacity="1.0" stroke="#000000" stroke-width="2"/>
<text class="token_font" x="282" y="294">%</text>
<line stroke="#000000" stroke-width="2" x1="281" x2="282" y1="326" y2="326"/>
<line stroke="#000000" stroke-width="2" x1="221" x2="259" y1="288" y2="288"/>
<line stroke="#000000" stroke-width="2" x1="305" x2="344" y1="288" y2="288"/>
<path d="M240,307 A19,19 0 0,0 221,288" fill="none" stroke="#000000" stroke-width="2"/>
<line marker-end="url(#arrow)" stroke="#000000" stroke-width="2" x1="259" x2="277" y1="326" y2="326"/>
<line stroke="#000000" stroke-width="2" x1="282" x2="305" y1="326" y2="326"/>
<path d="M240,307 A19,19 0 0,0 259,326" fill="none" stroke="#000000" stroke-width="2"/>
<path d="M305,326 A19,19 0 0,0 324,307" fill="none" stroke="#000000" stroke-width="2"/>
<path d="M343,288 A19,19 0 0,0 324,307" fill="none" stroke="#000000" stroke-width="2"/>
<line stroke="#000000" stroke-width="2" x1="240" x2="240" y1="307" y2="307"/>
<line stroke="#000000" stroke-width="2" x1="324" x2="324" y1="307" y2="307"/>
<path d="M386,303 H484 L491,289 L484,275 H386 L379,289 z" fill="#ffffff" fill-opacity="1.0" stroke="#000000" stroke-width="2"/>
<text class="literal_font" x="435" y="294">text literal</text>
<path d="M427,342 A15,15 0 0,1 427,312 H443 A15,15 0 0,1 443,342 z" fill="#ffffff" fill-opacity="1.0" stroke="#000000" stroke-width="2"/>
<text class="token_font" x="435" y="332">%</text>
<line stroke="#000000" stroke-width="2" x1="379" x2="412" y1="326" y2="326"/>
<line marker-end="url(#arrow)" stroke="#000000" stroke-width="2" x1="491" x2="462" y1="326" y2="326"/>
<line stroke="#000000" stroke-width="2" x1="360" x2="379" y1="288" y2="288"/>
<path d="M379,288 A9,9 0 0,0 370,297" fill="none" stroke="#000000" stroke-width="2"/>
<line marker-end="url(#arrow)" stroke="#000000" stroke-width="2" x1="370" x2="370" y1="317" y2="311"/>
<line stroke="#000000" stroke-width="2" x1="370" x2="370" y1="307" y2="297"/>
<path d="M370,317 A9,9 0 0,0 379,326" fill="none" stroke="#000000" stroke-width="2"/>
<path d="M500,297 A9,9 0 0,0 491,288" fill="none" stroke="#000000" stroke-width="2"/>
<line marker-end="url(#arrow)" stroke="#000000" stroke-width="2" x1="500" x2="500" y1="297" y2="303"/>
<line stroke="#000000" stroke-width="2" x1="500" x2="500" y1="307" y2="317"/>
<path d="M491,326 A9,9 0 0,0 500,317" fill="none" stroke="#000000" stroke-width="2"/>
<line stroke="#000000" stroke-width="2" x1="491" x2="500" y1="288" y2="288"/>
<line marker-end="url(#arrow)" stroke="#000000" stroke-width="2" x1="342" x2="356" y1="288" y2="288"/>
<path d="M570,304 A15,15 0 0,1 570,274 H586 A15,15 0 0,1 586,304 z" fill="#ffffff" fill-opacity="1.0" stroke="#000000" stroke-width="2"/>
<text class="token_font" x="578" y="294">%</text>
<line stroke="#000000" stroke-width="2" x1="577" x2="578" y1="326" y2="326"/>
<line stroke="#000000" stroke-width="2" x1="517" x2="555" y1="288" y2="288"/>
<line stroke="#000000" stroke-width="2" x1="601" x2="640" y1="288" y2="288"/>
<path d="M536,307 A19,19 0 0,0 517,288" fill="none" stroke="#000000" stroke-width="2"/>
<line marker-end="url(#arrow)" stroke="#000000" stroke-width="2" x1="555" x2="573" y1="326" y2="326"/>
<line stroke="#000000" stroke-width="2" x1="578" x2="601" y1="326" y2="326"/>
<path d="M536,307 A19,19 0 0,0 555,326" fill="none" stroke="#000000" stroke-width="2"/>
<path d="M601,326 A19,19 0 0,0 620,307" fill="none" stroke="#000000" stroke-width="2"/>
<path d="M639,288 A19,19 0 0,0 620,307" fill="none" stroke="#000000" stroke-width="2"/>
<line stroke="#000000" stroke-width="2" x1="536" x2="536" y1="307" y2="307"/>
<line stroke="#000000" stroke-width="2" x1="620" x2="620" y1="307" y2="307"/>
<line marker-end="url(#arrow)" stroke="#000000" stroke-width="2" x1="499" x2="513" y1="288" y2="288"/>
<line marker-end="url(#arrow)" stroke="#000000" stroke-width="2" x1="173" x2="217" y1="63" y2="63"/>
<line stroke="#000000" stroke-width="2" x1="278" x2="760" y1="63" y2="63"/>
<path d="M192,82 A19,19 0 0,0 173,63" fill="none" stroke="#000000" stroke-width="2"/>
<line marker-end="url(#arrow)" stroke="#000000" stroke-width="2" x1="211" x2="217" y1="101" y2="101"/>
<line stroke="#000000" stroke-width="2" x1="692" x2="721" y1="101" y2="101"/>
<path d="M192,82 A19,19 0 0,0 211,101" fill="none" stroke="#000000" stroke-width="2"/>
<path d="M721,101 A19,19 0 0,0 740,82" fill="none" stroke="#000000" stroke-width="2"/>
<line marker-end="url(#arrow)" stroke="#000000" stroke-width="2" x1="211" x2="217" y1="171" y2="171"/>
<line stroke="#000000" stroke-width="2" x1="490" x2="721" y1="171" y2="171"/>
<path d="M192,152 A19,19 0 0,0 211,171" fill="none" stroke="#000000" stroke-width="2"/>
<path d="M721,171 A19,19 0 0,0 740,152" fill="none" stroke="#000000" stroke-width="2"/>
<line marker-end="url(#arrow)" stroke="#000000" stroke-width="2" x1="211" x2="217" y1="288" y2="288"/>
<line stroke="#000000" stroke-width="2" x1="639" x2="721" y1="288" y2="288"/>
<path d="M192,269 A19,19 0 0,0 211,288" fill="none" stroke="#000000" stroke-width="2"/>
<path d="M721,288 A19,19 0 0,0 740,269" fill="none" stroke="#000000" stroke-width="2"/>
<path d="M759,63 A19,19 0 0,0 740,82" fill="none" stroke="#000000" stroke-width="2"/>
<line stroke="#000000" stroke-width="2" x1="192" x2="192" y1="269" y2="82"/>
<line stroke="#000000" stroke-width="2" x1="740" x2="740" y1="269" y2="82"/>
<line marker-end="url(#arrow)" stroke="#000000" stroke-width="2" x1="155" x2="169" y1="63" y2="63"/>
<line marker-end="url(#arrow)" stroke="#000000" stroke-width="2" x1="15" x2="29" y1="63" y2="63"/>
<circle cx="779" cy="63" fill="#ffffff" r="3" stroke="#000000" stroke-width="2"/>
<line marker-end="url(#arrow)" stroke="#000000" stroke-width="2" x1="758" x2="772" y1="63" y2="63"/>
<text class="title_font" x="88" y="28">text_term</text>
</svg>
