<?xml version="1.0" encoding="UTF-8" standalone="no"?>
<svg xmlns:xlink="http://www.w3.org/1999/xlink" xmlns="http://www.w3.org/2000/svg" height="205" preserveAspectRatio="xMidYMid meet" xml:space="preserve" version="1.1" viewBox="0 0 486 205" width="486">
<style type="text/css">
<![CDATA[
.title_font {fill:#000000; text-anchor:middle;
font-family:Roboto; font-size:20pt; font-weight:normal; font-style:normal; }
.literal_font {fill:#000000; text-anchor:middle;
font-family:Roboto; font-size:14pt; font-weight:normal; font-style:normal; }
.token_font {fill:#000000; text-anchor:middle;
font-family:Roboto; font-size:16pt; font-weight:normal; font-style:normal; }
.box_font {fill:#000000; text-anchor:middle;
font-family:Roboto; font-size:14pt; font-weight:normal; font-style:normal; }
.bubble_font {fill:#000000; text-anchor:middle;
font-family:Roboto; font-size:14pt; font-weight:normal; font-style:normal; }
.label {fill: #000; text-anchor:middle; font-size:16pt; font-weight:bold; font-family:Sans;}
.link {fill: #0D47A1;}
.link:hover {fill: #0D47A1; text-decoration:underline;}
.link:visited {fill: #4A148C;}
]]>
</style>
<defs>
<marker id="arrow" markerHeight="4" markerUnits="strokeWidth" markerWidth="5" orient="auto" refX="2.5" refY="2">
<path d="M0,0 L0.5,2 L0,4 L4.5,2 z" fill="#000000"/>
</marker>
</defs>
<rect fill="white" height="100%" width="100%"/>
<circle cx="13" cy="63" fill="#ffffff" r="3" stroke="#000000" stroke-width="2"/>
<path d="M105,79 A15,15 0 0,1 105,49 H112 A15,15 0 0,1 112,79 z" fill="#ffffff" fill-opacity="1.0" stroke="#000000" stroke-width="2"/>
<text class="token_font" x="108" y="69">!</text>
<line stroke="#000000" stroke-width="2" x1="108" x2="109" y1="101" y2="101"/>
<line stroke="#000000" stroke-width="2" x1="52" x2="90" y1="63" y2="63"/>
<line stroke="#000000" stroke-width="2" x1="127" x2="166" y1="63" y2="63"/>
<path d="M71,82 A19,19 0 0,0 52,63" fill="none" stroke="#000000" stroke-width="2"/>
<line marker-end="url(#arrow)" stroke="#000000" stroke-width="2" x1="90" x2="104" y1="101" y2="101"/>
<line stroke="#000000" stroke-width="2" x1="109" x2="127" y1="101" y2="101"/>
<path d="M71,82 A19,19 0 0,0 90,101" fill="none" stroke="#000000" stroke-width="2"/>
<path d="M127,101 A19,19 0 0,0 146,82" fill="none" stroke="#000000" stroke-width="2"/>
<path d="M165,63 A19,19 0 0,0 146,82" fill="none" stroke="#000000" stroke-width="2"/>
<line stroke="#000000" stroke-width="2" x1="71" x2="71" y1="82" y2="82"/>
<line stroke="#000000" stroke-width="2" x1="146" x2="146" y1="82" y2="82"/>
<rect fill="#ffffff" fill-opacity="1.0" height="28" stroke="#000000" stroke-width="2" width="57" x="230" y="50"/>
<text class="box_font" x="258" y="69">term</text>
<path d="M245,117 A15,15 0 0,1 245,87 H252 A15,15 0 0,1 252,117 z" fill="#ffffff" fill-opacity="1.0" stroke="#000000" stroke-width="2"/>
<text class="token_font" x="248" y="107">(</text>
<rect fill="#ffffff" fill-opacity="1.0" height="28" stroke="#000000" stroke-width="2" width="58" x="284" y="88"/>
<text class="box_font" x="313" y="107">filter</text>
<line marker-end="url(#arrow)" stroke="#000000" stroke-width="2" x1="266" x2="280" y1="101" y2="101"/>
<path d="M374,117 A15,15 0 0,1 374,87 H381 A15,15 0 0,1 381,117 z" fill="#ffffff" fill-opacity="1.0" stroke="#000000" stroke-width="2"/>
<text class="token_font" x="377" y="107">)</text>
<line marker-end="url(#arrow)" stroke="#000000" stroke-width="2" x1="341" x2="355" y1="101" y2="101"/>
<line marker-end="url(#arrow)" stroke="#000000" stroke-width="2" x1="182" x2="226" y1="63" y2="63"/>
<line stroke="#000000" stroke-width="2" x1="287" x2="445" y1="63" y2="63"/>
<path d="M201,82 A19,19 0 0,0 182,63" fill="none" stroke="#000000" stroke-width="2"/>
<line marker-end="url(#arrow)" stroke="#000000" stroke-width="2" x1="220" x2="226" y1="101" y2="101"/>
<line stroke="#000000" stroke-width="2" x1="396" x2="406" y1="101" y2="101"/>
<path d="M201,82 A19,19 0 0,0 220,101" fill="none" stroke="#000000" stroke-width="2"/>
<path d="M406,101 A19,19 0 0,0 425,82" fill="none" stroke="#000000" stroke-width="2"/>
<path d="M444,63 A19,19 0 0,0 425,82" fill="none" stroke="#000000" stroke-width="2"/>
<line stroke="#000000" stroke-width="2" x1="201" x2="201" y1="82" y2="82"/>
<line stroke="#000000" stroke-width="2" x1="425" x2="425" y1="82" y2="82"/>
<line marker-end="url(#arrow)" stroke="#000000" stroke-width="2" x1="164" x2="178" y1="63" y2="63"/>
<path d="M222,156 A15,15 0 0,1 222,126 H235 A15,15 0 0,1 235,156 z" fill="#ffffff" fill-opacity="1.0" stroke="#000000" stroke-width="2"/>
<text class="token_font" x="228" y="146">&amp;</text>
<path d="M226,195 A15,15 0 0,1 226,165 H232 A15,15 0 0,1 232,195 z" fill="#ffffff" fill-opacity="1.0" stroke="#000000" stroke-width="2"/>
<text class="token_font" x="229" y="185">|</text>
<line stroke="#000000" stroke-width="2" x1="163" x2="207" y1="140" y2="140"/>
<line marker-end="url(#arrow)" stroke="#000000" stroke-width="2" x1="296" x2="254" y1="140" y2="140"/>
<path d="M182,159 A19,19 0 0,0 163,140" fill="none" stroke="#000000" stroke-width="2"/>
<line stroke="#000000" stroke-width="2" x1="201" x2="211" y1="179" y2="179"/>
<line marker-end="url(#arrow)" stroke="#000000" stroke-width="2" x1="257" x2="251" y1="179" y2="179"/>
<path d="M182,160 A19,19 0 0,0 201,179" fill="none" stroke="#000000" stroke-width="2"/>
<path d="M257,179 A19,19 0 0,0 276,160" fill="none" stroke="#000000" stroke-width="2"/>
<path d="M295,140 A19,19 0 0,0 276,159" fill="none" stroke="#000000" stroke-width="2"/>
<line stroke="#000000" stroke-width="2" x1="182" x2="182" y1="160" y2="159"/>
<line stroke="#000000" stroke-width="2" x1="276" x2="276" y1="160" y2="159"/>
<line stroke="#000000" stroke-width="2" x1="52" x2="163" y1="140" y2="140"/>
<line marker-end="url(#arrow)" stroke="#000000" stroke-width="2" x1="444" x2="299" y1="140" y2="140"/>
<line stroke="#000000" stroke-width="2" x1="33" x2="52" y1="63" y2="63"/>
<path d="M52,63 A9,9 0 0,0 43,72" fill="none" stroke="#000000" stroke-width="2"/>
<line marker-end="url(#arrow)" stroke="#000000" stroke-width="2" x1="43" x2="43" y1="131" y2="105"/>
<line stroke="#000000" stroke-width="2" x1="43" x2="43" y1="101" y2="72"/>
<path d="M43,131 A9,9 0 0,0 52,140" fill="none" stroke="#000000" stroke-width="2"/>
<path d="M453,72 A9,9 0 0,0 444,63" fill="none" stroke="#000000" stroke-width="2"/>
<line marker-end="url(#arrow)" stroke="#000000" stroke-width="2" x1="453" x2="453" y1="72" y2="97"/>
<line stroke="#000000" stroke-width="2" x1="453" x2="453" y1="101" y2="131"/>
<path d="M444,140 A9,9 0 0,0 453,131" fill="none" stroke="#000000" stroke-width="2"/>
<line stroke="#000000" stroke-width="2" x1="444" x2="453" y1="63" y2="63"/>
<line marker-end="url(#arrow)" stroke="#000000" stroke-width="2" x1="15" x2="29" y1="63" y2="63"/>
<circle cx="473" cy="63" fill="#ffffff" r="3" stroke="#000000" stroke-width="2"/>
<line marker-end="url(#arrow)" stroke="#000000" stroke-width="2" x1="452" x2="466" y1="63" y2="63"/>
<text class="title_font" x="61" y="28">filter</text>
</svg>
