<?xml version="1.0" encoding="UTF-8" standalone="no"?>
<svg xmlns:xlink="http://www.w3.org/1999/xlink" xmlns="http://www.w3.org/2000/svg" height="275" preserveAspectRatio="xMidYMid meet" xml:space="preserve" version="1.1" viewBox="0 0 716 275" width="716">
<style type="text/css">
<![CDATA[
.title_font {fill:#000000; text-anchor:middle;
font-family:Roboto; font-size:20pt; font-weight:normal; font-style:normal; }
.literal_font {fill:#000000; text-anchor:middle;
font-family:Roboto; font-size:14pt; font-weight:normal; font-style:normal; }
.token_font {fill:#000000; text-anchor:middle;
font-family:Roboto; font-size:16pt; font-weight:normal; font-style:normal; }
.box_font {fill:#000000; text-anchor:middle;
font-family:Roboto; font-size:14pt; font-weight:normal; font-style:normal; }
.bubble_font {fill:#000000; text-anchor:middle;
font-family:Roboto; font-size:14pt; font-weight:normal; font-style:normal; }
.label {fill: #000; text-anchor:middle; font-size:16pt; font-weight:bold; font-family:Sans;}
.link {fill: #0D47A1;}
.link:hover {fill: #0D47A1; text-decoration:underline;}
.link:visited {fill: #4A148C;}
]]>
</style>
<defs>
<marker id="arrow" markerHeight="4" markerUnits="strokeWidth" markerWidth="5" orient="auto" refX="2.5" refY="2">
<path d="M0,0 L0.5,2 L0,4 L4.5,2 z" fill="#000000"/>
</marker>
</defs>
<rect fill="white" height="100%" width="100%"/>
<circle cx="13" cy="63" fill="#ffffff" r="3" stroke="#000000" stroke-width="2"/>
<path d="M95,78 A14,14 0 0,1 95,50 H124 A14,14 0 0,1 124,78 z" fill="#ffffff" fill-opacity="1.0" stroke="#000000" stroke-width="2"/>
<text class="bubble_font" x="109" y="69">null</text>
<path d="M88,116 H218 L225,102 L218,88 H88 L81,102 z" fill="#ffffff" fill-opacity="1.0" stroke="#000000" stroke-width="2"/>
<text class="literal_font" x="153" y="107">numeric literal</text>
<path d="M295,117 A15,15 0 0,1 295,87 H307 A15,15 0 0,1 307,117 z" fill="#ffffff" fill-opacity="1.0" stroke="#000000" stroke-width="2"/>
<text class="token_font" x="301" y="107">..</text>
<path d="M384,116 H514 L521,102 L514,88 H384 L377,102 z" fill="#ffffff" fill-opacity="1.0" stroke="#000000" stroke-width="2"/>
<text class="literal_font" x="449" y="107">numeric literal</text>
<line stroke="#000000" stroke-width="2" x1="448" x2="449" y1="139" y2="139"/>
<line stroke="#000000" stroke-width="2" x1="339" x2="377" y1="101" y2="101"/>
<line stroke="#000000" stroke-width="2" x1="521" x2="560" y1="101" y2="101"/>
<path d="M358,120 A19,19 0 0,0 339,101" fill="none" stroke="#000000" stroke-width="2"/>
<line marker-end="url(#arrow)" stroke="#000000" stroke-width="2" x1="377" x2="444" y1="139" y2="139"/>
<line stroke="#000000" stroke-width="2" x1="449" x2="521" y1="139" y2="139"/>
<path d="M358,120 A19,19 0 0,0 377,139" fill="none" stroke="#000000" stroke-width="2"/>
<path d="M521,139 A19,19 0 0,0 540,120" fill="none" stroke="#000000" stroke-width="2"/>
<path d="M559,101 A19,19 0 0,0 540,120" fill="none" stroke="#000000" stroke-width="2"/>
<line stroke="#000000" stroke-width="2" x1="358" x2="358" y1="120" y2="120"/>
<line stroke="#000000" stroke-width="2" x1="540" x2="540" y1="120" y2="120"/>
<line marker-end="url(#arrow)" stroke="#000000" stroke-width="2" x1="321" x2="335" y1="101" y2="101"/>
<line stroke="#000000" stroke-width="2" x1="428" x2="429" y1="148" y2="148"/>
<line stroke="#000000" stroke-width="2" x1="242" x2="280" y1="101" y2="101"/>
<line stroke="#000000" stroke-width="2" x1="559" x2="617" y1="101" y2="101"/>
<path d="M261,120 A19,19 0 0,0 242,101" fill="none" stroke="#000000" stroke-width="2"/>
<line marker-end="url(#arrow)" stroke="#000000" stroke-width="2" x1="280" x2="424" y1="148" y2="148"/>
<line stroke="#000000" stroke-width="2" x1="429" x2="578" y1="148" y2="148"/>
<path d="M261,129 A19,19 0 0,0 280,148" fill="none" stroke="#000000" stroke-width="2"/>
<path d="M578,148 A19,19 0 0,0 597,129" fill="none" stroke="#000000" stroke-width="2"/>
<path d="M616,101 A19,19 0 0,0 597,120" fill="none" stroke="#000000" stroke-width="2"/>
<line stroke="#000000" stroke-width="2" x1="261" x2="261" y1="129" y2="120"/>
<line stroke="#000000" stroke-width="2" x1="597" x2="597" y1="129" y2="120"/>
<line marker-end="url(#arrow)" stroke="#000000" stroke-width="2" x1="224" x2="238" y1="101" y2="101"/>
<path d="M144,187 A15,15 0 0,1 144,157 H156 A15,15 0 0,1 156,187 z" fill="#ffffff" fill-opacity="1.0" stroke="#000000" stroke-width="2"/>
<text class="token_font" x="150" y="177">..</text>
<path d="M144,226 A15,15 0 0,1 144,196 H158 A15,15 0 0,1 158,226 z" fill="#ffffff" fill-opacity="1.0" stroke="#000000" stroke-width="2"/>
<text class="token_font" x="151" y="216">&gt;</text>
<path d="M144,265 A15,15 0 0,1 144,235 H158 A15,15 0 0,1 158,265 z" fill="#ffffff" fill-opacity="1.0" stroke="#000000" stroke-width="2"/>
<text class="token_font" x="151" y="255">&lt;</text>
<line marker-end="url(#arrow)" stroke="#000000" stroke-width="2" x1="81" x2="125" y1="171" y2="171"/>
<line stroke="#000000" stroke-width="2" x1="171" x2="222" y1="171" y2="171"/>
<path d="M100,190 A19,19 0 0,0 81,171" fill="none" stroke="#000000" stroke-width="2"/>
<line marker-end="url(#arrow)" stroke="#000000" stroke-width="2" x1="119" x2="125" y1="210" y2="210"/>
<line stroke="#000000" stroke-width="2" x1="173" x2="183" y1="210" y2="210"/>
<path d="M100,191 A19,19 0 0,0 119,210" fill="none" stroke="#000000" stroke-width="2"/>
<path d="M183,210 A19,19 0 0,0 202,191" fill="none" stroke="#000000" stroke-width="2"/>
<line marker-end="url(#arrow)" stroke="#000000" stroke-width="2" x1="119" x2="125" y1="249" y2="249"/>
<line stroke="#000000" stroke-width="2" x1="173" x2="183" y1="249" y2="249"/>
<path d="M100,230 A19,19 0 0,0 119,249" fill="none" stroke="#000000" stroke-width="2"/>
<path d="M183,249 A19,19 0 0,0 202,230" fill="none" stroke="#000000" stroke-width="2"/>
<path d="M221,171 A19,19 0 0,0 202,190" fill="none" stroke="#000000" stroke-width="2"/>
<line stroke="#000000" stroke-width="2" x1="100" x2="100" y1="230" y2="190"/>
<line stroke="#000000" stroke-width="2" x1="202" x2="202" y1="230" y2="190"/>
<path d="M245,186 H375 L382,172 L375,158 H245 L238,172 z" fill="#ffffff" fill-opacity="1.0" stroke="#000000" stroke-width="2"/>
<text class="literal_font" x="310" y="177">numeric literal</text>
<line marker-end="url(#arrow)" stroke="#000000" stroke-width="2" x1="220" x2="234" y1="171" y2="171"/>
<line marker-end="url(#arrow)" stroke="#000000" stroke-width="2" x1="33" x2="77" y1="63" y2="63"/>
<line stroke="#000000" stroke-width="2" x1="138" x2="684" y1="63" y2="63"/>
<path d="M52,82 A19,19 0 0,0 33,63" fill="none" stroke="#000000" stroke-width="2"/>
<line marker-end="url(#arrow)" stroke="#000000" stroke-width="2" x1="71" x2="77" y1="101" y2="101"/>
<line stroke="#000000" stroke-width="2" x1="616" x2="645" y1="101" y2="101"/>
<path d="M52,82 A19,19 0 0,0 71,101" fill="none" stroke="#000000" stroke-width="2"/>
<path d="M645,101 A19,19 0 0,0 664,82" fill="none" stroke="#000000" stroke-width="2"/>
<line marker-end="url(#arrow)" stroke="#000000" stroke-width="2" x1="71" x2="77" y1="171" y2="171"/>
<line stroke="#000000" stroke-width="2" x1="382" x2="645" y1="171" y2="171"/>
<path d="M52,152 A19,19 0 0,0 71,171" fill="none" stroke="#000000" stroke-width="2"/>
<path d="M645,171 A19,19 0 0,0 664,152" fill="none" stroke="#000000" stroke-width="2"/>
<path d="M683,63 A19,19 0 0,0 664,82" fill="none" stroke="#000000" stroke-width="2"/>
<line stroke="#000000" stroke-width="2" x1="52" x2="52" y1="152" y2="82"/>
<line stroke="#000000" stroke-width="2" x1="664" x2="664" y1="152" y2="82"/>
<line marker-end="url(#arrow)" stroke="#000000" stroke-width="2" x1="15" x2="29" y1="63" y2="63"/>
<circle cx="703" cy="63" fill="#ffffff" r="3" stroke="#000000" stroke-width="2"/>
<line marker-end="url(#arrow)" stroke="#000000" stroke-width="2" x1="682" x2="696" y1="63" y2="63"/>
<text class="title_font" x="110" y="28">numeric_term</text>
</svg>
