<?xml version="1.0" encoding="UTF-8" standalone="no"?>
<svg xmlns:xlink="http://www.w3.org/1999/xlink" xmlns="http://www.w3.org/2000/svg" height="362" preserveAspectRatio="xMidYMid meet" xml:space="preserve" version="1.1" viewBox="0 0 749 362" width="749">
<style type="text/css">
<![CDATA[
.title_font {fill:#000000; text-anchor:middle;
font-family:Roboto; font-size:20pt; font-weight:normal; font-style:normal; }
.literal_font {fill:#000000; text-anchor:middle;
font-family:Roboto; font-size:14pt; font-weight:normal; font-style:normal; }
.token_font {fill:#000000; text-anchor:middle;
font-family:Roboto; font-size:16pt; font-weight:normal; font-style:normal; }
.box_font {fill:#000000; text-anchor:middle;
font-family:Roboto; font-size:14pt; font-weight:normal; font-style:normal; }
.bubble_font {fill:#000000; text-anchor:middle;
font-family:Roboto; font-size:14pt; font-weight:normal; font-style:normal; }
.label {fill: #000; text-anchor:middle; font-size:16pt; font-weight:bold; font-family:Sans;}
.link {fill: #0D47A1;}
.link:hover {fill: #0D47A1; text-decoration:underline;}
.link:visited {fill: #4A148C;}
]]>
</style>
<defs>
<marker id="arrow" markerHeight="4" markerUnits="strokeWidth" markerWidth="5" orient="auto" refX="2.5" refY="2">
<path d="M0,0 L0.5,2 L0,4 L4.5,2 z" fill="#000000"/>
</marker>
</defs>
<rect fill="white" height="100%" width="100%"/>
<circle cx="13" cy="63" fill="#ffffff" r="3" stroke="#000000" stroke-width="2"/>
<path d="M85,78 A14,14 0 0,1 85,50 H108 A14,14 0 0,1 108,78 z" fill="#ffffff" fill-opacity="1.0" stroke="#000000" stroke-width="2"/>
<text class="bubble_font" x="96" y="69">ON</text>
<path d="M153,78 A14,14 0 0,1 153,50 H215 A14,14 0 0,1 215,78 z" fill="#ffffff" fill-opacity="1.0" stroke="#000000" stroke-width="2"/>
<text class="bubble_font" x="184" y="69">UPDATE</text>
<line marker-end="url(#arrow)" stroke="#000000" stroke-width="2" x1="121" x2="135" y1="63" y2="63"/>
<path d="M301,78 A14,14 0 0,1 301,50 H324 A14,14 0 0,1 324,78 z" fill="#ffffff" fill-opacity="1.0" stroke="#000000" stroke-width="2"/>
<text class="bubble_font" x="312" y="69">NO</text>
<path d="M369,78 A14,14 0 0,1 369,50 H428 A14,14 0 0,1 428,78 z" fill="#ffffff" fill-opacity="1.0" stroke="#000000" stroke-width="2"/>
<text class="bubble_font" x="398" y="69">ACTION</text>
<line marker-end="url(#arrow)" stroke="#000000" stroke-width="2" x1="337" x2="351" y1="63" y2="63"/>
<path d="M308,116 A14,14 0 0,1 308,88 H382 A14,14 0 0,1 382,116 z" fill="#ffffff" fill-opacity="1.0" stroke="#000000" stroke-width="2"/>
<text class="bubble_font" x="345" y="107">CASCADE</text>
<path d="M308,153 A14,14 0 0,1 308,125 H337 A14,14 0 0,1 337,153 z" fill="#ffffff" fill-opacity="1.0" stroke="#000000" stroke-width="2"/>
<text class="bubble_font" x="322" y="144">SET</text>
<path d="M382,153 A14,14 0 0,1 382,125 H422 A14,14 0 0,1 422,153 z" fill="#ffffff" fill-opacity="1.0" stroke="#000000" stroke-width="2"/>
<text class="bubble_font" x="402" y="144">NULL</text>
<line marker-end="url(#arrow)" stroke="#000000" stroke-width="2" x1="350" x2="364" y1="138" y2="138"/>
<line marker-end="url(#arrow)" stroke="#000000" stroke-width="2" x1="246" x2="283" y1="63" y2="63"/>
<line stroke="#000000" stroke-width="2" x1="442" x2="485" y1="63" y2="63"/>
<path d="M265,82 A19,19 0 0,0 246,63" fill="none" stroke="#000000" stroke-width="2"/>
<line marker-end="url(#arrow)" stroke="#000000" stroke-width="2" x1="284" x2="290" y1="101" y2="101"/>
<line stroke="#000000" stroke-width="2" x1="396" x2="446" y1="101" y2="101"/>
<path d="M265,82 A19,19 0 0,0 284,101" fill="none" stroke="#000000" stroke-width="2"/>
<path d="M446,101 A19,19 0 0,0 465,82" fill="none" stroke="#000000" stroke-width="2"/>
<line marker-end="url(#arrow)" stroke="#000000" stroke-width="2" x1="284" x2="290" y1="138" y2="138"/>
<line stroke="#000000" stroke-width="2" x1="436" x2="446" y1="138" y2="138"/>
<path d="M265,119 A19,19 0 0,0 284,138" fill="none" stroke="#000000" stroke-width="2"/>
<path d="M446,138 A19,19 0 0,0 465,119" fill="none" stroke="#000000" stroke-width="2"/>
<path d="M484,63 A19,19 0 0,0 465,82" fill="none" stroke="#000000" stroke-width="2"/>
<line stroke="#000000" stroke-width="2" x1="265" x2="265" y1="119" y2="82"/>
<line stroke="#000000" stroke-width="2" x1="465" x2="465" y1="119" y2="82"/>
<line marker-end="url(#arrow)" stroke="#000000" stroke-width="2" x1="228" x2="242" y1="63" y2="63"/>
<line stroke="#000000" stroke-width="2" x1="286" x2="287" y1="162" y2="162"/>
<line stroke="#000000" stroke-width="2" x1="33" x2="71" y1="63" y2="63"/>
<line stroke="#000000" stroke-width="2" x1="484" x2="542" y1="63" y2="63"/>
<path d="M52,82 A19,19 0 0,0 33,63" fill="none" stroke="#000000" stroke-width="2"/>
<line marker-end="url(#arrow)" stroke="#000000" stroke-width="2" x1="71" x2="282" y1="162" y2="162"/>
<line stroke="#000000" stroke-width="2" x1="287" x2="503" y1="162" y2="162"/>
<path d="M52,143 A19,19 0 0,0 71,162" fill="none" stroke="#000000" stroke-width="2"/>
<path d="M503,162 A19,19 0 0,0 522,143" fill="none" stroke="#000000" stroke-width="2"/>
<path d="M541,63 A19,19 0 0,0 522,82" fill="none" stroke="#000000" stroke-width="2"/>
<line stroke="#000000" stroke-width="2" x1="52" x2="52" y1="143" y2="82"/>
<line stroke="#000000" stroke-width="2" x1="522" x2="522" y1="143" y2="82"/>
<path d="M263,268 A14,14 0 0,1 263,240 H286 A14,14 0 0,1 286,268 z" fill="#ffffff" fill-opacity="1.0" stroke="#000000" stroke-width="2"/>
<text class="bubble_font" x="274" y="259">ON</text>
<path d="M331,268 A14,14 0 0,1 331,240 H390 A14,14 0 0,1 390,268 z" fill="#ffffff" fill-opacity="1.0" stroke="#000000" stroke-width="2"/>
<text class="bubble_font" x="360" y="259">DELETE</text>
<line marker-end="url(#arrow)" stroke="#000000" stroke-width="2" x1="299" x2="313" y1="253" y2="253"/>
<path d="M476,268 A14,14 0 0,1 476,240 H499 A14,14 0 0,1 499,268 z" fill="#ffffff" fill-opacity="1.0" stroke="#000000" stroke-width="2"/>
<text class="bubble_font" x="487" y="259">NO</text>
<path d="M544,268 A14,14 0 0,1 544,240 H603 A14,14 0 0,1 603,268 z" fill="#ffffff" fill-opacity="1.0" stroke="#000000" stroke-width="2"/>
<text class="bubble_font" x="573" y="259">ACTION</text>
<line marker-end="url(#arrow)" stroke="#000000" stroke-width="2" x1="512" x2="526" y1="253" y2="253"/>
<path d="M483,306 A14,14 0 0,1 483,278 H557 A14,14 0 0,1 557,306 z" fill="#ffffff" fill-opacity="1.0" stroke="#000000" stroke-width="2"/>
<text class="bubble_font" x="520" y="297">CASCADE</text>
<path d="M483,343 A14,14 0 0,1 483,315 H512 A14,14 0 0,1 512,343 z" fill="#ffffff" fill-opacity="1.0" stroke="#000000" stroke-width="2"/>
<text class="bubble_font" x="497" y="334">SET</text>
<path d="M557,343 A14,14 0 0,1 557,315 H597 A14,14 0 0,1 597,343 z" fill="#ffffff" fill-opacity="1.0" stroke="#000000" stroke-width="2"/>
<text class="bubble_font" x="577" y="334">NULL</text>
<line marker-end="url(#arrow)" stroke="#000000" stroke-width="2" x1="525" x2="539" y1="328" y2="328"/>
<line marker-end="url(#arrow)" stroke="#000000" stroke-width="2" x1="421" x2="458" y1="253" y2="253"/>
<line stroke="#000000" stroke-width="2" x1="617" x2="660" y1="253" y2="253"/>
<path d="M440,272 A19,19 0 0,0 421,253" fill="none" stroke="#000000" stroke-width="2"/>
<line marker-end="url(#arrow)" stroke="#000000" stroke-width="2" x1="459" x2="465" y1="291" y2="291"/>
<line stroke="#000000" stroke-width="2" x1="571" x2="621" y1="291" y2="291"/>
<path d="M440,272 A19,19 0 0,0 459,291" fill="none" stroke="#000000" stroke-width="2"/>
<path d="M621,291 A19,19 0 0,0 640,272" fill="none" stroke="#000000" stroke-width="2"/>
<line marker-end="url(#arrow)" stroke="#000000" stroke-width="2" x1="459" x2="465" y1="328" y2="328"/>
<line stroke="#000000" stroke-width="2" x1="611" x2="621" y1="328" y2="328"/>
<path d="M440,309 A19,19 0 0,0 459,328" fill="none" stroke="#000000" stroke-width="2"/>
<path d="M621,328 A19,19 0 0,0 640,309" fill="none" stroke="#000000" stroke-width="2"/>
<path d="M659,253 A19,19 0 0,0 640,272" fill="none" stroke="#000000" stroke-width="2"/>
<line stroke="#000000" stroke-width="2" x1="440" x2="440" y1="309" y2="272"/>
<line stroke="#000000" stroke-width="2" x1="640" x2="640" y1="309" y2="272"/>
<line marker-end="url(#arrow)" stroke="#000000" stroke-width="2" x1="403" x2="417" y1="253" y2="253"/>
<line stroke="#000000" stroke-width="2" x1="463" x2="464" y1="352" y2="352"/>
<line stroke="#000000" stroke-width="2" x1="211" x2="249" y1="253" y2="253"/>
<line stroke="#000000" stroke-width="2" x1="659" x2="717" y1="253" y2="253"/>
<path d="M230,272 A19,19 0 0,0 211,253" fill="none" stroke="#000000" stroke-width="2"/>
<line marker-end="url(#arrow)" stroke="#000000" stroke-width="2" x1="249" x2="459" y1="352" y2="352"/>
<line stroke="#000000" stroke-width="2" x1="464" x2="678" y1="352" y2="352"/>
<path d="M230,333 A19,19 0 0,0 249,352" fill="none" stroke="#000000" stroke-width="2"/>
<path d="M678,352 A19,19 0 0,0 697,333" fill="none" stroke="#000000" stroke-width="2"/>
<path d="M716,253 A19,19 0 0,0 697,272" fill="none" stroke="#000000" stroke-width="2"/>
<line stroke="#000000" stroke-width="2" x1="230" x2="230" y1="333" y2="272"/>
<line stroke="#000000" stroke-width="2" x1="697" x2="697" y1="333" y2="272"/>
<line stroke="#000000" stroke-width="2" x1="541" x2="579" y1="63" y2="63"/>
<path d="M588,72 A9,9 0 0,0 579,63" fill="none" stroke="#000000" stroke-width="2"/>
<line marker-end="url(#arrow)" stroke="#000000" stroke-width="2" x1="588" x2="588" y1="72" y2="128"/>
<line stroke="#000000" stroke-width="2" x1="588" x2="588" y1="132" y2="192"/>
<path d="M579,201 A9,9 0 0,0 588,192" fill="none" stroke="#000000" stroke-width="2"/>
<line marker-end="url(#arrow)" stroke="#000000" stroke-width="2" x1="579" x2="380" y1="201" y2="201"/>
<line stroke="#000000" stroke-width="2" x1="376" x2="173" y1="201" y2="201"/>
<path d="M173,201 A9,9 0 0,0 164,210" fill="none" stroke="#000000" stroke-width="2"/>
<line marker-end="url(#arrow)" stroke="#000000" stroke-width="2" x1="164" x2="164" y1="210" y2="223"/>
<line stroke="#000000" stroke-width="2" x1="164" x2="164" y1="227" y2="244"/>
<path d="M164,244 A9,9 0 0,0 173,253" fill="none" stroke="#000000" stroke-width="2"/>
<line marker-end="url(#arrow)" stroke="#000000" stroke-width="2" x1="173" x2="207" y1="253" y2="253"/>
<line marker-end="url(#arrow)" stroke="#000000" stroke-width="2" x1="15" x2="29" y1="63" y2="63"/>
<circle cx="736" cy="253" fill="#ffffff" r="3" stroke="#000000" stroke-width="2"/>
<line marker-end="url(#arrow)" stroke="#000000" stroke-width="2" x1="715" x2="729" y1="253" y2="253"/>
<text class="title_font" x="77" y="28">fk_rules</text>
</svg>
