<?xml version="1.0" encoding="UTF-8" standalone="no"?>
<svg xmlns:xlink="http://www.w3.org/1999/xlink" xmlns="http://www.w3.org/2000/svg" height="111" preserveAspectRatio="xMidYMid meet" xml:space="preserve" version="1.1" viewBox="0 0 626 111" width="626">
<style type="text/css">
<![CDATA[
.title_font {fill:#000000; text-anchor:middle;
font-family:Roboto; font-size:20pt; font-weight:normal; font-style:normal; }
.literal_font {fill:#000000; text-anchor:middle;
font-family:Roboto; font-size:14pt; font-weight:normal; font-style:normal; }
.token_font {fill:#000000; text-anchor:middle;
font-family:Roboto; font-size:16pt; font-weight:normal; font-style:normal; }
.box_font {fill:#000000; text-anchor:middle;
font-family:Roboto; font-size:14pt; font-weight:normal; font-style:normal; }
.bubble_font {fill:#000000; text-anchor:middle;
font-family:Roboto; font-size:14pt; font-weight:normal; font-style:normal; }
.label {fill: #000; text-anchor:middle; font-size:16pt; font-weight:bold; font-family:Sans;}
.link {fill: #0D47A1;}
.link:hover {fill: #0D47A1; text-decoration:underline;}
.link:visited {fill: #4A148C;}
]]>
</style>
<defs>
<marker id="arrow" markerHeight="4" markerUnits="strokeWidth" markerWidth="5" orient="auto" refX="2.5" refY="2">
<path d="M0,0 L0.5,2 L0,4 L4.5,2 z" fill="#000000"/>
</marker>
</defs>
<rect fill="white" height="100%" width="100%"/>
<circle cx="13" cy="63" fill="#ffffff" r="3" stroke="#000000" stroke-width="2"/>
<path d="M47,78 A14,14 0 0,1 47,50 H86 A14,14 0 0,1 86,78 z" fill="#ffffff" fill-opacity="1.0" stroke="#000000" stroke-width="2"/>
<text class="bubble_font" x="66" y="69">REAL</text>
<rect fill="#ffffff" fill-opacity="1.0" height="28" stroke="#000000" stroke-width="2" width="99" x="117" y="50"/>
<a xlink:href="1050_celesta_sql.html#nullability" target="_parent"><text class="box_font link" x="166" y="69">nullability</text></a>
<line marker-end="url(#arrow)" stroke="#000000" stroke-width="2" x1="99" x2="113" y1="63" y2="63"/>
<path d="M285,78 A14,14 0 0,1 285,50 H355 A14,14 0 0,1 355,78 z" fill="#ffffff" fill-opacity="1.0" stroke="#000000" stroke-width="2"/>
<text class="bubble_font" x="320" y="69">DEFAULT</text>
<path d="M393,78 H548 L555,64 L548,50 H393 L386,64 z" fill="#ffffff" fill-opacity="1.0" stroke="#000000" stroke-width="2"/>
<text class="literal_font" x="470" y="69">float.-point literal</text>
<line marker-end="url(#arrow)" stroke="#000000" stroke-width="2" x1="368" x2="382" y1="63" y2="63"/>
<line stroke="#000000" stroke-width="2" x1="412" x2="413" y1="101" y2="101"/>
<line stroke="#000000" stroke-width="2" x1="233" x2="271" y1="63" y2="63"/>
<line stroke="#000000" stroke-width="2" x1="555" x2="594" y1="63" y2="63"/>
<path d="M252,82 A19,19 0 0,0 233,63" fill="none" stroke="#000000" stroke-width="2"/>
<line marker-end="url(#arrow)" stroke="#000000" stroke-width="2" x1="271" x2="408" y1="101" y2="101"/>
<line stroke="#000000" stroke-width="2" x1="413" x2="555" y1="101" y2="101"/>
<path d="M252,82 A19,19 0 0,0 271,101" fill="none" stroke="#000000" stroke-width="2"/>
<path d="M555,101 A19,19 0 0,0 574,82" fill="none" stroke="#000000" stroke-width="2"/>
<path d="M593,63 A19,19 0 0,0 574,82" fill="none" stroke="#000000" stroke-width="2"/>
<line stroke="#000000" stroke-width="2" x1="252" x2="252" y1="82" y2="82"/>
<line stroke="#000000" stroke-width="2" x1="574" x2="574" y1="82" y2="82"/>
<line marker-end="url(#arrow)" stroke="#000000" stroke-width="2" x1="215" x2="229" y1="63" y2="63"/>
<line marker-end="url(#arrow)" stroke="#000000" stroke-width="2" x1="15" x2="29" y1="63" y2="63"/>
<circle cx="613" cy="63" fill="#ffffff" r="3" stroke="#000000" stroke-width="2"/>
<line marker-end="url(#arrow)" stroke="#000000" stroke-width="2" x1="592" x2="606" y1="63" y2="63"/>
<text class="title_font" x="106" y="28">floating_field</text>
</svg>
