<?xml version="1.0" encoding="UTF-8" standalone="no"?>
<svg xmlns:xlink="http://www.w3.org/1999/xlink" xmlns="http://www.w3.org/2000/svg" height="273" preserveAspectRatio="xMidYMid meet" xml:space="preserve" version="1.1" viewBox="0 0 794 273" width="794">
<style type="text/css">
<![CDATA[
.title_font {fill:#000000; text-anchor:middle;
font-family:Roboto; font-size:20pt; font-weight:normal; font-style:normal; }
.literal_font {fill:#000000; text-anchor:middle;
font-family:Roboto; font-size:14pt; font-weight:normal; font-style:normal; }
.token_font {fill:#000000; text-anchor:middle;
font-family:Roboto; font-size:16pt; font-weight:normal; font-style:normal; }
.box_font {fill:#000000; text-anchor:middle;
font-family:Roboto; font-size:14pt; font-weight:normal; font-style:normal; }
.bubble_font {fill:#000000; text-anchor:middle;
font-family:Roboto; font-size:14pt; font-weight:normal; font-style:normal; }
.label {fill: #000; text-anchor:middle; font-size:16pt; font-weight:bold; font-family:Sans;}
.link {fill: #0D47A1;}
.link:hover {fill: #0D47A1; text-decoration:underline;}
.link:visited {fill: #4A148C;}
]]>
</style>
<defs>
<marker id="arrow" markerHeight="4" markerUnits="strokeWidth" markerWidth="5" orient="auto" refX="2.5" refY="2">
<path d="M0,0 L0.5,2 L0,4 L4.5,2 z" fill="#000000"/>
</marker>
</defs>
<rect fill="white" height="100%" width="100%"/>
<circle cx="13" cy="63" fill="#ffffff" r="3" stroke="#000000" stroke-width="2"/>
<path d="M47,78 A14,14 0 0,1 47,50 H117 A14,14 0 0,1 117,78 z" fill="#ffffff" fill-opacity="1.0" stroke="#000000" stroke-width="2"/>
<text class="bubble_font" x="82" y="69">FOREIGN</text>
<path d="M162,78 A14,14 0 0,1 162,50 H191 A14,14 0 0,1 191,78 z" fill="#ffffff" fill-opacity="1.0" stroke="#000000" stroke-width="2"/>
<text class="bubble_font" x="176" y="69">KEY</text>
<line marker-end="url(#arrow)" stroke="#000000" stroke-width="2" x1="130" x2="144" y1="63" y2="63"/>
<path d="M237,79 A15,15 0 0,1 237,49 H244 A15,15 0 0,1 244,79 z" fill="#ffffff" fill-opacity="1.0" stroke="#000000" stroke-width="2"/>
<text class="token_font" x="240" y="69">(</text>
<line marker-end="url(#arrow)" stroke="#000000" stroke-width="2" x1="204" x2="218" y1="63" y2="63"/>
<path d="M302,78 H400 L407,64 L400,50 H302 L295,64 z" fill="#ffffff" fill-opacity="1.0" stroke="#000000" stroke-width="2"/>
<text class="literal_font" x="351" y="69">field name</text>
<path d="M348,117 A15,15 0 0,1 348,87 H354 A15,15 0 0,1 354,117 z" fill="#ffffff" fill-opacity="1.0" stroke="#000000" stroke-width="2"/>
<text class="token_font" x="351" y="107">,</text>
<line stroke="#000000" stroke-width="2" x1="295" x2="333" y1="101" y2="101"/>
<line marker-end="url(#arrow)" stroke="#000000" stroke-width="2" x1="407" x2="373" y1="101" y2="101"/>
<line stroke="#000000" stroke-width="2" x1="276" x2="295" y1="63" y2="63"/>
<path d="M295,63 A9,9 0 0,0 286,72" fill="none" stroke="#000000" stroke-width="2"/>
<line marker-end="url(#arrow)" stroke="#000000" stroke-width="2" x1="286" x2="286" y1="92" y2="86"/>
<line stroke="#000000" stroke-width="2" x1="286" x2="286" y1="82" y2="72"/>
<path d="M286,92 A9,9 0 0,0 295,101" fill="none" stroke="#000000" stroke-width="2"/>
<path d="M416,72 A9,9 0 0,0 407,63" fill="none" stroke="#000000" stroke-width="2"/>
<line marker-end="url(#arrow)" stroke="#000000" stroke-width="2" x1="416" x2="416" y1="72" y2="78"/>
<line stroke="#000000" stroke-width="2" x1="416" x2="416" y1="82" y2="92"/>
<path d="M407,101 A9,9 0 0,0 416,92" fill="none" stroke="#000000" stroke-width="2"/>
<line stroke="#000000" stroke-width="2" x1="407" x2="416" y1="63" y2="63"/>
<line marker-end="url(#arrow)" stroke="#000000" stroke-width="2" x1="258" x2="272" y1="63" y2="63"/>
<path d="M448,79 A15,15 0 0,1 448,49 H455 A15,15 0 0,1 455,79 z" fill="#ffffff" fill-opacity="1.0" stroke="#000000" stroke-width="2"/>
<text class="token_font" x="451" y="69">)</text>
<line marker-end="url(#arrow)" stroke="#000000" stroke-width="2" x1="415" x2="429" y1="63" y2="63"/>
<path d="M174,224 A14,14 0 0,1 174,196 H276 A14,14 0 0,1 276,224 z" fill="#ffffff" fill-opacity="1.0" stroke="#000000" stroke-width="2"/>
<text class="bubble_font" x="225" y="215">REFERENCES</text>
<rect fill="#ffffff" fill-opacity="1.0" height="28" stroke="#000000" stroke-width="2" width="90" x="307" y="196"/>
<a xlink:href="1050_celesta_sql.html#table_ref" target="_parent"><text class="box_font link" x="352" y="215">table_ref</text></a>
<line marker-end="url(#arrow)" stroke="#000000" stroke-width="2" x1="289" x2="303" y1="209" y2="209"/>
<path d="M429,225 A15,15 0 0,1 429,195 H436 A15,15 0 0,1 436,225 z" fill="#ffffff" fill-opacity="1.0" stroke="#000000" stroke-width="2"/>
<text class="token_font" x="432" y="215">(</text>
<line marker-end="url(#arrow)" stroke="#000000" stroke-width="2" x1="396" x2="410" y1="209" y2="209"/>
<path d="M494,224 H592 L599,210 L592,196 H494 L487,210 z" fill="#ffffff" fill-opacity="1.0" stroke="#000000" stroke-width="2"/>
<text class="literal_font" x="543" y="215">field name</text>
<path d="M540,263 A15,15 0 0,1 540,233 H546 A15,15 0 0,1 546,263 z" fill="#ffffff" fill-opacity="1.0" stroke="#000000" stroke-width="2"/>
<text class="token_font" x="543" y="253">,</text>
<line stroke="#000000" stroke-width="2" x1="487" x2="525" y1="247" y2="247"/>
<line marker-end="url(#arrow)" stroke="#000000" stroke-width="2" x1="599" x2="565" y1="247" y2="247"/>
<line stroke="#000000" stroke-width="2" x1="468" x2="487" y1="209" y2="209"/>
<path d="M487,209 A9,9 0 0,0 478,218" fill="none" stroke="#000000" stroke-width="2"/>
<line marker-end="url(#arrow)" stroke="#000000" stroke-width="2" x1="478" x2="478" y1="238" y2="232"/>
<line stroke="#000000" stroke-width="2" x1="478" x2="478" y1="228" y2="218"/>
<path d="M478,238 A9,9 0 0,0 487,247" fill="none" stroke="#000000" stroke-width="2"/>
<path d="M608,218 A9,9 0 0,0 599,209" fill="none" stroke="#000000" stroke-width="2"/>
<line marker-end="url(#arrow)" stroke="#000000" stroke-width="2" x1="608" x2="608" y1="218" y2="224"/>
<line stroke="#000000" stroke-width="2" x1="608" x2="608" y1="228" y2="238"/>
<path d="M599,247 A9,9 0 0,0 608,238" fill="none" stroke="#000000" stroke-width="2"/>
<line stroke="#000000" stroke-width="2" x1="599" x2="608" y1="209" y2="209"/>
<line marker-end="url(#arrow)" stroke="#000000" stroke-width="2" x1="450" x2="464" y1="209" y2="209"/>
<path d="M640,225 A15,15 0 0,1 640,195 H647 A15,15 0 0,1 647,225 z" fill="#ffffff" fill-opacity="1.0" stroke="#000000" stroke-width="2"/>
<text class="token_font" x="643" y="215">)</text>
<line marker-end="url(#arrow)" stroke="#000000" stroke-width="2" x1="607" x2="621" y1="209" y2="209"/>
<rect fill="#ffffff" fill-opacity="1.0" height="28" stroke="#000000" stroke-width="2" width="82" x="679" y="196"/>
<a xlink:href="1050_celesta_sql.html#fk_rules" target="_parent"><text class="box_font link" x="720" y="215">fk_rules</text></a>
<line marker-end="url(#arrow)" stroke="#000000" stroke-width="2" x1="661" x2="675" y1="209" y2="209"/>
<line stroke="#000000" stroke-width="2" x1="470" x2="508" y1="63" y2="63"/>
<path d="M517,72 A9,9 0 0,0 508,63" fill="none" stroke="#000000" stroke-width="2"/>
<line marker-end="url(#arrow)" stroke="#000000" stroke-width="2" x1="517" x2="517" y1="72" y2="105"/>
<line stroke="#000000" stroke-width="2" x1="517" x2="517" y1="109" y2="147"/>
<path d="M508,156 A9,9 0 0,0 517,147" fill="none" stroke="#000000" stroke-width="2"/>
<line marker-end="url(#arrow)" stroke="#000000" stroke-width="2" x1="508" x2="319" y1="156" y2="156"/>
<line stroke="#000000" stroke-width="2" x1="315" x2="122" y1="156" y2="156"/>
<path d="M122,156 A9,9 0 0,0 113,165" fill="none" stroke="#000000" stroke-width="2"/>
<line marker-end="url(#arrow)" stroke="#000000" stroke-width="2" x1="113" x2="113" y1="165" y2="178"/>
<line stroke="#000000" stroke-width="2" x1="113" x2="113" y1="182" y2="200"/>
<path d="M113,200 A9,9 0 0,0 122,209" fill="none" stroke="#000000" stroke-width="2"/>
<line marker-end="url(#arrow)" stroke="#000000" stroke-width="2" x1="122" x2="156" y1="209" y2="209"/>
<line marker-end="url(#arrow)" stroke="#000000" stroke-width="2" x1="15" x2="29" y1="63" y2="63"/>
<circle cx="781" cy="209" fill="#ffffff" r="3" stroke="#000000" stroke-width="2"/>
<line marker-end="url(#arrow)" stroke="#000000" stroke-width="2" x1="760" x2="774" y1="209" y2="209"/>
<text class="title_font" x="156" y="28">foreign_key_definition</text>
</svg>
