<?xml version="1.0" encoding="UTF-8" standalone="no"?>
<svg xmlns:xlink="http://www.w3.org/1999/xlink" xmlns="http://www.w3.org/2000/svg" height="421" preserveAspectRatio="xMidYMid meet" xml:space="preserve" version="1.1" viewBox="0 0 1080 421" width="1080">
<style type="text/css">
<![CDATA[
.title_font {fill:#000000; text-anchor:middle;
font-family:Roboto; font-size:20pt; font-weight:normal; font-style:normal; }
.literal_font {fill:#000000; text-anchor:middle;
font-family:Roboto; font-size:14pt; font-weight:normal; font-style:normal; }
.token_font {fill:#000000; text-anchor:middle;
font-family:Roboto; font-size:16pt; font-weight:normal; font-style:normal; }
.box_font {fill:#000000; text-anchor:middle;
font-family:Roboto; font-size:14pt; font-weight:normal; font-style:normal; }
.bubble_font {fill:#000000; text-anchor:middle;
font-family:Roboto; font-size:14pt; font-weight:normal; font-style:normal; }
.label {fill: #000; text-anchor:middle; font-size:16pt; font-weight:bold; font-family:Sans;}
.link {fill: #0D47A1;}
.link:hover {fill: #0D47A1; text-decoration:underline;}
.link:visited {fill: #4A148C;}
]]>
</style>
<defs>
<marker id="arrow" markerHeight="4" markerUnits="strokeWidth" markerWidth="5" orient="auto" refX="2.5" refY="2">
<path d="M0,0 L0.5,2 L0,4 L4.5,2 z" fill="#000000"/>
</marker>
</defs>
<rect fill="white" height="100%" width="100%"/>
<circle cx="13" cy="63" fill="#ffffff" r="3" stroke="#000000" stroke-width="2"/>
<rect fill="#ffffff" fill-opacity="1.0" height="28" stroke="#000000" stroke-width="2" width="90" x="33" y="50"/>
<a xlink:href="1050_celesta_sql.html#table_ref" target="_parent"><text class="box_font link" x="78" y="69">table_ref</text></a>
<path d="M192,78 A14,14 0 0,1 192,50 H212 A14,14 0 0,1 212,78 z" fill="#ffffff" fill-opacity="1.0" stroke="#000000" stroke-width="2"/>
<text class="bubble_font" x="202" y="69">AS</text>
<path d="M250,78 H347 L354,64 L347,50 H250 L243,64 z" fill="#ffffff" fill-opacity="1.0" stroke="#000000" stroke-width="2"/>
<text class="literal_font" x="298" y="69">table alias</text>
<line marker-end="url(#arrow)" stroke="#000000" stroke-width="2" x1="225" x2="239" y1="63" y2="63"/>
<line stroke="#000000" stroke-width="2" x1="265" x2="266" y1="101" y2="101"/>
<line stroke="#000000" stroke-width="2" x1="140" x2="178" y1="63" y2="63"/>
<line stroke="#000000" stroke-width="2" x1="354" x2="393" y1="63" y2="63"/>
<path d="M159,82 A19,19 0 0,0 140,63" fill="none" stroke="#000000" stroke-width="2"/>
<line marker-end="url(#arrow)" stroke="#000000" stroke-width="2" x1="178" x2="261" y1="101" y2="101"/>
<line stroke="#000000" stroke-width="2" x1="266" x2="354" y1="101" y2="101"/>
<path d="M159,82 A19,19 0 0,0 178,101" fill="none" stroke="#000000" stroke-width="2"/>
<path d="M354,101 A19,19 0 0,0 373,82" fill="none" stroke="#000000" stroke-width="2"/>
<path d="M392,63 A19,19 0 0,0 373,82" fill="none" stroke="#000000" stroke-width="2"/>
<line stroke="#000000" stroke-width="2" x1="159" x2="159" y1="82" y2="82"/>
<line stroke="#000000" stroke-width="2" x1="373" x2="373" y1="82" y2="82"/>
<line marker-end="url(#arrow)" stroke="#000000" stroke-width="2" x1="122" x2="136" y1="63" y2="63"/>
<path d="M398,207 A14,14 0 0,1 398,179 H446 A14,14 0 0,1 446,207 z" fill="#ffffff" fill-opacity="1.0" stroke="#000000" stroke-width="2"/>
<text class="bubble_font" x="422" y="198">INNER</text>
<path d="M398,245 A14,14 0 0,1 398,217 H435 A14,14 0 0,1 435,245 z" fill="#ffffff" fill-opacity="1.0" stroke="#000000" stroke-width="2"/>
<text class="bubble_font" x="416" y="236">LEFT</text>
<path d="M398,282 A14,14 0 0,1 398,254 H446 A14,14 0 0,1 446,282 z" fill="#ffffff" fill-opacity="1.0" stroke="#000000" stroke-width="2"/>
<text class="bubble_font" x="422" y="273">RIGHT</text>
<line marker-end="url(#arrow)" stroke="#000000" stroke-width="2" x1="336" x2="380" y1="192" y2="192"/>
<line stroke="#000000" stroke-width="2" x1="460" x2="509" y1="192" y2="192"/>
<path d="M355,211 A19,19 0 0,0 336,192" fill="none" stroke="#000000" stroke-width="2"/>
<line marker-end="url(#arrow)" stroke="#000000" stroke-width="2" x1="374" x2="380" y1="230" y2="230"/>
<line stroke="#000000" stroke-width="2" x1="449" x2="470" y1="230" y2="230"/>
<path d="M355,211 A19,19 0 0,0 374,230" fill="none" stroke="#000000" stroke-width="2"/>
<path d="M470,230 A19,19 0 0,0 489,211" fill="none" stroke="#000000" stroke-width="2"/>
<line marker-end="url(#arrow)" stroke="#000000" stroke-width="2" x1="374" x2="380" y1="267" y2="267"/>
<line stroke="#000000" stroke-width="2" x1="460" x2="470" y1="267" y2="267"/>
<path d="M355,248 A19,19 0 0,0 374,267" fill="none" stroke="#000000" stroke-width="2"/>
<path d="M470,267 A19,19 0 0,0 489,248" fill="none" stroke="#000000" stroke-width="2"/>
<path d="M508,192 A19,19 0 0,0 489,211" fill="none" stroke="#000000" stroke-width="2"/>
<line stroke="#000000" stroke-width="2" x1="355" x2="355" y1="248" y2="211"/>
<line stroke="#000000" stroke-width="2" x1="489" x2="489" y1="248" y2="211"/>
<path d="M539,207 A14,14 0 0,1 539,179 H572 A14,14 0 0,1 572,207 z" fill="#ffffff" fill-opacity="1.0" stroke="#000000" stroke-width="2"/>
<text class="bubble_font" x="555" y="198">JOIN</text>
<line marker-end="url(#arrow)" stroke="#000000" stroke-width="2" x1="507" x2="521" y1="192" y2="192"/>
<rect fill="#ffffff" fill-opacity="1.0" height="28" stroke="#000000" stroke-width="2" width="90" x="603" y="179"/>
<a xlink:href="1050_celesta_sql.html#table_ref" target="_parent"><text class="box_font link" x="648" y="198">table_ref</text></a>
<line marker-end="url(#arrow)" stroke="#000000" stroke-width="2" x1="585" x2="599" y1="192" y2="192"/>
<path d="M762,207 A14,14 0 0,1 762,179 H782 A14,14 0 0,1 782,207 z" fill="#ffffff" fill-opacity="1.0" stroke="#000000" stroke-width="2"/>
<text class="bubble_font" x="772" y="198">AS</text>
<path d="M820,207 H917 L924,193 L917,179 H820 L813,193 z" fill="#ffffff" fill-opacity="1.0" stroke="#000000" stroke-width="2"/>
<text class="literal_font" x="868" y="198">table alias</text>
<line marker-end="url(#arrow)" stroke="#000000" stroke-width="2" x1="795" x2="809" y1="192" y2="192"/>
<line stroke="#000000" stroke-width="2" x1="835" x2="836" y1="230" y2="230"/>
<line stroke="#000000" stroke-width="2" x1="710" x2="748" y1="192" y2="192"/>
<line stroke="#000000" stroke-width="2" x1="924" x2="963" y1="192" y2="192"/>
<path d="M729,211 A19,19 0 0,0 710,192" fill="none" stroke="#000000" stroke-width="2"/>
<line marker-end="url(#arrow)" stroke="#000000" stroke-width="2" x1="748" x2="831" y1="230" y2="230"/>
<line stroke="#000000" stroke-width="2" x1="836" x2="924" y1="230" y2="230"/>
<path d="M729,211 A19,19 0 0,0 748,230" fill="none" stroke="#000000" stroke-width="2"/>
<path d="M924,230 A19,19 0 0,0 943,211" fill="none" stroke="#000000" stroke-width="2"/>
<path d="M962,192 A19,19 0 0,0 943,211" fill="none" stroke="#000000" stroke-width="2"/>
<line stroke="#000000" stroke-width="2" x1="729" x2="729" y1="211" y2="211"/>
<line stroke="#000000" stroke-width="2" x1="943" x2="943" y1="211" y2="211"/>
<line marker-end="url(#arrow)" stroke="#000000" stroke-width="2" x1="692" x2="706" y1="192" y2="192"/>
<path d="M596,388 A14,14 0 0,1 596,360 H619 A14,14 0 0,1 619,388 z" fill="#ffffff" fill-opacity="1.0" stroke="#000000" stroke-width="2"/>
<text class="bubble_font" x="607" y="379">ON</text>
<rect fill="#ffffff" fill-opacity="1.0" height="28" stroke="#000000" stroke-width="2" width="93" x="650" y="360"/>
<a xlink:href="1050_celesta_sql.html#condition" target="_parent"><text class="box_font link" x="696" y="379">condition</text></a>
<line marker-end="url(#arrow)" stroke="#000000" stroke-width="2" x1="632" x2="646" y1="373" y2="373"/>
<line stroke="#000000" stroke-width="2" x1="962" x2="1000" y1="192" y2="192"/>
<path d="M1009,201 A9,9 0 0,0 1000,192" fill="none" stroke="#000000" stroke-width="2"/>
<line marker-end="url(#arrow)" stroke="#000000" stroke-width="2" x1="1009" x2="1009" y1="201" y2="252"/>
<line stroke="#000000" stroke-width="2" x1="1009" x2="1009" y1="256" y2="312"/>
<path d="M1000,321 A9,9 0 0,0 1009,312" fill="none" stroke="#000000" stroke-width="2"/>
<line marker-end="url(#arrow)" stroke="#000000" stroke-width="2" x1="1000" x2="776" y1="321" y2="321"/>
<line stroke="#000000" stroke-width="2" x1="772" x2="544" y1="321" y2="321"/>
<path d="M544,321 A9,9 0 0,0 535,330" fill="none" stroke="#000000" stroke-width="2"/>
<line marker-end="url(#arrow)" stroke="#000000" stroke-width="2" x1="535" x2="535" y1="330" y2="343"/>
<line stroke="#000000" stroke-width="2" x1="535" x2="535" y1="347" y2="364"/>
<path d="M535,364 A9,9 0 0,0 544,373" fill="none" stroke="#000000" stroke-width="2"/>
<line marker-end="url(#arrow)" stroke="#000000" stroke-width="2" x1="544" x2="578" y1="373" y2="373"/>
<line stroke="#000000" stroke-width="2" x1="539" x2="540" y1="397" y2="397"/>
<line stroke="#000000" stroke-width="2" x1="336" x2="539" y1="397" y2="397"/>
<line marker-end="url(#arrow)" stroke="#000000" stroke-width="2" x1="743" x2="544" y1="397" y2="397"/>
<line stroke="#000000" stroke-width="2" x1="317" x2="336" y1="192" y2="192"/>
<path d="M336,192 A9,9 0 0,0 327,201" fill="none" stroke="#000000" stroke-width="2"/>
<line marker-end="url(#arrow)" stroke="#000000" stroke-width="2" x1="327" x2="327" y1="388" y2="298"/>
<line stroke="#000000" stroke-width="2" x1="327" x2="327" y1="294" y2="201"/>
<path d="M327,388 A9,9 0 0,0 336,397" fill="none" stroke="#000000" stroke-width="2"/>
<path d="M743,397 A12,12 0 0,0 743,373" fill="none" stroke="#000000" stroke-width="2"/>
<line stroke="#000000" stroke-width="2" x1="743" x2="752" y1="373" y2="373"/>
<line stroke="#000000" stroke-width="2" x1="662" x2="663" y1="406" y2="406"/>
<line stroke="#000000" stroke-width="2" x1="279" x2="317" y1="192" y2="192"/>
<line stroke="#000000" stroke-width="2" x1="752" x2="1048" y1="373" y2="373"/>
<path d="M298,211 A19,19 0 0,0 279,192" fill="none" stroke="#000000" stroke-width="2"/>
<line marker-end="url(#arrow)" stroke="#000000" stroke-width="2" x1="317" x2="658" y1="406" y2="406"/>
<line stroke="#000000" stroke-width="2" x1="663" x2="1009" y1="406" y2="406"/>
<path d="M298,387 A19,19 0 0,0 317,406" fill="none" stroke="#000000" stroke-width="2"/>
<path d="M1009,406 A19,19 0 0,0 1028,387" fill="none" stroke="#000000" stroke-width="2"/>
<path d="M1047,373 A19,19 0 0,0 1028,392" fill="none" stroke="#000000" stroke-width="2"/>
<line stroke="#000000" stroke-width="2" x1="298" x2="298" y1="387" y2="211"/>
<line stroke="#000000" stroke-width="2" x1="1028" x2="1028" y1="387" y2="392"/>
<line stroke="#000000" stroke-width="2" x1="392" x2="430" y1="63" y2="63"/>
<path d="M439,72 A9,9 0 0,0 430,63" fill="none" stroke="#000000" stroke-width="2"/>
<line marker-end="url(#arrow)" stroke="#000000" stroke-width="2" x1="439" x2="439" y1="72" y2="97"/>
<line stroke="#000000" stroke-width="2" x1="439" x2="439" y1="101" y2="131"/>
<path d="M430,140 A9,9 0 0,0 439,131" fill="none" stroke="#000000" stroke-width="2"/>
<line marker-end="url(#arrow)" stroke="#000000" stroke-width="2" x1="430" x2="339" y1="140" y2="140"/>
<line stroke="#000000" stroke-width="2" x1="335" x2="241" y1="140" y2="140"/>
<path d="M241,140 A9,9 0 0,0 232,149" fill="none" stroke="#000000" stroke-width="2"/>
<line marker-end="url(#arrow)" stroke="#000000" stroke-width="2" x1="232" x2="232" y1="149" y2="162"/>
<line stroke="#000000" stroke-width="2" x1="232" x2="232" y1="166" y2="183"/>
<path d="M232,183 A9,9 0 0,0 241,192" fill="none" stroke="#000000" stroke-width="2"/>
<line marker-end="url(#arrow)" stroke="#000000" stroke-width="2" x1="241" x2="275" y1="192" y2="192"/>
<line marker-end="url(#arrow)" stroke="#000000" stroke-width="2" x1="15" x2="29" y1="63" y2="63"/>
<circle cx="1067" cy="373" fill="#ffffff" r="3" stroke="#000000" stroke-width="2"/>
<line marker-end="url(#arrow)" stroke="#000000" stroke-width="2" x1="1046" x2="1060" y1="373" y2="373"/>
<text class="title_font" x="101" y="28">from_clause</text>
</svg>
