<?xml version="1.0" encoding="UTF-8" standalone="no"?>
<svg xmlns:xlink="http://www.w3.org/1999/xlink" xmlns="http://www.w3.org/2000/svg" height="165" preserveAspectRatio="xMidYMid meet" xml:space="preserve" version="1.1" viewBox="0 0 460 165" width="460">
<style type="text/css">
<![CDATA[
.title_font {fill:#000000; text-anchor:middle;
font-family:Roboto; font-size:20pt; font-weight:normal; font-style:normal; }
.literal_font {fill:#000000; text-anchor:middle;
font-family:Roboto; font-size:14pt; font-weight:normal; font-style:normal; }
.token_font {fill:#000000; text-anchor:middle;
font-family:Roboto; font-size:16pt; font-weight:normal; font-style:normal; }
.box_font {fill:#000000; text-anchor:middle;
font-family:Roboto; font-size:14pt; font-weight:normal; font-style:normal; }
.bubble_font {fill:#000000; text-anchor:middle;
font-family:Roboto; font-size:14pt; font-weight:normal; font-style:normal; }
.label {fill: #000; text-anchor:middle; font-size:16pt; font-weight:bold; font-family:Sans;}
.link {fill: #0D47A1;}
.link:hover {fill: #0D47A1; text-decoration:underline;}
.link:visited {fill: #4A148C;}
]]>
</style>
<defs>
<marker id="arrow" markerHeight="4" markerUnits="strokeWidth" markerWidth="5" orient="auto" refX="2.5" refY="2">
<path d="M0,0 L0.5,2 L0,4 L4.5,2 z" fill="#000000"/>
</marker>
</defs>
<rect fill="white" height="100%" width="100%"/>
<circle cx="13" cy="63" fill="#ffffff" r="3" stroke="#000000" stroke-width="2"/>
<path d="M47,78 A14,14 0 0,1 47,50 H102 A14,14 0 0,1 102,78 z" fill="#ffffff" fill-opacity="1.0" stroke="#000000" stroke-width="2"/>
<text class="bubble_font" x="74" y="69">GROUP</text>
<path d="M147,78 A14,14 0 0,1 147,50 H167 A14,14 0 0,1 167,78 z" fill="#ffffff" fill-opacity="1.0" stroke="#000000" stroke-width="2"/>
<text class="bubble_font" x="157" y="69">BY</text>
<line marker-end="url(#arrow)" stroke="#000000" stroke-width="2" x1="115" x2="129" y1="63" y2="63"/>
<path d="M268,78 H366 L373,64 L366,50 H268 L261,64 z" fill="#ffffff" fill-opacity="1.0" stroke="#000000" stroke-width="2"/>
<text class="literal_font" x="317" y="69">field name</text>
<path d="M272,116 H363 L370,102 L363,88 H272 L265,102 z" fill="#ffffff" fill-opacity="1.0" stroke="#000000" stroke-width="2"/>
<text class="literal_font" x="317" y="107">field alias</text>
<line marker-end="url(#arrow)" stroke="#000000" stroke-width="2" x1="217" x2="257" y1="63" y2="63"/>
<line stroke="#000000" stroke-width="2" x1="373" x2="419" y1="63" y2="63"/>
<path d="M236,82 A19,19 0 0,0 217,63" fill="none" stroke="#000000" stroke-width="2"/>
<line marker-end="url(#arrow)" stroke="#000000" stroke-width="2" x1="255" x2="261" y1="101" y2="101"/>
<line stroke="#000000" stroke-width="2" x1="370" x2="380" y1="101" y2="101"/>
<path d="M236,82 A19,19 0 0,0 255,101" fill="none" stroke="#000000" stroke-width="2"/>
<path d="M380,101 A19,19 0 0,0 399,82" fill="none" stroke="#000000" stroke-width="2"/>
<path d="M418,63 A19,19 0 0,0 399,82" fill="none" stroke="#000000" stroke-width="2"/>
<line stroke="#000000" stroke-width="2" x1="236" x2="236" y1="82" y2="82"/>
<line stroke="#000000" stroke-width="2" x1="399" x2="399" y1="82" y2="82"/>
<path d="M314,155 A15,15 0 0,1 314,125 H320 A15,15 0 0,1 320,155 z" fill="#ffffff" fill-opacity="1.0" stroke="#000000" stroke-width="2"/>
<text class="token_font" x="317" y="145">,</text>
<line stroke="#000000" stroke-width="2" x1="217" x2="299" y1="139" y2="139"/>
<line marker-end="url(#arrow)" stroke="#000000" stroke-width="2" x1="418" x2="339" y1="139" y2="139"/>
<line stroke="#000000" stroke-width="2" x1="198" x2="217" y1="63" y2="63"/>
<path d="M217,63 A9,9 0 0,0 208,72" fill="none" stroke="#000000" stroke-width="2"/>
<line marker-end="url(#arrow)" stroke="#000000" stroke-width="2" x1="208" x2="208" y1="130" y2="105"/>
<line stroke="#000000" stroke-width="2" x1="208" x2="208" y1="101" y2="72"/>
<path d="M208,130 A9,9 0 0,0 217,139" fill="none" stroke="#000000" stroke-width="2"/>
<path d="M427,72 A9,9 0 0,0 418,63" fill="none" stroke="#000000" stroke-width="2"/>
<line marker-end="url(#arrow)" stroke="#000000" stroke-width="2" x1="427" x2="427" y1="72" y2="97"/>
<line stroke="#000000" stroke-width="2" x1="427" x2="427" y1="101" y2="130"/>
<path d="M418,139 A9,9 0 0,0 427,130" fill="none" stroke="#000000" stroke-width="2"/>
<line stroke="#000000" stroke-width="2" x1="418" x2="427" y1="63" y2="63"/>
<line marker-end="url(#arrow)" stroke="#000000" stroke-width="2" x1="180" x2="194" y1="63" y2="63"/>
<line marker-end="url(#arrow)" stroke="#000000" stroke-width="2" x1="15" x2="29" y1="63" y2="63"/>
<circle cx="447" cy="63" fill="#ffffff" r="3" stroke="#000000" stroke-width="2"/>
<line marker-end="url(#arrow)" stroke="#000000" stroke-width="2" x1="426" x2="440" y1="63" y2="63"/>
<text class="title_font" x="85" y="28">group_by</text>
</svg>
