<?xml version="1.0" encoding="UTF-8" standalone="no"?>
<svg xmlns:xlink="http://www.w3.org/1999/xlink" xmlns="http://www.w3.org/2000/svg" height="196" preserveAspectRatio="xMidYMid meet" xml:space="preserve" version="1.1" viewBox="0 0 516 196" width="516">
<style type="text/css">
<![CDATA[
.title_font {fill:#000000; text-anchor:middle;
font-family:Roboto; font-size:20pt; font-weight:normal; font-style:normal; }
.literal_font {fill:#000000; text-anchor:middle;
font-family:Roboto; font-size:14pt; font-weight:normal; font-style:normal; }
.token_font {fill:#000000; text-anchor:middle;
font-family:Roboto; font-size:16pt; font-weight:normal; font-style:normal; }
.box_font {fill:#000000; text-anchor:middle;
font-family:Roboto; font-size:14pt; font-weight:normal; font-style:normal; }
.bubble_font {fill:#000000; text-anchor:middle;
font-family:Roboto; font-size:14pt; font-weight:normal; font-style:normal; }
.label {fill: #000; text-anchor:middle; font-size:16pt; font-weight:bold; font-family:Sans;}
.link {fill: #0D47A1;}
.link:hover {fill: #0D47A1; text-decoration:underline;}
.link:visited {fill: #4A148C;}
]]>
</style>
<defs>
<marker id="arrow" markerHeight="4" markerUnits="strokeWidth" markerWidth="5" orient="auto" refX="2.5" refY="2">
<path d="M0,0 L0.5,2 L0,4 L4.5,2 z" fill="#000000"/>
</marker>
</defs>
<rect fill="white" height="100%" width="100%"/>
<circle cx="13" cy="63" fill="#ffffff" r="3" stroke="#000000" stroke-width="2"/>
<path d="M47,78 A14,14 0 0,1 47,50 H117 A14,14 0 0,1 117,78 z" fill="#ffffff" fill-opacity="1.0" stroke="#000000" stroke-width="2"/>
<text class="bubble_font" x="82" y="69">FOREIGN</text>
<path d="M162,78 A14,14 0 0,1 162,50 H191 A14,14 0 0,1 191,78 z" fill="#ffffff" fill-opacity="1.0" stroke="#000000" stroke-width="2"/>
<text class="bubble_font" x="176" y="69">KEY</text>
<line marker-end="url(#arrow)" stroke="#000000" stroke-width="2" x1="130" x2="144" y1="63" y2="63"/>
<path d="M236,78 A14,14 0 0,1 236,50 H338 A14,14 0 0,1 338,78 z" fill="#ffffff" fill-opacity="1.0" stroke="#000000" stroke-width="2"/>
<text class="bubble_font" x="287" y="69">REFERENCES</text>
<line marker-end="url(#arrow)" stroke="#000000" stroke-width="2" x1="204" x2="218" y1="63" y2="63"/>
<rect fill="#ffffff" fill-opacity="1.0" height="28" stroke="#000000" stroke-width="2" width="90" x="369" y="50"/>
<a xlink:href="1050_celesta_sql.html#table_ref" target="_parent"><text class="box_font link" x="414" y="69">table_ref</text></a>
<line marker-end="url(#arrow)" stroke="#000000" stroke-width="2" x1="351" x2="365" y1="63" y2="63"/>
<path d="M125,186 A15,15 0 0,1 125,156 H132 A15,15 0 0,1 132,186 z" fill="#ffffff" fill-opacity="1.0" stroke="#000000" stroke-width="2"/>
<text class="token_font" x="128" y="176">(</text>
<path d="M171,185 H269 L276,171 L269,157 H171 L164,171 z" fill="#ffffff" fill-opacity="1.0" stroke="#000000" stroke-width="2"/>
<text class="literal_font" x="220" y="176">field name</text>
<line marker-end="url(#arrow)" stroke="#000000" stroke-width="2" x1="146" x2="160" y1="170" y2="170"/>
<path d="M308,186 A15,15 0 0,1 308,156 H315 A15,15 0 0,1 315,186 z" fill="#ffffff" fill-opacity="1.0" stroke="#000000" stroke-width="2"/>
<text class="token_font" x="311" y="176">)</text>
<line marker-end="url(#arrow)" stroke="#000000" stroke-width="2" x1="275" x2="289" y1="170" y2="170"/>
<rect fill="#ffffff" fill-opacity="1.0" height="28" stroke="#000000" stroke-width="2" width="82" x="347" y="157"/>
<a xlink:href="1050_celesta_sql.html#fk_rules" target="_parent"><text class="box_font link" x="388" y="176">fk_rules</text></a>
<line marker-end="url(#arrow)" stroke="#000000" stroke-width="2" x1="329" x2="343" y1="170" y2="170"/>
<line stroke="#000000" stroke-width="2" x1="459" x2="497" y1="63" y2="63"/>
<path d="M506,72 A9,9 0 0,0 497,63" fill="none" stroke="#000000" stroke-width="2"/>
<line marker-end="url(#arrow)" stroke="#000000" stroke-width="2" x1="506" x2="506" y1="72" y2="86"/>
<line stroke="#000000" stroke-width="2" x1="506" x2="506" y1="90" y2="108"/>
<path d="M497,117 A9,9 0 0,0 506,108" fill="none" stroke="#000000" stroke-width="2"/>
<line marker-end="url(#arrow)" stroke="#000000" stroke-width="2" x1="497" x2="288" y1="117" y2="117"/>
<line stroke="#000000" stroke-width="2" x1="284" x2="72" y1="117" y2="117"/>
<path d="M72,117 A9,9 0 0,0 63,126" fill="none" stroke="#000000" stroke-width="2"/>
<line marker-end="url(#arrow)" stroke="#000000" stroke-width="2" x1="63" x2="63" y1="126" y2="139"/>
<line stroke="#000000" stroke-width="2" x1="63" x2="63" y1="143" y2="161"/>
<path d="M63,161 A9,9 0 0,0 72,170" fill="none" stroke="#000000" stroke-width="2"/>
<line marker-end="url(#arrow)" stroke="#000000" stroke-width="2" x1="72" x2="106" y1="170" y2="170"/>
<line marker-end="url(#arrow)" stroke="#000000" stroke-width="2" x1="15" x2="29" y1="63" y2="63"/>
<circle cx="449" cy="170" fill="#ffffff" r="3" stroke="#000000" stroke-width="2"/>
<line marker-end="url(#arrow)" stroke="#000000" stroke-width="2" x1="428" x2="442" y1="170" y2="170"/>
<text class="title_font" x="138" y="28">inline_fk_definition</text>
</svg>
