<?xml version="1.0" encoding="UTF-8" standalone="no"?>
<svg xmlns:xlink="http://www.w3.org/1999/xlink" xmlns="http://www.w3.org/2000/svg" height="136" preserveAspectRatio="xMidYMid meet" xml:space="preserve" version="1.1" viewBox="0 0 935 136" width="935">
<style type="text/css">
<![CDATA[
.title_font {fill:#000000; text-anchor:middle;
font-family:Roboto; font-size:20pt; font-weight:normal; font-style:normal; }
.literal_font {fill:#000000; text-anchor:middle;
font-family:Roboto; font-size:14pt; font-weight:normal; font-style:normal; }
.token_font {fill:#000000; text-anchor:middle;
font-family:Roboto; font-size:16pt; font-weight:normal; font-style:normal; }
.box_font {fill:#000000; text-anchor:middle;
font-family:Roboto; font-size:14pt; font-weight:normal; font-style:normal; }
.bubble_font {fill:#000000; text-anchor:middle;
font-family:Roboto; font-size:14pt; font-weight:normal; font-style:normal; }
.label {fill: #000; text-anchor:middle; font-size:16pt; font-weight:bold; font-family:Sans;}
.link {fill: #0D47A1;}
.link:hover {fill: #0D47A1; text-decoration:underline;}
.link:visited {fill: #4A148C;}
]]>
</style>
<defs>
<marker id="arrow" markerHeight="4" markerUnits="strokeWidth" markerWidth="5" orient="auto" refX="2.5" refY="2">
<path d="M0,0 L0.5,2 L0,4 L4.5,2 z" fill="#000000"/>
</marker>
</defs>
<rect fill="white" height="100%" width="100%"/>
<circle cx="13" cy="63" fill="#ffffff" r="3" stroke="#000000" stroke-width="2"/>
<path d="M47,78 A14,14 0 0,1 47,50 H73 A14,14 0 0,1 73,78 z" fill="#ffffff" fill-opacity="1.0" stroke="#000000" stroke-width="2"/>
<text class="bubble_font" x="60" y="69">INT</text>
<rect fill="#ffffff" fill-opacity="1.0" height="28" stroke="#000000" stroke-width="2" width="99" x="104" y="50"/>
<a xlink:href="1050_celesta_sql.html#nullability" target="_parent"><text class="box_font link" x="153" y="69">nullability</text></a>
<line marker-end="url(#arrow)" stroke="#000000" stroke-width="2" x1="86" x2="100" y1="63" y2="63"/>
<path d="M272,78 A14,14 0 0,1 272,50 H342 A14,14 0 0,1 342,78 z" fill="#ffffff" fill-opacity="1.0" stroke="#000000" stroke-width="2"/>
<text class="bubble_font" x="307" y="69">DEFAULT</text>
<path d="M428,78 H551 L558,64 L551,50 H428 L421,64 z" fill="#ffffff" fill-opacity="1.0" stroke="#000000" stroke-width="2"/>
<text class="literal_font" x="489" y="69">integer literal</text>
<path d="M435,116 A14,14 0 0,1 435,88 H506 A14,14 0 0,1 506,116 z" fill="#ffffff" fill-opacity="1.0" stroke="#000000" stroke-width="2"/>
<text class="bubble_font" x="470" y="107">NEXTVAL</text>
<path d="M552,117 A15,15 0 0,1 552,87 H559 A15,15 0 0,1 559,117 z" fill="#ffffff" fill-opacity="1.0" stroke="#000000" stroke-width="2"/>
<text class="token_font" x="555" y="107">(</text>
<line marker-end="url(#arrow)" stroke="#000000" stroke-width="2" x1="519" x2="533" y1="101" y2="101"/>
<path d="M598,116 H736 L743,102 L736,88 H598 L591,102 z" fill="#ffffff" fill-opacity="1.0" stroke="#000000" stroke-width="2"/>
<text class="literal_font" x="667" y="107">sequence name</text>
<line marker-end="url(#arrow)" stroke="#000000" stroke-width="2" x1="573" x2="587" y1="101" y2="101"/>
<path d="M775,117 A15,15 0 0,1 775,87 H782 A15,15 0 0,1 782,117 z" fill="#ffffff" fill-opacity="1.0" stroke="#000000" stroke-width="2"/>
<text class="token_font" x="778" y="107">)</text>
<line marker-end="url(#arrow)" stroke="#000000" stroke-width="2" x1="742" x2="756" y1="101" y2="101"/>
<line marker-end="url(#arrow)" stroke="#000000" stroke-width="2" x1="373" x2="417" y1="63" y2="63"/>
<line stroke="#000000" stroke-width="2" x1="558" x2="846" y1="63" y2="63"/>
<path d="M392,82 A19,19 0 0,0 373,63" fill="none" stroke="#000000" stroke-width="2"/>
<line marker-end="url(#arrow)" stroke="#000000" stroke-width="2" x1="411" x2="417" y1="101" y2="101"/>
<line stroke="#000000" stroke-width="2" x1="797" x2="807" y1="101" y2="101"/>
<path d="M392,82 A19,19 0 0,0 411,101" fill="none" stroke="#000000" stroke-width="2"/>
<path d="M807,101 A19,19 0 0,0 826,82" fill="none" stroke="#000000" stroke-width="2"/>
<path d="M845,63 A19,19 0 0,0 826,82" fill="none" stroke="#000000" stroke-width="2"/>
<line stroke="#000000" stroke-width="2" x1="392" x2="392" y1="82" y2="82"/>
<line stroke="#000000" stroke-width="2" x1="826" x2="826" y1="82" y2="82"/>
<line marker-end="url(#arrow)" stroke="#000000" stroke-width="2" x1="355" x2="369" y1="63" y2="63"/>
<line stroke="#000000" stroke-width="2" x1="560" x2="561" y1="126" y2="126"/>
<line stroke="#000000" stroke-width="2" x1="220" x2="258" y1="63" y2="63"/>
<line stroke="#000000" stroke-width="2" x1="845" x2="903" y1="63" y2="63"/>
<path d="M239,82 A19,19 0 0,0 220,63" fill="none" stroke="#000000" stroke-width="2"/>
<line marker-end="url(#arrow)" stroke="#000000" stroke-width="2" x1="258" x2="556" y1="126" y2="126"/>
<line stroke="#000000" stroke-width="2" x1="561" x2="864" y1="126" y2="126"/>
<path d="M239,107 A19,19 0 0,0 258,126" fill="none" stroke="#000000" stroke-width="2"/>
<path d="M864,126 A19,19 0 0,0 883,107" fill="none" stroke="#000000" stroke-width="2"/>
<path d="M902,63 A19,19 0 0,0 883,82" fill="none" stroke="#000000" stroke-width="2"/>
<line stroke="#000000" stroke-width="2" x1="239" x2="239" y1="107" y2="82"/>
<line stroke="#000000" stroke-width="2" x1="883" x2="883" y1="107" y2="82"/>
<line marker-end="url(#arrow)" stroke="#000000" stroke-width="2" x1="202" x2="216" y1="63" y2="63"/>
<line marker-end="url(#arrow)" stroke="#000000" stroke-width="2" x1="15" x2="29" y1="63" y2="63"/>
<circle cx="922" cy="63" fill="#ffffff" r="3" stroke="#000000" stroke-width="2"/>
<line marker-end="url(#arrow)" stroke="#000000" stroke-width="2" x1="901" x2="915" y1="63" y2="63"/>
<text class="title_font" x="79" y="28">int_field</text>
</svg>
