<?xml version="1.0" encoding="UTF-8" standalone="no"?>
<svg xmlns:xlink="http://www.w3.org/1999/xlink" xmlns="http://www.w3.org/2000/svg" height="120" preserveAspectRatio="xMidYMid meet" xml:space="preserve" version="1.1" viewBox="0 0 383 120" width="383">
<style type="text/css">
<![CDATA[
.title_font {fill:#000000; text-anchor:middle;
font-family:Roboto; font-size:20pt; font-weight:normal; font-style:normal; }
.literal_font {fill:#000000; text-anchor:middle;
font-family:Roboto; font-size:14pt; font-weight:normal; font-style:normal; }
.token_font {fill:#000000; text-anchor:middle;
font-family:Roboto; font-size:16pt; font-weight:normal; font-style:normal; }
.box_font {fill:#000000; text-anchor:middle;
font-family:Roboto; font-size:14pt; font-weight:normal; font-style:normal; }
.bubble_font {fill:#000000; text-anchor:middle;
font-family:Roboto; font-size:14pt; font-weight:normal; font-style:normal; }
.label {fill: #000; text-anchor:middle; font-size:16pt; font-weight:bold; font-family:Sans;}
.link {fill: #0D47A1;}
.link:hover {fill: #0D47A1; text-decoration:underline;}
.link:visited {fill: #4A148C;}
]]>
</style>
<defs>
<marker id="arrow" markerHeight="4" markerUnits="strokeWidth" markerWidth="5" orient="auto" refX="2.5" refY="2">
<path d="M0,0 L0.5,2 L0,4 L4.5,2 z" fill="#000000"/>
</marker>
</defs>
<rect fill="white" height="100%" width="100%"/>
<circle cx="13" cy="63" fill="#ffffff" r="3" stroke="#000000" stroke-width="2"/>
<path d="M123,78 A14,14 0 0,1 123,50 H156 A14,14 0 0,1 156,78 z" fill="#ffffff" fill-opacity="1.0" stroke="#000000" stroke-width="2"/>
<text class="bubble_font" x="139" y="69">NOT</text>
<line stroke="#000000" stroke-width="2" x1="139" x2="140" y1="101" y2="101"/>
<line stroke="#000000" stroke-width="2" x1="71" x2="109" y1="63" y2="63"/>
<line stroke="#000000" stroke-width="2" x1="170" x2="209" y1="63" y2="63"/>
<path d="M90,82 A19,19 0 0,0 71,63" fill="none" stroke="#000000" stroke-width="2"/>
<line marker-end="url(#arrow)" stroke="#000000" stroke-width="2" x1="109" x2="135" y1="101" y2="101"/>
<line stroke="#000000" stroke-width="2" x1="140" x2="170" y1="101" y2="101"/>
<path d="M90,82 A19,19 0 0,0 109,101" fill="none" stroke="#000000" stroke-width="2"/>
<path d="M170,101 A19,19 0 0,0 189,82" fill="none" stroke="#000000" stroke-width="2"/>
<path d="M208,63 A19,19 0 0,0 189,82" fill="none" stroke="#000000" stroke-width="2"/>
<line stroke="#000000" stroke-width="2" x1="90" x2="90" y1="82" y2="82"/>
<line stroke="#000000" stroke-width="2" x1="189" x2="189" y1="82" y2="82"/>
<path d="M239,78 A14,14 0 0,1 239,50 H279 A14,14 0 0,1 279,78 z" fill="#ffffff" fill-opacity="1.0" stroke="#000000" stroke-width="2"/>
<text class="bubble_font" x="259" y="69">NULL</text>
<line marker-end="url(#arrow)" stroke="#000000" stroke-width="2" x1="207" x2="221" y1="63" y2="63"/>
<line stroke="#000000" stroke-width="2" x1="191" x2="192" y1="110" y2="110"/>
<line stroke="#000000" stroke-width="2" x1="33" x2="71" y1="63" y2="63"/>
<line stroke="#000000" stroke-width="2" x1="293" x2="351" y1="63" y2="63"/>
<path d="M52,82 A19,19 0 0,0 33,63" fill="none" stroke="#000000" stroke-width="2"/>
<line marker-end="url(#arrow)" stroke="#000000" stroke-width="2" x1="71" x2="187" y1="110" y2="110"/>
<line stroke="#000000" stroke-width="2" x1="192" x2="312" y1="110" y2="110"/>
<path d="M52,91 A19,19 0 0,0 71,110" fill="none" stroke="#000000" stroke-width="2"/>
<path d="M312,110 A19,19 0 0,0 331,91" fill="none" stroke="#000000" stroke-width="2"/>
<path d="M350,63 A19,19 0 0,0 331,82" fill="none" stroke="#000000" stroke-width="2"/>
<line stroke="#000000" stroke-width="2" x1="52" x2="52" y1="91" y2="82"/>
<line stroke="#000000" stroke-width="2" x1="331" x2="331" y1="91" y2="82"/>
<line marker-end="url(#arrow)" stroke="#000000" stroke-width="2" x1="15" x2="29" y1="63" y2="63"/>
<circle cx="370" cy="63" fill="#ffffff" r="3" stroke="#000000" stroke-width="2"/>
<line marker-end="url(#arrow)" stroke="#000000" stroke-width="2" x1="349" x2="363" y1="63" y2="63"/>
<text class="title_font" x="89" y="28">nullability</text>
</svg>
