<?xml version="1.0" encoding="UTF-8" standalone="no"?>
<svg xmlns:xlink="http://www.w3.org/1999/xlink" xmlns="http://www.w3.org/2000/svg" height="274" preserveAspectRatio="xMidYMid meet" xml:space="preserve" version="1.1" viewBox="0 0 413 274" width="413">
<style type="text/css">
<![CDATA[
.title_font {fill:#000000; text-anchor:middle;
font-family:Roboto; font-size:20pt; font-weight:normal; font-style:normal; }
.literal_font {fill:#000000; text-anchor:middle;
font-family:Roboto; font-size:14pt; font-weight:normal; font-style:normal; }
.token_font {fill:#000000; text-anchor:middle;
font-family:Roboto; font-size:16pt; font-weight:normal; font-style:normal; }
.box_font {fill:#000000; text-anchor:middle;
font-family:Roboto; font-size:14pt; font-weight:normal; font-style:normal; }
.bubble_font {fill:#000000; text-anchor:middle;
font-family:Roboto; font-size:14pt; font-weight:normal; font-style:normal; }
.label {fill: #000; text-anchor:middle; font-size:16pt; font-weight:bold; font-family:Sans;}
.link {fill: #0D47A1;}
.link:hover {fill: #0D47A1; text-decoration:underline;}
.link:visited {fill: #4A148C;}
]]>
</style>
<defs>
<marker id="arrow" markerHeight="4" markerUnits="strokeWidth" markerWidth="5" orient="auto" refX="2.5" refY="2">
<path d="M0,0 L0.5,2 L0,4 L4.5,2 z" fill="#000000"/>
</marker>
</defs>
<rect fill="white" height="100%" width="100%"/>
<circle cx="13" cy="63" fill="#ffffff" r="3" stroke="#000000" stroke-width="2"/>
<path d="M40,78 H153 L160,64 L153,50 H40 L33,64 z" fill="#ffffff" fill-opacity="1.0" stroke="#000000" stroke-width="2"/>
<text class="literal_font" x="96" y="69">param name</text>
<path d="M239,78 A14,14 0 0,1 239,50 H265 A14,14 0 0,1 265,78 z" fill="#ffffff" fill-opacity="1.0" stroke="#000000" stroke-width="2"/>
<text class="bubble_font" x="252" y="69">INT</text>
<path d="M239,116 A14,14 0 0,1 239,88 H278 A14,14 0 0,1 278,116 z" fill="#ffffff" fill-opacity="1.0" stroke="#000000" stroke-width="2"/>
<text class="bubble_font" x="258" y="107">REAL</text>
<path d="M239,153 A14,14 0 0,1 239,125 H308 A14,14 0 0,1 308,153 z" fill="#ffffff" fill-opacity="1.0" stroke="#000000" stroke-width="2"/>
<text class="bubble_font" x="273" y="144">DECIMAL</text>
<path d="M239,190 A14,14 0 0,1 239,162 H314 A14,14 0 0,1 314,190 z" fill="#ffffff" fill-opacity="1.0" stroke="#000000" stroke-width="2"/>
<text class="bubble_font" x="276" y="181">VARCHAR</text>
<path d="M239,227 A14,14 0 0,1 239,199 H318 A14,14 0 0,1 318,227 z" fill="#ffffff" fill-opacity="1.0" stroke="#000000" stroke-width="2"/>
<text class="bubble_font" x="278" y="218">DATETIME</text>
<path d="M239,264 A14,14 0 0,1 239,236 H264 A14,14 0 0,1 264,264 z" fill="#ffffff" fill-opacity="1.0" stroke="#000000" stroke-width="2"/>
<text class="bubble_font" x="251" y="255">BIT</text>
<line marker-end="url(#arrow)" stroke="#000000" stroke-width="2" x1="177" x2="221" y1="63" y2="63"/>
<line stroke="#000000" stroke-width="2" x1="279" x2="381" y1="63" y2="63"/>
<path d="M196,82 A19,19 0 0,0 177,63" fill="none" stroke="#000000" stroke-width="2"/>
<line marker-end="url(#arrow)" stroke="#000000" stroke-width="2" x1="215" x2="221" y1="101" y2="101"/>
<line stroke="#000000" stroke-width="2" x1="292" x2="342" y1="101" y2="101"/>
<path d="M196,82 A19,19 0 0,0 215,101" fill="none" stroke="#000000" stroke-width="2"/>
<path d="M342,101 A19,19 0 0,0 361,82" fill="none" stroke="#000000" stroke-width="2"/>
<line marker-end="url(#arrow)" stroke="#000000" stroke-width="2" x1="215" x2="221" y1="138" y2="138"/>
<line stroke="#000000" stroke-width="2" x1="322" x2="342" y1="138" y2="138"/>
<path d="M196,119 A19,19 0 0,0 215,138" fill="none" stroke="#000000" stroke-width="2"/>
<path d="M342,138 A19,19 0 0,0 361,119" fill="none" stroke="#000000" stroke-width="2"/>
<line marker-end="url(#arrow)" stroke="#000000" stroke-width="2" x1="215" x2="221" y1="175" y2="175"/>
<line stroke="#000000" stroke-width="2" x1="328" x2="342" y1="175" y2="175"/>
<path d="M196,156 A19,19 0 0,0 215,175" fill="none" stroke="#000000" stroke-width="2"/>
<path d="M342,175 A19,19 0 0,0 361,156" fill="none" stroke="#000000" stroke-width="2"/>
<line marker-end="url(#arrow)" stroke="#000000" stroke-width="2" x1="215" x2="221" y1="212" y2="212"/>
<line stroke="#000000" stroke-width="2" x1="332" x2="342" y1="212" y2="212"/>
<path d="M196,193 A19,19 0 0,0 215,212" fill="none" stroke="#000000" stroke-width="2"/>
<path d="M342,212 A19,19 0 0,0 361,193" fill="none" stroke="#000000" stroke-width="2"/>
<line marker-end="url(#arrow)" stroke="#000000" stroke-width="2" x1="215" x2="221" y1="249" y2="249"/>
<line stroke="#000000" stroke-width="2" x1="278" x2="342" y1="249" y2="249"/>
<path d="M196,230 A19,19 0 0,0 215,249" fill="none" stroke="#000000" stroke-width="2"/>
<path d="M342,249 A19,19 0 0,0 361,230" fill="none" stroke="#000000" stroke-width="2"/>
<path d="M380,63 A19,19 0 0,0 361,82" fill="none" stroke="#000000" stroke-width="2"/>
<line stroke="#000000" stroke-width="2" x1="196" x2="196" y1="230" y2="82"/>
<line stroke="#000000" stroke-width="2" x1="361" x2="361" y1="230" y2="82"/>
<line marker-end="url(#arrow)" stroke="#000000" stroke-width="2" x1="159" x2="173" y1="63" y2="63"/>
<line marker-end="url(#arrow)" stroke="#000000" stroke-width="2" x1="15" x2="29" y1="63" y2="63"/>
<circle cx="400" cy="63" fill="#ffffff" r="3" stroke="#000000" stroke-width="2"/>
<line marker-end="url(#arrow)" stroke="#000000" stroke-width="2" x1="379" x2="393" y1="63" y2="63"/>
<text class="title_font" x="127" y="28">param_definition</text>
</svg>
