<?xml version="1.0" encoding="UTF-8" standalone="no"?>
<svg xmlns:xlink="http://www.w3.org/1999/xlink" xmlns="http://www.w3.org/2000/svg" height="472" preserveAspectRatio="xMidYMid meet" xml:space="preserve" version="1.1" viewBox="0 0 566 472" width="566">
<style type="text/css">
<![CDATA[
.title_font {fill:#000000; text-anchor:middle;
font-family:Roboto; font-size:20pt; font-weight:normal; font-style:normal; }
.literal_font {fill:#000000; text-anchor:middle;
font-family:Roboto; font-size:14pt; font-weight:normal; font-style:normal; }
.token_font {fill:#000000; text-anchor:middle;
font-family:Roboto; font-size:16pt; font-weight:normal; font-style:normal; }
.box_font {fill:#000000; text-anchor:middle;
font-family:Roboto; font-size:14pt; font-weight:normal; font-style:normal; }
.bubble_font {fill:#000000; text-anchor:middle;
font-family:Roboto; font-size:14pt; font-weight:normal; font-style:normal; }
.label {fill: #000; text-anchor:middle; font-size:16pt; font-weight:bold; font-family:Sans;}
.link {fill: #0D47A1;}
.link:hover {fill: #0D47A1; text-decoration:underline;}
.link:visited {fill: #4A148C;}
]]>
</style>
<defs>
<marker id="arrow" markerHeight="4" markerUnits="strokeWidth" markerWidth="5" orient="auto" refX="2.5" refY="2">
<path d="M0,0 L0.5,2 L0,4 L4.5,2 z" fill="#000000"/>
</marker>
</defs>
<rect fill="white" height="100%" width="100%"/>
<circle cx="13" cy="63" fill="#ffffff" r="3" stroke="#000000" stroke-width="2"/>
<rect fill="#ffffff" fill-opacity="1.0" height="28" stroke="#000000" stroke-width="2" width="57" x="33" y="50"/>
<a xlink:href="1050_celesta_sql.html#term" target="_parent"><text class="box_font link" x="61" y="69">term</text></a>
<path d="M218,79 A15,15 0 0,1 218,49 H232 A15,15 0 0,1 232,79 z" fill="#ffffff" fill-opacity="1.0" stroke="#000000" stroke-width="2"/>
<text class="token_font" x="225" y="69">=</text>
<path d="M218,118 A15,15 0 0,1 218,88 H232 A15,15 0 0,1 232,118 z" fill="#ffffff" fill-opacity="1.0" stroke="#000000" stroke-width="2"/>
<text class="token_font" x="225" y="108">&gt;</text>
<path d="M218,157 A15,15 0 0,1 218,127 H246 A15,15 0 0,1 246,157 z" fill="#ffffff" fill-opacity="1.0" stroke="#000000" stroke-width="2"/>
<text class="token_font" x="232" y="147">&gt;=</text>
<path d="M218,196 A15,15 0 0,1 218,166 H246 A15,15 0 0,1 246,196 z" fill="#ffffff" fill-opacity="1.0" stroke="#000000" stroke-width="2"/>
<text class="token_font" x="232" y="186">&lt;=</text>
<path d="M218,235 A15,15 0 0,1 218,205 H232 A15,15 0 0,1 232,235 z" fill="#ffffff" fill-opacity="1.0" stroke="#000000" stroke-width="2"/>
<text class="token_font" x="225" y="225">&lt;</text>
<path d="M218,274 A15,15 0 0,1 218,244 H246 A15,15 0 0,1 246,274 z" fill="#ffffff" fill-opacity="1.0" stroke="#000000" stroke-width="2"/>
<text class="token_font" x="232" y="264">&lt;&gt;</text>
<path d="M217,311 A14,14 0 0,1 217,283 H250 A14,14 0 0,1 250,311 z" fill="#ffffff" fill-opacity="1.0" stroke="#000000" stroke-width="2"/>
<text class="bubble_font" x="233" y="302">LIKE</text>
<line marker-end="url(#arrow)" stroke="#000000" stroke-width="2" x1="155" x2="199" y1="63" y2="63"/>
<line stroke="#000000" stroke-width="2" x1="247" x2="313" y1="63" y2="63"/>
<path d="M174,82 A19,19 0 0,0 155,63" fill="none" stroke="#000000" stroke-width="2"/>
<line marker-end="url(#arrow)" stroke="#000000" stroke-width="2" x1="193" x2="199" y1="102" y2="102"/>
<line stroke="#000000" stroke-width="2" x1="247" x2="274" y1="102" y2="102"/>
<path d="M174,83 A19,19 0 0,0 193,102" fill="none" stroke="#000000" stroke-width="2"/>
<path d="M274,102 A19,19 0 0,0 293,83" fill="none" stroke="#000000" stroke-width="2"/>
<line marker-end="url(#arrow)" stroke="#000000" stroke-width="2" x1="193" x2="199" y1="141" y2="141"/>
<line stroke="#000000" stroke-width="2" x1="261" x2="274" y1="141" y2="141"/>
<path d="M174,122 A19,19 0 0,0 193,141" fill="none" stroke="#000000" stroke-width="2"/>
<path d="M274,141 A19,19 0 0,0 293,122" fill="none" stroke="#000000" stroke-width="2"/>
<line marker-end="url(#arrow)" stroke="#000000" stroke-width="2" x1="193" x2="199" y1="180" y2="180"/>
<line stroke="#000000" stroke-width="2" x1="261" x2="274" y1="180" y2="180"/>
<path d="M174,161 A19,19 0 0,0 193,180" fill="none" stroke="#000000" stroke-width="2"/>
<path d="M274,180 A19,19 0 0,0 293,161" fill="none" stroke="#000000" stroke-width="2"/>
<line marker-end="url(#arrow)" stroke="#000000" stroke-width="2" x1="193" x2="199" y1="219" y2="219"/>
<line stroke="#000000" stroke-width="2" x1="247" x2="274" y1="219" y2="219"/>
<path d="M174,200 A19,19 0 0,0 193,219" fill="none" stroke="#000000" stroke-width="2"/>
<path d="M274,219 A19,19 0 0,0 293,200" fill="none" stroke="#000000" stroke-width="2"/>
<line marker-end="url(#arrow)" stroke="#000000" stroke-width="2" x1="193" x2="199" y1="258" y2="258"/>
<line stroke="#000000" stroke-width="2" x1="261" x2="274" y1="258" y2="258"/>
<path d="M174,239 A19,19 0 0,0 193,258" fill="none" stroke="#000000" stroke-width="2"/>
<path d="M274,258 A19,19 0 0,0 293,239" fill="none" stroke="#000000" stroke-width="2"/>
<line marker-end="url(#arrow)" stroke="#000000" stroke-width="2" x1="193" x2="199" y1="296" y2="296"/>
<line stroke="#000000" stroke-width="2" x1="264" x2="274" y1="296" y2="296"/>
<path d="M174,277 A19,19 0 0,0 193,296" fill="none" stroke="#000000" stroke-width="2"/>
<path d="M274,296 A19,19 0 0,0 293,277" fill="none" stroke="#000000" stroke-width="2"/>
<path d="M312,63 A19,19 0 0,0 293,82" fill="none" stroke="#000000" stroke-width="2"/>
<line stroke="#000000" stroke-width="2" x1="174" x2="174" y1="277" y2="82"/>
<line stroke="#000000" stroke-width="2" x1="293" x2="293" y1="277" y2="82"/>
<rect fill="#ffffff" fill-opacity="1.0" height="28" stroke="#000000" stroke-width="2" width="57" x="329" y="50"/>
<a xlink:href="1050_celesta_sql.html#term" target="_parent"><text class="box_font link" x="357" y="69">term</text></a>
<line marker-end="url(#arrow)" stroke="#000000" stroke-width="2" x1="311" x2="325" y1="63" y2="63"/>
<path d="M169,348 A14,14 0 0,1 169,320 H245 A14,14 0 0,1 245,348 z" fill="#ffffff" fill-opacity="1.0" stroke="#000000" stroke-width="2"/>
<text class="bubble_font" x="207" y="339">BETWEEN</text>
<rect fill="#ffffff" fill-opacity="1.0" height="28" stroke="#000000" stroke-width="2" width="57" x="276" y="320"/>
<a xlink:href="1050_celesta_sql.html#term" target="_parent"><text class="box_font link" x="304" y="339">term</text></a>
<line marker-end="url(#arrow)" stroke="#000000" stroke-width="2" x1="258" x2="272" y1="333" y2="333"/>
<path d="M364,348 A14,14 0 0,1 364,320 H397 A14,14 0 0,1 397,348 z" fill="#ffffff" fill-opacity="1.0" stroke="#000000" stroke-width="2"/>
<text class="bubble_font" x="380" y="339">AND</text>
<line marker-end="url(#arrow)" stroke="#000000" stroke-width="2" x1="332" x2="346" y1="333" y2="333"/>
<rect fill="#ffffff" fill-opacity="1.0" height="28" stroke="#000000" stroke-width="2" width="57" x="428" y="320"/>
<a xlink:href="1050_celesta_sql.html#term" target="_parent"><text class="box_font link" x="456" y="339">term</text></a>
<line marker-end="url(#arrow)" stroke="#000000" stroke-width="2" x1="410" x2="424" y1="333" y2="333"/>
<path d="M169,386 A14,14 0 0,1 169,358 H185 A14,14 0 0,1 185,386 z" fill="#ffffff" fill-opacity="1.0" stroke="#000000" stroke-width="2"/>
<text class="bubble_font" x="177" y="377">IN</text>
<path d="M231,387 A15,15 0 0,1 231,357 H238 A15,15 0 0,1 238,387 z" fill="#ffffff" fill-opacity="1.0" stroke="#000000" stroke-width="2"/>
<text class="token_font" x="234" y="377">(</text>
<line marker-end="url(#arrow)" stroke="#000000" stroke-width="2" x1="198" x2="212" y1="371" y2="371"/>
<rect fill="#ffffff" fill-opacity="1.0" height="28" stroke="#000000" stroke-width="2" width="57" x="289" y="358"/>
<a xlink:href="1050_celesta_sql.html#term" target="_parent"><text class="box_font link" x="317" y="377">term</text></a>
<path d="M314,425 A15,15 0 0,1 314,395 H320 A15,15 0 0,1 320,425 z" fill="#ffffff" fill-opacity="1.0" stroke="#000000" stroke-width="2"/>
<text class="token_font" x="317" y="415">,</text>
<line stroke="#000000" stroke-width="2" x1="289" x2="299" y1="409" y2="409"/>
<line stroke="#000000" stroke-width="2" x1="335" x2="346" y1="409" y2="409"/>
<line stroke="#000000" stroke-width="2" x1="270" x2="289" y1="371" y2="371"/>
<path d="M289,371 A9,9 0 0,0 280,380" fill="none" stroke="#000000" stroke-width="2"/>
<line marker-end="url(#arrow)" stroke="#000000" stroke-width="2" x1="280" x2="280" y1="400" y2="394"/>
<line stroke="#000000" stroke-width="2" x1="280" x2="280" y1="390" y2="380"/>
<path d="M280,400 A9,9 0 0,0 289,409" fill="none" stroke="#000000" stroke-width="2"/>
<path d="M355,380 A9,9 0 0,0 346,371" fill="none" stroke="#000000" stroke-width="2"/>
<line marker-end="url(#arrow)" stroke="#000000" stroke-width="2" x1="355" x2="355" y1="380" y2="386"/>
<line stroke="#000000" stroke-width="2" x1="355" x2="355" y1="390" y2="400"/>
<path d="M346,409 A9,9 0 0,0 355,400" fill="none" stroke="#000000" stroke-width="2"/>
<line stroke="#000000" stroke-width="2" x1="346" x2="355" y1="371" y2="371"/>
<line marker-end="url(#arrow)" stroke="#000000" stroke-width="2" x1="252" x2="266" y1="371" y2="371"/>
<path d="M387,387 A15,15 0 0,1 387,357 H394 A15,15 0 0,1 394,387 z" fill="#ffffff" fill-opacity="1.0" stroke="#000000" stroke-width="2"/>
<text class="token_font" x="390" y="377">)</text>
<line marker-end="url(#arrow)" stroke="#000000" stroke-width="2" x1="354" x2="368" y1="371" y2="371"/>
<path d="M169,462 A14,14 0 0,1 169,434 H184 A14,14 0 0,1 184,462 z" fill="#ffffff" fill-opacity="1.0" stroke="#000000" stroke-width="2"/>
<text class="bubble_font" x="176" y="453">IS</text>
<path d="M229,462 A14,14 0 0,1 229,434 H269 A14,14 0 0,1 269,462 z" fill="#ffffff" fill-opacity="1.0" stroke="#000000" stroke-width="2"/>
<text class="bubble_font" x="249" y="453">NULL</text>
<line marker-end="url(#arrow)" stroke="#000000" stroke-width="2" x1="197" x2="211" y1="447" y2="447"/>
<line marker-end="url(#arrow)" stroke="#000000" stroke-width="2" x1="107" x2="151" y1="63" y2="63"/>
<line stroke="#000000" stroke-width="2" x1="386" x2="534" y1="63" y2="63"/>
<path d="M126,82 A19,19 0 0,0 107,63" fill="none" stroke="#000000" stroke-width="2"/>
<line marker-end="url(#arrow)" stroke="#000000" stroke-width="2" x1="145" x2="151" y1="333" y2="333"/>
<line stroke="#000000" stroke-width="2" x1="485" x2="495" y1="333" y2="333"/>
<path d="M126,314 A19,19 0 0,0 145,333" fill="none" stroke="#000000" stroke-width="2"/>
<path d="M495,333 A19,19 0 0,0 514,314" fill="none" stroke="#000000" stroke-width="2"/>
<line marker-end="url(#arrow)" stroke="#000000" stroke-width="2" x1="145" x2="151" y1="371" y2="371"/>
<line stroke="#000000" stroke-width="2" x1="409" x2="495" y1="371" y2="371"/>
<path d="M126,352 A19,19 0 0,0 145,371" fill="none" stroke="#000000" stroke-width="2"/>
<path d="M495,371 A19,19 0 0,0 514,352" fill="none" stroke="#000000" stroke-width="2"/>
<line marker-end="url(#arrow)" stroke="#000000" stroke-width="2" x1="145" x2="151" y1="447" y2="447"/>
<line stroke="#000000" stroke-width="2" x1="283" x2="495" y1="447" y2="447"/>
<path d="M126,428 A19,19 0 0,0 145,447" fill="none" stroke="#000000" stroke-width="2"/>
<path d="M495,447 A19,19 0 0,0 514,428" fill="none" stroke="#000000" stroke-width="2"/>
<path d="M533,63 A19,19 0 0,0 514,82" fill="none" stroke="#000000" stroke-width="2"/>
<line stroke="#000000" stroke-width="2" x1="126" x2="126" y1="428" y2="82"/>
<line stroke="#000000" stroke-width="2" x1="514" x2="514" y1="428" y2="82"/>
<line marker-end="url(#arrow)" stroke="#000000" stroke-width="2" x1="89" x2="103" y1="63" y2="63"/>
<line marker-end="url(#arrow)" stroke="#000000" stroke-width="2" x1="15" x2="29" y1="63" y2="63"/>
<circle cx="553" cy="63" fill="#ffffff" r="3" stroke="#000000" stroke-width="2"/>
<line marker-end="url(#arrow)" stroke="#000000" stroke-width="2" x1="532" x2="546" y1="63" y2="63"/>
<text class="title_font" x="86" y="28">predicate</text>
</svg>
