<?xml version="1.0" encoding="UTF-8" standalone="no"?>
<svg xmlns:xlink="http://www.w3.org/1999/xlink" xmlns="http://www.w3.org/2000/svg" height="396" preserveAspectRatio="xMidYMid meet" xml:space="preserve" version="1.1" viewBox="0 0 645 396" width="645">
<style type="text/css">
<![CDATA[
.title_font {fill:#000000; text-anchor:middle;
font-family:Roboto; font-size:20pt; font-weight:normal; font-style:normal; }
.literal_font {fill:#000000; text-anchor:middle;
font-family:Roboto; font-size:14pt; font-weight:normal; font-style:normal; }
.token_font {fill:#000000; text-anchor:middle;
font-family:Roboto; font-size:16pt; font-weight:normal; font-style:normal; }
.box_font {fill:#000000; text-anchor:middle;
font-family:Roboto; font-size:14pt; font-weight:normal; font-style:normal; }
.bubble_font {fill:#000000; text-anchor:middle;
font-family:Roboto; font-size:14pt; font-weight:normal; font-style:normal; }
.label {fill: #000; text-anchor:middle; font-size:16pt; font-weight:bold; font-family:Sans;}
.link {fill: #0D47A1;}
.link:hover {fill: #0D47A1; text-decoration:underline;}
.link:visited {fill: #4A148C;}
]]>
</style>
<defs>
<marker id="arrow" markerHeight="4" markerUnits="strokeWidth" markerWidth="5" orient="auto" refX="2.5" refY="2">
<path d="M0,0 L0.5,2 L0,4 L4.5,2 z" fill="#000000"/>
</marker>
</defs>
<rect fill="white" height="100%" width="100%"/>
<circle cx="13" cy="63" fill="#ffffff" r="3" stroke="#000000" stroke-width="2"/>
<path d="M161,78 H264 L271,64 L264,50 H161 L154,64 z" fill="#ffffff" fill-opacity="1.0" stroke="#000000" stroke-width="2"/>
<text class="literal_font" x="212" y="69">table name</text>
<path d="M164,116 H261 L268,102 L261,88 H164 L157,102 z" fill="#ffffff" fill-opacity="1.0" stroke="#000000" stroke-width="2"/>
<text class="literal_font" x="212" y="107">table alias</text>
<line marker-end="url(#arrow)" stroke="#000000" stroke-width="2" x1="109" x2="150" y1="63" y2="63"/>
<line stroke="#000000" stroke-width="2" x1="271" x2="317" y1="63" y2="63"/>
<path d="M128,82 A19,19 0 0,0 109,63" fill="none" stroke="#000000" stroke-width="2"/>
<line marker-end="url(#arrow)" stroke="#000000" stroke-width="2" x1="147" x2="153" y1="101" y2="101"/>
<line stroke="#000000" stroke-width="2" x1="268" x2="278" y1="101" y2="101"/>
<path d="M128,82 A19,19 0 0,0 147,101" fill="none" stroke="#000000" stroke-width="2"/>
<path d="M278,101 A19,19 0 0,0 297,82" fill="none" stroke="#000000" stroke-width="2"/>
<path d="M316,63 A19,19 0 0,0 297,82" fill="none" stroke="#000000" stroke-width="2"/>
<line stroke="#000000" stroke-width="2" x1="128" x2="128" y1="82" y2="82"/>
<line stroke="#000000" stroke-width="2" x1="297" x2="297" y1="82" y2="82"/>
<path d="M348,79 A15,15 0 0,1 348,49 H354 A15,15 0 0,1 354,79 z" fill="#ffffff" fill-opacity="1.0" stroke="#000000" stroke-width="2"/>
<text class="token_font" x="351" y="69">.</text>
<line marker-end="url(#arrow)" stroke="#000000" stroke-width="2" x1="315" x2="329" y1="63" y2="63"/>
<line stroke="#000000" stroke-width="2" x1="248" x2="249" y1="125" y2="125"/>
<line stroke="#000000" stroke-width="2" x1="71" x2="109" y1="63" y2="63"/>
<line stroke="#000000" stroke-width="2" x1="369" x2="427" y1="63" y2="63"/>
<path d="M90,82 A19,19 0 0,0 71,63" fill="none" stroke="#000000" stroke-width="2"/>
<line marker-end="url(#arrow)" stroke="#000000" stroke-width="2" x1="109" x2="244" y1="125" y2="125"/>
<line stroke="#000000" stroke-width="2" x1="249" x2="388" y1="125" y2="125"/>
<path d="M90,106 A19,19 0 0,0 109,125" fill="none" stroke="#000000" stroke-width="2"/>
<path d="M388,125 A19,19 0 0,0 407,106" fill="none" stroke="#000000" stroke-width="2"/>
<path d="M426,63 A19,19 0 0,0 407,82" fill="none" stroke="#000000" stroke-width="2"/>
<line stroke="#000000" stroke-width="2" x1="90" x2="90" y1="106" y2="82"/>
<line stroke="#000000" stroke-width="2" x1="407" x2="407" y1="106" y2="82"/>
<path d="M450,78 H548 L555,64 L548,50 H450 L443,64 z" fill="#ffffff" fill-opacity="1.0" stroke="#000000" stroke-width="2"/>
<text class="literal_font" x="499" y="69">field name</text>
<line marker-end="url(#arrow)" stroke="#000000" stroke-width="2" x1="425" x2="439" y1="63" y2="63"/>
<path d="M88,162 H200 L207,148 L200,134 H88 L81,148 z" fill="#ffffff" fill-opacity="1.0" stroke="#000000" stroke-width="2"/>
<text class="literal_font" x="144" y="153">string literal</text>
<path d="M88,199 H211 L218,185 L211,171 H88 L81,185 z" fill="#ffffff" fill-opacity="1.0" stroke="#000000" stroke-width="2"/>
<text class="literal_font" x="149" y="190">integer literal</text>
<path d="M88,236 H243 L250,222 L243,208 H88 L81,222 z" fill="#ffffff" fill-opacity="1.0" stroke="#000000" stroke-width="2"/>
<text class="literal_font" x="165" y="227">float.-point literal</text>
<path d="M95,273 A14,14 0 0,1 95,245 H136 A14,14 0 0,1 136,273 z" fill="#ffffff" fill-opacity="1.0" stroke="#000000" stroke-width="2"/>
<text class="bubble_font" x="115" y="264">TRUE</text>
<path d="M95,310 A14,14 0 0,1 95,282 H143 A14,14 0 0,1 143,310 z" fill="#ffffff" fill-opacity="1.0" stroke="#000000" stroke-width="2"/>
<text class="bubble_font" x="119" y="301">FALSE</text>
<path d="M96,349 A15,15 0 0,1 96,319 H192 A15,15 0 0,1 192,349 z" fill="#ffffff" fill-opacity="1.0" stroke="#000000" stroke-width="2"/>
<text class="token_font" x="144" y="339">GETDATE()</text>
<path d="M88,386 H182 L189,372 L182,358 H88 L81,372 z" fill="#ffffff" fill-opacity="1.0" stroke="#000000" stroke-width="2"/>
<text class="literal_font" x="135" y="377">$param id</text>
<line stroke="#000000" stroke-width="2" x1="33" x2="71" y1="63" y2="63"/>
<line stroke="#000000" stroke-width="2" x1="555" x2="613" y1="63" y2="63"/>
<path d="M52,82 A19,19 0 0,0 33,63" fill="none" stroke="#000000" stroke-width="2"/>
<line marker-end="url(#arrow)" stroke="#000000" stroke-width="2" x1="71" x2="77" y1="147" y2="147"/>
<line stroke="#000000" stroke-width="2" x1="207" x2="574" y1="147" y2="147"/>
<path d="M52,128 A19,19 0 0,0 71,147" fill="none" stroke="#000000" stroke-width="2"/>
<path d="M574,147 A19,19 0 0,0 593,128" fill="none" stroke="#000000" stroke-width="2"/>
<line marker-end="url(#arrow)" stroke="#000000" stroke-width="2" x1="71" x2="77" y1="184" y2="184"/>
<line stroke="#000000" stroke-width="2" x1="218" x2="574" y1="184" y2="184"/>
<path d="M52,165 A19,19 0 0,0 71,184" fill="none" stroke="#000000" stroke-width="2"/>
<path d="M574,184 A19,19 0 0,0 593,165" fill="none" stroke="#000000" stroke-width="2"/>
<line marker-end="url(#arrow)" stroke="#000000" stroke-width="2" x1="71" x2="77" y1="221" y2="221"/>
<line stroke="#000000" stroke-width="2" x1="250" x2="574" y1="221" y2="221"/>
<path d="M52,202 A19,19 0 0,0 71,221" fill="none" stroke="#000000" stroke-width="2"/>
<path d="M574,221 A19,19 0 0,0 593,202" fill="none" stroke="#000000" stroke-width="2"/>
<line marker-end="url(#arrow)" stroke="#000000" stroke-width="2" x1="71" x2="77" y1="258" y2="258"/>
<line stroke="#000000" stroke-width="2" x1="150" x2="574" y1="258" y2="258"/>
<path d="M52,239 A19,19 0 0,0 71,258" fill="none" stroke="#000000" stroke-width="2"/>
<path d="M574,258 A19,19 0 0,0 593,239" fill="none" stroke="#000000" stroke-width="2"/>
<line marker-end="url(#arrow)" stroke="#000000" stroke-width="2" x1="71" x2="77" y1="295" y2="295"/>
<line stroke="#000000" stroke-width="2" x1="157" x2="574" y1="295" y2="295"/>
<path d="M52,276 A19,19 0 0,0 71,295" fill="none" stroke="#000000" stroke-width="2"/>
<path d="M574,295 A19,19 0 0,0 593,276" fill="none" stroke="#000000" stroke-width="2"/>
<line marker-end="url(#arrow)" stroke="#000000" stroke-width="2" x1="71" x2="77" y1="333" y2="333"/>
<line stroke="#000000" stroke-width="2" x1="207" x2="574" y1="333" y2="333"/>
<path d="M52,314 A19,19 0 0,0 71,333" fill="none" stroke="#000000" stroke-width="2"/>
<path d="M574,333 A19,19 0 0,0 593,314" fill="none" stroke="#000000" stroke-width="2"/>
<line marker-end="url(#arrow)" stroke="#000000" stroke-width="2" x1="71" x2="77" y1="371" y2="371"/>
<line stroke="#000000" stroke-width="2" x1="189" x2="574" y1="371" y2="371"/>
<path d="M52,352 A19,19 0 0,0 71,371" fill="none" stroke="#000000" stroke-width="2"/>
<path d="M574,371 A19,19 0 0,0 593,352" fill="none" stroke="#000000" stroke-width="2"/>
<path d="M612,63 A19,19 0 0,0 593,82" fill="none" stroke="#000000" stroke-width="2"/>
<line stroke="#000000" stroke-width="2" x1="52" x2="52" y1="352" y2="82"/>
<line stroke="#000000" stroke-width="2" x1="593" x2="593" y1="352" y2="82"/>
<line marker-end="url(#arrow)" stroke="#000000" stroke-width="2" x1="15" x2="29" y1="63" y2="63"/>
<circle cx="632" cy="63" fill="#ffffff" r="3" stroke="#000000" stroke-width="2"/>
<line marker-end="url(#arrow)" stroke="#000000" stroke-width="2" x1="611" x2="625" y1="63" y2="63"/>
<text class="title_font" x="109" y="28">primary_term</text>
</svg>
