<?xml version="1.0" encoding="UTF-8" standalone="no"?>
<svg xmlns:xlink="http://www.w3.org/1999/xlink" xmlns="http://www.w3.org/2000/svg" height="127" preserveAspectRatio="xMidYMid meet" xml:space="preserve" version="1.1" viewBox="0 0 502 127" width="502">
<style type="text/css">
<![CDATA[
.title_font {fill:#000000; text-anchor:middle;
font-family:Roboto; font-size:20pt; font-weight:normal; font-style:normal; }
.literal_font {fill:#000000; text-anchor:middle;
font-family:Roboto; font-size:14pt; font-weight:normal; font-style:normal; }
.token_font {fill:#000000; text-anchor:middle;
font-family:Roboto; font-size:16pt; font-weight:normal; font-style:normal; }
.box_font {fill:#000000; text-anchor:middle;
font-family:Roboto; font-size:14pt; font-weight:normal; font-style:normal; }
.bubble_font {fill:#000000; text-anchor:middle;
font-family:Roboto; font-size:14pt; font-weight:normal; font-style:normal; }
.label {fill: #000; text-anchor:middle; font-size:16pt; font-weight:bold; font-family:Sans;}
.link {fill: #0D47A1;}
.link:hover {fill: #0D47A1; text-decoration:underline;}
.link:visited {fill: #4A148C;}
]]>
</style>
<defs>
<marker id="arrow" markerHeight="4" markerUnits="strokeWidth" markerWidth="5" orient="auto" refX="2.5" refY="2">
<path d="M0,0 L0.5,2 L0,4 L4.5,2 z" fill="#000000"/>
</marker>
</defs>
<rect fill="white" height="100%" width="100%"/>
<circle cx="13" cy="63" fill="#ffffff" r="3" stroke="#000000" stroke-width="2"/>
<path d="M47,78 A14,14 0 0,1 47,50 H116 A14,14 0 0,1 116,78 z" fill="#ffffff" fill-opacity="1.0" stroke="#000000" stroke-width="2"/>
<text class="bubble_font" x="81" y="69">PRIMARY</text>
<path d="M161,78 A14,14 0 0,1 161,50 H190 A14,14 0 0,1 190,78 z" fill="#ffffff" fill-opacity="1.0" stroke="#000000" stroke-width="2"/>
<text class="bubble_font" x="175" y="69">KEY</text>
<line marker-end="url(#arrow)" stroke="#000000" stroke-width="2" x1="129" x2="143" y1="63" y2="63"/>
<path d="M236,79 A15,15 0 0,1 236,49 H243 A15,15 0 0,1 243,79 z" fill="#ffffff" fill-opacity="1.0" stroke="#000000" stroke-width="2"/>
<text class="token_font" x="239" y="69">(</text>
<line marker-end="url(#arrow)" stroke="#000000" stroke-width="2" x1="203" x2="217" y1="63" y2="63"/>
<path d="M301,78 H399 L406,64 L399,50 H301 L294,64 z" fill="#ffffff" fill-opacity="1.0" stroke="#000000" stroke-width="2"/>
<text class="literal_font" x="350" y="69">field name</text>
<path d="M347,117 A15,15 0 0,1 347,87 H353 A15,15 0 0,1 353,117 z" fill="#ffffff" fill-opacity="1.0" stroke="#000000" stroke-width="2"/>
<text class="token_font" x="350" y="107">,</text>
<line stroke="#000000" stroke-width="2" x1="294" x2="332" y1="101" y2="101"/>
<line marker-end="url(#arrow)" stroke="#000000" stroke-width="2" x1="406" x2="372" y1="101" y2="101"/>
<line stroke="#000000" stroke-width="2" x1="275" x2="294" y1="63" y2="63"/>
<path d="M294,63 A9,9 0 0,0 285,72" fill="none" stroke="#000000" stroke-width="2"/>
<line marker-end="url(#arrow)" stroke="#000000" stroke-width="2" x1="285" x2="285" y1="92" y2="86"/>
<line stroke="#000000" stroke-width="2" x1="285" x2="285" y1="82" y2="72"/>
<path d="M285,92 A9,9 0 0,0 294,101" fill="none" stroke="#000000" stroke-width="2"/>
<path d="M415,72 A9,9 0 0,0 406,63" fill="none" stroke="#000000" stroke-width="2"/>
<line marker-end="url(#arrow)" stroke="#000000" stroke-width="2" x1="415" x2="415" y1="72" y2="78"/>
<line stroke="#000000" stroke-width="2" x1="415" x2="415" y1="82" y2="92"/>
<path d="M406,101 A9,9 0 0,0 415,92" fill="none" stroke="#000000" stroke-width="2"/>
<line stroke="#000000" stroke-width="2" x1="406" x2="415" y1="63" y2="63"/>
<line marker-end="url(#arrow)" stroke="#000000" stroke-width="2" x1="257" x2="271" y1="63" y2="63"/>
<path d="M447,79 A15,15 0 0,1 447,49 H454 A15,15 0 0,1 454,79 z" fill="#ffffff" fill-opacity="1.0" stroke="#000000" stroke-width="2"/>
<text class="token_font" x="450" y="69">)</text>
<line marker-end="url(#arrow)" stroke="#000000" stroke-width="2" x1="414" x2="428" y1="63" y2="63"/>
<line marker-end="url(#arrow)" stroke="#000000" stroke-width="2" x1="15" x2="29" y1="63" y2="63"/>
<circle cx="489" cy="63" fill="#ffffff" r="3" stroke="#000000" stroke-width="2"/>
<line marker-end="url(#arrow)" stroke="#000000" stroke-width="2" x1="468" x2="482" y1="63" y2="63"/>
<text class="title_font" x="160" y="28">primary_key_definition</text>
</svg>
