<?xml version="1.0" encoding="UTF-8" standalone="no"?>
<svg xmlns:xlink="http://www.w3.org/1999/xlink" xmlns="http://www.w3.org/2000/svg" height="127" preserveAspectRatio="xMidYMid meet" xml:space="preserve" version="1.1" viewBox="0 0 219 127" width="219">
<style type="text/css">
<![CDATA[
.title_font {fill:#000000; text-anchor:middle;
font-family:Roboto; font-size:20pt; font-weight:normal; font-style:normal; }
.literal_font {fill:#000000; text-anchor:middle;
font-family:Roboto; font-size:14pt; font-weight:normal; font-style:normal; }
.token_font {fill:#000000; text-anchor:middle;
font-family:Roboto; font-size:16pt; font-weight:normal; font-style:normal; }
.box_font {fill:#000000; text-anchor:middle;
font-family:Roboto; font-size:14pt; font-weight:normal; font-style:normal; }
.bubble_font {fill:#000000; text-anchor:middle;
font-family:Roboto; font-size:14pt; font-weight:normal; font-style:normal; }
.label {fill: #000; text-anchor:middle; font-size:16pt; font-weight:bold; font-family:Sans;}
.link {fill: #0D47A1;}
.link:hover {fill: #0D47A1; text-decoration:underline;}
.link:visited {fill: #4A148C;}
]]>
</style>
<defs>
<marker id="arrow" markerHeight="4" markerUnits="strokeWidth" markerWidth="5" orient="auto" refX="2.5" refY="2">
<path d="M0,0 L0.5,2 L0,4 L4.5,2 z" fill="#000000"/>
</marker>
</defs>
<rect fill="white" height="100%" width="100%"/>
<circle cx="13" cy="63" fill="#ffffff" r="3" stroke="#000000" stroke-width="2"/>
<rect fill="#ffffff" fill-opacity="1.0" height="28" stroke="#000000" stroke-width="2" width="67" x="81" y="50"/>
<a xlink:href="1050_celesta_sql.html#select_qry" target="_parent"><text class="box_font link" x="114" y="69">select</text></a>
<path d="M67,117 A15,15 0 0,1 67,87 H162 A15,15 0 0,1 162,117 z" fill="#ffffff" fill-opacity="1.0" stroke="#000000" stroke-width="2"/>
<text class="token_font" x="114" y="107">UNION ALL</text>
<line marker-end="url(#arrow)" stroke="#000000" stroke-width="2" x1="52" x2="77" y1="63" y2="63"/>
<line stroke="#000000" stroke-width="2" x1="148" x2="177" y1="63" y2="63"/>
<line stroke="#000000" stroke-width="2" x1="33" x2="52" y1="63" y2="63"/>
<path d="M52,63 A9,9 0 0,0 43,72" fill="none" stroke="#000000" stroke-width="2"/>
<line marker-end="url(#arrow)" stroke="#000000" stroke-width="2" x1="43" x2="43" y1="92" y2="86"/>
<line stroke="#000000" stroke-width="2" x1="43" x2="43" y1="82" y2="72"/>
<path d="M43,92 A9,9 0 0,0 52,101" fill="none" stroke="#000000" stroke-width="2"/>
<path d="M186,72 A9,9 0 0,0 177,63" fill="none" stroke="#000000" stroke-width="2"/>
<line marker-end="url(#arrow)" stroke="#000000" stroke-width="2" x1="186" x2="186" y1="72" y2="78"/>
<line stroke="#000000" stroke-width="2" x1="186" x2="186" y1="82" y2="92"/>
<path d="M177,101 A9,9 0 0,0 186,92" fill="none" stroke="#000000" stroke-width="2"/>
<line stroke="#000000" stroke-width="2" x1="177" x2="186" y1="63" y2="63"/>
<line marker-end="url(#arrow)" stroke="#000000" stroke-width="2" x1="15" x2="29" y1="63" y2="63"/>
<circle cx="206" cy="63" fill="#ffffff" r="3" stroke="#000000" stroke-width="2"/>
<line marker-end="url(#arrow)" stroke="#000000" stroke-width="2" x1="185" x2="199" y1="63" y2="63"/>
<text class="title_font" x="66" y="28">query</text>
</svg>
