<?xml version="1.0" encoding="UTF-8" standalone="no"?>
<svg xmlns:xlink="http://www.w3.org/1999/xlink" xmlns="http://www.w3.org/2000/svg" height="310" preserveAspectRatio="xMidYMid meet" xml:space="preserve" version="1.1" viewBox="0 0 548 310" width="548">
<style type="text/css">
<![CDATA[
.title_font {fill:#000000; text-anchor:middle;
font-family:Roboto; font-size:20pt; font-weight:normal; font-style:normal; }
.literal_font {fill:#000000; text-anchor:middle;
font-family:Roboto; font-size:14pt; font-weight:normal; font-style:normal; }
.token_font {fill:#000000; text-anchor:middle;
font-family:Roboto; font-size:16pt; font-weight:normal; font-style:normal; }
.box_font {fill:#000000; text-anchor:middle;
font-family:Roboto; font-size:14pt; font-weight:normal; font-style:normal; }
.bubble_font {fill:#000000; text-anchor:middle;
font-family:Roboto; font-size:14pt; font-weight:normal; font-style:normal; }
.label {fill: #000; text-anchor:middle; font-size:16pt; font-weight:bold; font-family:Sans;}
.link {fill: #0D47A1;}
.link:hover {fill: #0D47A1; text-decoration:underline;}
.link:visited {fill: #4A148C;}
]]>
</style>
<defs>
<marker id="arrow" markerHeight="4" markerUnits="strokeWidth" markerWidth="5" orient="auto" refX="2.5" refY="2">
<path d="M0,0 L0.5,2 L0,4 L4.5,2 z" fill="#000000"/>
</marker>
</defs>
<rect fill="white" height="100%" width="100%"/>
<circle cx="13" cy="24" fill="#ffffff" r="3" stroke="#000000" stroke-width="2"/>
<rect fill="#ffffff" fill-opacity="1.0" height="28" stroke="#000000" stroke-width="2" width="119" x="33" y="11"/>
<a xlink:href="1050_celesta_sql.html#create_grain" target="_parent"><text class="box_font link" x="92" y="30">create_grain</text></a>
<path d="M363,40 A15,15 0 0,1 363,10 H369 A15,15 0 0,1 369,40 z" fill="#ffffff" fill-opacity="1.0" stroke="#000000" stroke-width="2"/>
<text class="token_font" x="366" y="30">;</text>
<rect fill="#ffffff" fill-opacity="1.0" height="28" stroke="#000000" stroke-width="2" width="154" x="236" y="49"/>
<a xlink:href="1050_celesta_sql.html#create_sequence" target="_parent"><text class="box_font link" x="313" y="68">create_sequence</text></a>
<rect fill="#ffffff" fill-opacity="1.0" height="28" stroke="#000000" stroke-width="2" width="119" x="236" y="87"/>
<a xlink:href="1050_celesta_sql.html#create_table" target="_parent"><text class="box_font link" x="295" y="106">create_table</text></a>
<rect fill="#ffffff" fill-opacity="1.0" height="28" stroke="#000000" stroke-width="2" width="149" x="236" y="124"/>
<a xlink:href="1050_celesta_sql.html#add_foreign_key" target="_parent"><text class="box_font link" x="310" y="143">add_foreign_key</text></a>
<rect fill="#ffffff" fill-opacity="1.0" height="28" stroke="#000000" stroke-width="2" width="122" x="236" y="161"/>
<a xlink:href="1050_celesta_sql.html#create_index" target="_parent"><text class="box_font link" x="297" y="180">create_index</text></a>
<rect fill="#ffffff" fill-opacity="1.0" height="28" stroke="#000000" stroke-width="2" width="114" x="236" y="198"/>
<a xlink:href="1050_celesta_sql.html#create_view" target="_parent"><text class="box_font link" x="293" y="217">create_view</text></a>
<rect fill="#ffffff" fill-opacity="1.0" height="28" stroke="#000000" stroke-width="2" width="222" x="236" y="235"/>
<a xlink:href="1050_celesta_sql.html#create_materialized_view" target="_parent"><text class="box_font link" x="347" y="254">create_materialized_view</text></a>
<rect fill="#ffffff" fill-opacity="1.0" height="28" stroke="#000000" stroke-width="2" width="143" x="236" y="272"/>
<a xlink:href="1050_celesta_sql.html#create_function" target="_parent"><text class="box_font link" x="307" y="291">create_function</text></a>
<line stroke="#000000" stroke-width="2" x1="188" x2="236" y1="62" y2="62"/>
<line marker-end="url(#arrow)" stroke="#000000" stroke-width="2" x1="507" x2="394" y1="62" y2="62"/>
<path d="M207,81 A19,19 0 0,0 188,62" fill="none" stroke="#000000" stroke-width="2"/>
<line stroke="#000000" stroke-width="2" x1="226" x2="236" y1="100" y2="100"/>
<line marker-end="url(#arrow)" stroke="#000000" stroke-width="2" x1="468" x2="359" y1="100" y2="100"/>
<path d="M207,81 A19,19 0 0,0 226,100" fill="none" stroke="#000000" stroke-width="2"/>
<path d="M468,100 A19,19 0 0,0 487,81" fill="none" stroke="#000000" stroke-width="2"/>
<line stroke="#000000" stroke-width="2" x1="226" x2="236" y1="137" y2="137"/>
<line marker-end="url(#arrow)" stroke="#000000" stroke-width="2" x1="468" x2="389" y1="137" y2="137"/>
<path d="M207,118 A19,19 0 0,0 226,137" fill="none" stroke="#000000" stroke-width="2"/>
<path d="M468,137 A19,19 0 0,0 487,118" fill="none" stroke="#000000" stroke-width="2"/>
<line stroke="#000000" stroke-width="2" x1="226" x2="236" y1="174" y2="174"/>
<line marker-end="url(#arrow)" stroke="#000000" stroke-width="2" x1="468" x2="362" y1="174" y2="174"/>
<path d="M207,155 A19,19 0 0,0 226,174" fill="none" stroke="#000000" stroke-width="2"/>
<path d="M468,174 A19,19 0 0,0 487,155" fill="none" stroke="#000000" stroke-width="2"/>
<line stroke="#000000" stroke-width="2" x1="226" x2="236" y1="211" y2="211"/>
<line marker-end="url(#arrow)" stroke="#000000" stroke-width="2" x1="468" x2="354" y1="211" y2="211"/>
<path d="M207,192 A19,19 0 0,0 226,211" fill="none" stroke="#000000" stroke-width="2"/>
<path d="M468,211 A19,19 0 0,0 487,192" fill="none" stroke="#000000" stroke-width="2"/>
<line stroke="#000000" stroke-width="2" x1="226" x2="236" y1="248" y2="248"/>
<line marker-end="url(#arrow)" stroke="#000000" stroke-width="2" x1="468" x2="462" y1="248" y2="248"/>
<path d="M207,229 A19,19 0 0,0 226,248" fill="none" stroke="#000000" stroke-width="2"/>
<path d="M468,248 A19,19 0 0,0 487,229" fill="none" stroke="#000000" stroke-width="2"/>
<line stroke="#000000" stroke-width="2" x1="226" x2="236" y1="285" y2="285"/>
<line marker-end="url(#arrow)" stroke="#000000" stroke-width="2" x1="468" x2="383" y1="285" y2="285"/>
<path d="M207,266 A19,19 0 0,0 226,285" fill="none" stroke="#000000" stroke-width="2"/>
<path d="M468,285 A19,19 0 0,0 487,266" fill="none" stroke="#000000" stroke-width="2"/>
<path d="M506,62 A19,19 0 0,0 487,81" fill="none" stroke="#000000" stroke-width="2"/>
<line stroke="#000000" stroke-width="2" x1="207" x2="207" y1="266" y2="81"/>
<line stroke="#000000" stroke-width="2" x1="487" x2="487" y1="266" y2="81"/>
<line marker-end="url(#arrow)" stroke="#000000" stroke-width="2" x1="188" x2="344" y1="24" y2="24"/>
<line stroke="#000000" stroke-width="2" x1="384" x2="525" y1="24" y2="24"/>
<line stroke="#000000" stroke-width="2" x1="169" x2="188" y1="24" y2="24"/>
<path d="M188,24 A9,9 0 0,0 179,33" fill="none" stroke="#000000" stroke-width="2"/>
<line marker-end="url(#arrow)" stroke="#000000" stroke-width="2" x1="179" x2="179" y1="53" y2="47"/>
<line stroke="#000000" stroke-width="2" x1="179" x2="179" y1="43" y2="33"/>
<path d="M179,53 A9,9 0 0,0 188,62" fill="none" stroke="#000000" stroke-width="2"/>
<path d="M515,33 A9,9 0 0,0 506,24" fill="none" stroke="#000000" stroke-width="2"/>
<line marker-end="url(#arrow)" stroke="#000000" stroke-width="2" x1="515" x2="515" y1="33" y2="39"/>
<line stroke="#000000" stroke-width="2" x1="515" x2="515" y1="43" y2="53"/>
<path d="M506,62 A9,9 0 0,0 515,53" fill="none" stroke="#000000" stroke-width="2"/>
<line stroke="#000000" stroke-width="2" x1="506" x2="515" y1="24" y2="24"/>
<line marker-end="url(#arrow)" stroke="#000000" stroke-width="2" x1="151" x2="165" y1="24" y2="24"/>
<line marker-end="url(#arrow)" stroke="#000000" stroke-width="2" x1="15" x2="29" y1="24" y2="24"/>
<circle cx="535" cy="24" fill="#ffffff" r="3" stroke="#000000" stroke-width="2"/>
<line marker-end="url(#arrow)" stroke="#000000" stroke-width="2" x1="514" x2="528" y1="24" y2="24"/>
</svg>
