<?xml version="1.0" encoding="UTF-8" standalone="no"?>
<svg xmlns:xlink="http://www.w3.org/1999/xlink" xmlns="http://www.w3.org/2000/svg" height="331" preserveAspectRatio="xMidYMid meet" xml:space="preserve" version="1.1" viewBox="0 0 870 331" width="870">
<style type="text/css">
<![CDATA[
.title_font {fill:#000000; text-anchor:middle;
font-family:Roboto; font-size:20pt; font-weight:normal; font-style:normal; }
.literal_font {fill:#000000; text-anchor:middle;
font-family:Roboto; font-size:14pt; font-weight:normal; font-style:normal; }
.token_font {fill:#000000; text-anchor:middle;
font-family:Roboto; font-size:16pt; font-weight:normal; font-style:normal; }
.box_font {fill:#000000; text-anchor:middle;
font-family:Roboto; font-size:14pt; font-weight:normal; font-style:normal; }
.bubble_font {fill:#000000; text-anchor:middle;
font-family:Roboto; font-size:14pt; font-weight:normal; font-style:normal; }
.label {fill: #000; text-anchor:middle; font-size:16pt; font-weight:bold; font-family:Sans;}
.link {fill: #0D47A1;}
.link:hover {fill: #0D47A1; text-decoration:underline;}
.link:visited {fill: #4A148C;}
]]>
</style>
<defs>
<marker id="arrow" markerHeight="4" markerUnits="strokeWidth" markerWidth="5" orient="auto" refX="2.5" refY="2">
<path d="M0,0 L0.5,2 L0,4 L4.5,2 z" fill="#000000"/>
</marker>
</defs>
<rect fill="white" height="100%" width="100%"/>
<circle cx="13" cy="63" fill="#ffffff" r="3" stroke="#000000" stroke-width="2"/>
<path d="M47,78 A14,14 0 0,1 47,50 H105 A14,14 0 0,1 105,78 z" fill="#ffffff" fill-opacity="1.0" stroke="#000000" stroke-width="2"/>
<text class="bubble_font" x="76" y="69">SELECT</text>
<line stroke="#000000" stroke-width="2" x1="234" x2="235" y1="63" y2="63"/>
<path d="M198,116 A14,14 0 0,1 198,88 H271 A14,14 0 0,1 271,116 z" fill="#ffffff" fill-opacity="1.0" stroke="#000000" stroke-width="2"/>
<text class="bubble_font" x="234" y="107">DISTINCT</text>
<line marker-end="url(#arrow)" stroke="#000000" stroke-width="2" x1="136" x2="230" y1="63" y2="63"/>
<line stroke="#000000" stroke-width="2" x1="235" x2="334" y1="63" y2="63"/>
<path d="M155,82 A19,19 0 0,0 136,63" fill="none" stroke="#000000" stroke-width="2"/>
<line marker-end="url(#arrow)" stroke="#000000" stroke-width="2" x1="174" x2="180" y1="101" y2="101"/>
<line stroke="#000000" stroke-width="2" x1="285" x2="295" y1="101" y2="101"/>
<path d="M155,82 A19,19 0 0,0 174,101" fill="none" stroke="#000000" stroke-width="2"/>
<path d="M295,101 A19,19 0 0,0 314,82" fill="none" stroke="#000000" stroke-width="2"/>
<path d="M333,63 A19,19 0 0,0 314,82" fill="none" stroke="#000000" stroke-width="2"/>
<line stroke="#000000" stroke-width="2" x1="155" x2="155" y1="82" y2="82"/>
<line stroke="#000000" stroke-width="2" x1="314" x2="314" y1="82" y2="82"/>
<line marker-end="url(#arrow)" stroke="#000000" stroke-width="2" x1="118" x2="132" y1="63" y2="63"/>
<rect fill="#ffffff" fill-opacity="1.0" height="28" stroke="#000000" stroke-width="2" width="57" x="407" y="50"/>
<a xlink:href="1050_celesta_sql.html#term" target="_parent"><text class="box_font link" x="435" y="69">term</text></a>
<line stroke="#000000" stroke-width="2" x1="613" x2="614" y1="63" y2="63"/>
<path d="M543,116 A14,14 0 0,1 543,88 H563 A14,14 0 0,1 563,116 z" fill="#ffffff" fill-opacity="1.0" stroke="#000000" stroke-width="2"/>
<text class="bubble_font" x="553" y="107">AS</text>
<path d="M601,116 H692 L699,102 L692,88 H601 L594,102 z" fill="#ffffff" fill-opacity="1.0" stroke="#000000" stroke-width="2"/>
<text class="literal_font" x="646" y="107">field alias</text>
<line marker-end="url(#arrow)" stroke="#000000" stroke-width="2" x1="576" x2="590" y1="101" y2="101"/>
<line marker-end="url(#arrow)" stroke="#000000" stroke-width="2" x1="481" x2="609" y1="63" y2="63"/>
<line stroke="#000000" stroke-width="2" x1="614" x2="748" y1="63" y2="63"/>
<path d="M500,82 A19,19 0 0,0 481,63" fill="none" stroke="#000000" stroke-width="2"/>
<line marker-end="url(#arrow)" stroke="#000000" stroke-width="2" x1="519" x2="525" y1="101" y2="101"/>
<line stroke="#000000" stroke-width="2" x1="699" x2="709" y1="101" y2="101"/>
<path d="M500,82 A19,19 0 0,0 519,101" fill="none" stroke="#000000" stroke-width="2"/>
<path d="M709,101 A19,19 0 0,0 728,82" fill="none" stroke="#000000" stroke-width="2"/>
<path d="M747,63 A19,19 0 0,0 728,82" fill="none" stroke="#000000" stroke-width="2"/>
<line stroke="#000000" stroke-width="2" x1="500" x2="500" y1="82" y2="82"/>
<line stroke="#000000" stroke-width="2" x1="728" x2="728" y1="82" y2="82"/>
<line marker-end="url(#arrow)" stroke="#000000" stroke-width="2" x1="463" x2="477" y1="63" y2="63"/>
<rect fill="#ffffff" fill-opacity="1.0" height="28" stroke="#000000" stroke-width="2" width="101" x="417" y="125"/>
<a xlink:href="1050_celesta_sql.html#aggregate" target="_parent"><text class="box_font link" x="467" y="144">aggregate</text></a>
<line stroke="#000000" stroke-width="2" x1="369" x2="407" y1="63" y2="63"/>
<line stroke="#000000" stroke-width="2" x1="747" x2="805" y1="63" y2="63"/>
<path d="M388,82 A19,19 0 0,0 369,63" fill="none" stroke="#000000" stroke-width="2"/>
<line marker-end="url(#arrow)" stroke="#000000" stroke-width="2" x1="407" x2="413" y1="138" y2="138"/>
<line stroke="#000000" stroke-width="2" x1="518" x2="766" y1="138" y2="138"/>
<path d="M388,119 A19,19 0 0,0 407,138" fill="none" stroke="#000000" stroke-width="2"/>
<path d="M766,138 A19,19 0 0,0 785,119" fill="none" stroke="#000000" stroke-width="2"/>
<path d="M804,63 A19,19 0 0,0 785,82" fill="none" stroke="#000000" stroke-width="2"/>
<line stroke="#000000" stroke-width="2" x1="388" x2="388" y1="119" y2="82"/>
<line stroke="#000000" stroke-width="2" x1="785" x2="785" y1="119" y2="82"/>
<path d="M583,192 A15,15 0 0,1 583,162 H589 A15,15 0 0,1 589,192 z" fill="#ffffff" fill-opacity="1.0" stroke="#000000" stroke-width="2"/>
<text class="token_font" x="586" y="182">,</text>
<line stroke="#000000" stroke-width="2" x1="369" x2="568" y1="176" y2="176"/>
<line marker-end="url(#arrow)" stroke="#000000" stroke-width="2" x1="804" x2="608" y1="176" y2="176"/>
<line stroke="#000000" stroke-width="2" x1="350" x2="369" y1="63" y2="63"/>
<path d="M369,63 A9,9 0 0,0 360,72" fill="none" stroke="#000000" stroke-width="2"/>
<line marker-end="url(#arrow)" stroke="#000000" stroke-width="2" x1="360" x2="360" y1="167" y2="123"/>
<line stroke="#000000" stroke-width="2" x1="360" x2="360" y1="119" y2="72"/>
<path d="M360,167 A9,9 0 0,0 369,176" fill="none" stroke="#000000" stroke-width="2"/>
<path d="M813,72 A9,9 0 0,0 804,63" fill="none" stroke="#000000" stroke-width="2"/>
<line marker-end="url(#arrow)" stroke="#000000" stroke-width="2" x1="813" x2="813" y1="72" y2="115"/>
<line stroke="#000000" stroke-width="2" x1="813" x2="813" y1="119" y2="167"/>
<path d="M804,176 A9,9 0 0,0 813,167" fill="none" stroke="#000000" stroke-width="2"/>
<line stroke="#000000" stroke-width="2" x1="804" x2="813" y1="63" y2="63"/>
<line marker-end="url(#arrow)" stroke="#000000" stroke-width="2" x1="332" x2="346" y1="63" y2="63"/>
<path d="M124,298 A14,14 0 0,1 124,270 H168 A14,14 0 0,1 168,298 z" fill="#ffffff" fill-opacity="1.0" stroke="#000000" stroke-width="2"/>
<text class="bubble_font" x="146" y="289">FROM</text>
<rect fill="#ffffff" fill-opacity="1.0" height="28" stroke="#000000" stroke-width="2" width="115" x="199" y="270"/>
<a xlink:href="1050_celesta_sql.html#from_clause" target="_parent"><text class="box_font link" x="256" y="289">from_clause</text></a>
<line marker-end="url(#arrow)" stroke="#000000" stroke-width="2" x1="181" x2="195" y1="283" y2="283"/>
<path d="M383,298 A14,14 0 0,1 383,270 H439 A14,14 0 0,1 439,298 z" fill="#ffffff" fill-opacity="1.0" stroke="#000000" stroke-width="2"/>
<text class="bubble_font" x="411" y="289">WHERE</text>
<rect fill="#ffffff" fill-opacity="1.0" height="28" stroke="#000000" stroke-width="2" width="93" x="470" y="270"/>
<a xlink:href="1050_celesta_sql.html#condition" target="_parent"><text class="box_font link" x="516" y="289">condition</text></a>
<line marker-end="url(#arrow)" stroke="#000000" stroke-width="2" x1="452" x2="466" y1="283" y2="283"/>
<line stroke="#000000" stroke-width="2" x1="465" x2="466" y1="321" y2="321"/>
<line stroke="#000000" stroke-width="2" x1="331" x2="369" y1="283" y2="283"/>
<line stroke="#000000" stroke-width="2" x1="563" x2="602" y1="283" y2="283"/>
<path d="M350,302 A19,19 0 0,0 331,283" fill="none" stroke="#000000" stroke-width="2"/>
<line marker-end="url(#arrow)" stroke="#000000" stroke-width="2" x1="369" x2="461" y1="321" y2="321"/>
<line stroke="#000000" stroke-width="2" x1="466" x2="563" y1="321" y2="321"/>
<path d="M350,302 A19,19 0 0,0 369,321" fill="none" stroke="#000000" stroke-width="2"/>
<path d="M563,321 A19,19 0 0,0 582,302" fill="none" stroke="#000000" stroke-width="2"/>
<path d="M601,283 A19,19 0 0,0 582,302" fill="none" stroke="#000000" stroke-width="2"/>
<line stroke="#000000" stroke-width="2" x1="350" x2="350" y1="302" y2="302"/>
<line stroke="#000000" stroke-width="2" x1="582" x2="582" y1="302" y2="302"/>
<line marker-end="url(#arrow)" stroke="#000000" stroke-width="2" x1="313" x2="327" y1="283" y2="283"/>
<rect fill="#ffffff" fill-opacity="1.0" height="28" stroke="#000000" stroke-width="2" width="93" x="656" y="270"/>
<a xlink:href="1050_celesta_sql.html#group_by" target="_parent"><text class="box_font link" x="702" y="289">group_by</text></a>
<line stroke="#000000" stroke-width="2" x1="702" x2="703" y1="321" y2="321"/>
<line stroke="#000000" stroke-width="2" x1="618" x2="656" y1="283" y2="283"/>
<line stroke="#000000" stroke-width="2" x1="749" x2="788" y1="283" y2="283"/>
<path d="M637,302 A19,19 0 0,0 618,283" fill="none" stroke="#000000" stroke-width="2"/>
<line marker-end="url(#arrow)" stroke="#000000" stroke-width="2" x1="656" x2="698" y1="321" y2="321"/>
<line stroke="#000000" stroke-width="2" x1="703" x2="749" y1="321" y2="321"/>
<path d="M637,302 A19,19 0 0,0 656,321" fill="none" stroke="#000000" stroke-width="2"/>
<path d="M749,321 A19,19 0 0,0 768,302" fill="none" stroke="#000000" stroke-width="2"/>
<path d="M787,283 A19,19 0 0,0 768,302" fill="none" stroke="#000000" stroke-width="2"/>
<line stroke="#000000" stroke-width="2" x1="637" x2="637" y1="302" y2="302"/>
<line stroke="#000000" stroke-width="2" x1="768" x2="768" y1="302" y2="302"/>
<line marker-end="url(#arrow)" stroke="#000000" stroke-width="2" x1="600" x2="614" y1="283" y2="283"/>
<line stroke="#000000" stroke-width="2" x1="813" x2="851" y1="63" y2="63"/>
<path d="M860,72 A9,9 0 0,0 851,63" fill="none" stroke="#000000" stroke-width="2"/>
<line marker-end="url(#arrow)" stroke="#000000" stroke-width="2" x1="860" x2="860" y1="72" y2="143"/>
<line stroke="#000000" stroke-width="2" x1="860" x2="860" y1="147" y2="222"/>
<path d="M851,231 A9,9 0 0,0 860,222" fill="none" stroke="#000000" stroke-width="2"/>
<line marker-end="url(#arrow)" stroke="#000000" stroke-width="2" x1="851" x2="465" y1="231" y2="231"/>
<line stroke="#000000" stroke-width="2" x1="461" x2="72" y1="231" y2="231"/>
<path d="M72,231 A9,9 0 0,0 63,240" fill="none" stroke="#000000" stroke-width="2"/>
<line marker-end="url(#arrow)" stroke="#000000" stroke-width="2" x1="63" x2="63" y1="240" y2="253"/>
<line stroke="#000000" stroke-width="2" x1="63" x2="63" y1="257" y2="274"/>
<path d="M63,274 A9,9 0 0,0 72,283" fill="none" stroke="#000000" stroke-width="2"/>
<line marker-end="url(#arrow)" stroke="#000000" stroke-width="2" x1="72" x2="106" y1="283" y2="283"/>
<line marker-end="url(#arrow)" stroke="#000000" stroke-width="2" x1="15" x2="29" y1="63" y2="63"/>
<circle cx="807" cy="283" fill="#ffffff" r="3" stroke="#000000" stroke-width="2"/>
<line marker-end="url(#arrow)" stroke="#000000" stroke-width="2" x1="786" x2="800" y1="283" y2="283"/>
<text class="title_font" x="67" y="28">select</text>
</svg>
