<?xml version="1.0" encoding="UTF-8" standalone="no"?>
<svg xmlns:xlink="http://www.w3.org/1999/xlink" xmlns="http://www.w3.org/2000/svg" height="280" preserveAspectRatio="xMidYMid meet" xml:space="preserve" version="1.1" viewBox="0 0 630 280" width="630">
<style type="text/css">
<![CDATA[
.title_font {fill:#000000; text-anchor:middle;
font-family:Roboto; font-size:20pt; font-weight:normal; font-style:normal; }
.literal_font {fill:#000000; text-anchor:middle;
font-family:Roboto; font-size:14pt; font-weight:normal; font-style:normal; }
.token_font {fill:#000000; text-anchor:middle;
font-family:Roboto; font-size:16pt; font-weight:normal; font-style:normal; }
.box_font {fill:#000000; text-anchor:middle;
font-family:Roboto; font-size:14pt; font-weight:normal; font-style:normal; }
.bubble_font {fill:#000000; text-anchor:middle;
font-family:Roboto; font-size:14pt; font-weight:normal; font-style:normal; }
.label {fill: #000; text-anchor:middle; font-size:16pt; font-weight:bold; font-family:Sans;}
.link {fill: #0D47A1;}
.link:hover {fill: #0D47A1; text-decoration:underline;}
.link:visited {fill: #4A148C;}
]]>
</style>
<defs>
<marker id="arrow" markerHeight="4" markerUnits="strokeWidth" markerWidth="5" orient="auto" refX="2.5" refY="2">
<path d="M0,0 L0.5,2 L0,4 L4.5,2 z" fill="#000000"/>
</marker>
</defs>
<rect fill="white" height="100%" width="100%"/>
<circle cx="13" cy="63" fill="#ffffff" r="3" stroke="#000000" stroke-width="2"/>
<path d="M47,78 A14,14 0 0,1 47,50 H88 A14,14 0 0,1 88,78 z" fill="#ffffff" fill-opacity="1.0" stroke="#000000" stroke-width="2"/>
<text class="bubble_font" x="67" y="69">WITH</text>
<path d="M181,78 A14,14 0 0,1 181,50 H223 A14,14 0 0,1 223,78 z" fill="#ffffff" fill-opacity="1.0" stroke="#000000" stroke-width="2"/>
<text class="bubble_font" x="202" y="69">READ</text>
<path d="M268,78 A14,14 0 0,1 268,50 H309 A14,14 0 0,1 309,78 z" fill="#ffffff" fill-opacity="1.0" stroke="#000000" stroke-width="2"/>
<text class="bubble_font" x="288" y="69">ONLY</text>
<line marker-end="url(#arrow)" stroke="#000000" stroke-width="2" x1="236" x2="250" y1="63" y2="63"/>
<path d="M219,116 A14,14 0 0,1 219,88 H242 A14,14 0 0,1 242,116 z" fill="#ffffff" fill-opacity="1.0" stroke="#000000" stroke-width="2"/>
<text class="bubble_font" x="230" y="107">NO</text>
<line stroke="#000000" stroke-width="2" x1="230" x2="231" y1="139" y2="139"/>
<line stroke="#000000" stroke-width="2" x1="167" x2="205" y1="101" y2="101"/>
<line stroke="#000000" stroke-width="2" x1="256" x2="295" y1="101" y2="101"/>
<path d="M186,120 A19,19 0 0,0 167,101" fill="none" stroke="#000000" stroke-width="2"/>
<line marker-end="url(#arrow)" stroke="#000000" stroke-width="2" x1="205" x2="226" y1="139" y2="139"/>
<line stroke="#000000" stroke-width="2" x1="231" x2="256" y1="139" y2="139"/>
<path d="M186,120 A19,19 0 0,0 205,139" fill="none" stroke="#000000" stroke-width="2"/>
<path d="M256,139 A19,19 0 0,0 275,120" fill="none" stroke="#000000" stroke-width="2"/>
<path d="M294,101 A19,19 0 0,0 275,120" fill="none" stroke="#000000" stroke-width="2"/>
<line stroke="#000000" stroke-width="2" x1="186" x2="186" y1="120" y2="120"/>
<line stroke="#000000" stroke-width="2" x1="275" x2="275" y1="120" y2="120"/>
<path d="M325,116 A14,14 0 0,1 325,88 H394 A14,14 0 0,1 394,116 z" fill="#ffffff" fill-opacity="1.0" stroke="#000000" stroke-width="2"/>
<text class="bubble_font" x="359" y="107">VERSION</text>
<line marker-end="url(#arrow)" stroke="#000000" stroke-width="2" x1="293" x2="307" y1="101" y2="101"/>
<path d="M439,116 A14,14 0 0,1 439,88 H492 A14,14 0 0,1 492,116 z" fill="#ffffff" fill-opacity="1.0" stroke="#000000" stroke-width="2"/>
<text class="bubble_font" x="465" y="107">CHECK</text>
<line marker-end="url(#arrow)" stroke="#000000" stroke-width="2" x1="407" x2="421" y1="101" y2="101"/>
<line marker-end="url(#arrow)" stroke="#000000" stroke-width="2" x1="119" x2="163" y1="63" y2="63"/>
<line stroke="#000000" stroke-width="2" x1="323" x2="574" y1="63" y2="63"/>
<path d="M138,82 A19,19 0 0,0 119,63" fill="none" stroke="#000000" stroke-width="2"/>
<line marker-end="url(#arrow)" stroke="#000000" stroke-width="2" x1="157" x2="163" y1="101" y2="101"/>
<line stroke="#000000" stroke-width="2" x1="506" x2="535" y1="101" y2="101"/>
<path d="M138,82 A19,19 0 0,0 157,101" fill="none" stroke="#000000" stroke-width="2"/>
<path d="M535,101 A19,19 0 0,0 554,82" fill="none" stroke="#000000" stroke-width="2"/>
<path d="M573,63 A19,19 0 0,0 554,82" fill="none" stroke="#000000" stroke-width="2"/>
<line stroke="#000000" stroke-width="2" x1="138" x2="138" y1="82" y2="82"/>
<line stroke="#000000" stroke-width="2" x1="554" x2="554" y1="82" y2="82"/>
<line marker-end="url(#arrow)" stroke="#000000" stroke-width="2" x1="101" x2="115" y1="63" y2="63"/>
<line stroke="#000000" stroke-width="2" x1="348" x2="349" y1="217" y2="217"/>
<path d="M262,270 A14,14 0 0,1 262,242 H285 A14,14 0 0,1 285,270 z" fill="#ffffff" fill-opacity="1.0" stroke="#000000" stroke-width="2"/>
<text class="bubble_font" x="273" y="261">NO</text>
<path d="M330,270 A14,14 0 0,1 330,242 H435 A14,14 0 0,1 435,270 z" fill="#ffffff" fill-opacity="1.0" stroke="#000000" stroke-width="2"/>
<text class="bubble_font" x="382" y="261">AUTOUPDATE</text>
<line marker-end="url(#arrow)" stroke="#000000" stroke-width="2" x1="298" x2="312" y1="255" y2="255"/>
<line marker-end="url(#arrow)" stroke="#000000" stroke-width="2" x1="200" x2="344" y1="217" y2="217"/>
<line stroke="#000000" stroke-width="2" x1="349" x2="498" y1="217" y2="217"/>
<path d="M219,236 A19,19 0 0,0 200,217" fill="none" stroke="#000000" stroke-width="2"/>
<line marker-end="url(#arrow)" stroke="#000000" stroke-width="2" x1="238" x2="244" y1="255" y2="255"/>
<line stroke="#000000" stroke-width="2" x1="449" x2="459" y1="255" y2="255"/>
<path d="M219,236 A19,19 0 0,0 238,255" fill="none" stroke="#000000" stroke-width="2"/>
<path d="M459,255 A19,19 0 0,0 478,236" fill="none" stroke="#000000" stroke-width="2"/>
<path d="M497,217 A19,19 0 0,0 478,236" fill="none" stroke="#000000" stroke-width="2"/>
<line stroke="#000000" stroke-width="2" x1="219" x2="219" y1="236" y2="236"/>
<line stroke="#000000" stroke-width="2" x1="478" x2="478" y1="236" y2="236"/>
<line stroke="#000000" stroke-width="2" x1="573" x2="611" y1="63" y2="63"/>
<path d="M620,72 A9,9 0 0,0 611,63" fill="none" stroke="#000000" stroke-width="2"/>
<line marker-end="url(#arrow)" stroke="#000000" stroke-width="2" x1="620" x2="620" y1="72" y2="116"/>
<line stroke="#000000" stroke-width="2" x1="620" x2="620" y1="120" y2="169"/>
<path d="M611,178 A9,9 0 0,0 620,169" fill="none" stroke="#000000" stroke-width="2"/>
<line marker-end="url(#arrow)" stroke="#000000" stroke-width="2" x1="611" x2="390" y1="178" y2="178"/>
<line stroke="#000000" stroke-width="2" x1="386" x2="162" y1="178" y2="178"/>
<path d="M162,178 A9,9 0 0,0 153,187" fill="none" stroke="#000000" stroke-width="2"/>
<line marker-end="url(#arrow)" stroke="#000000" stroke-width="2" x1="153" x2="153" y1="187" y2="193"/>
<line stroke="#000000" stroke-width="2" x1="153" x2="153" y1="197" y2="208"/>
<path d="M153,208 A9,9 0 0,0 162,217" fill="none" stroke="#000000" stroke-width="2"/>
<line marker-end="url(#arrow)" stroke="#000000" stroke-width="2" x1="162" x2="196" y1="217" y2="217"/>
<line marker-end="url(#arrow)" stroke="#000000" stroke-width="2" x1="15" x2="29" y1="63" y2="63"/>
<circle cx="517" cy="217" fill="#ffffff" r="3" stroke="#000000" stroke-width="2"/>
<line marker-end="url(#arrow)" stroke="#000000" stroke-width="2" x1="496" x2="510" y1="217" y2="217"/>
<text class="title_font" x="108" y="28">table_options</text>
</svg>
