<?xml version="1.0" encoding="UTF-8" standalone="no"?>
<svg xmlns:xlink="http://www.w3.org/1999/xlink" xmlns="http://www.w3.org/2000/svg" height="111" preserveAspectRatio="xMidYMid meet" xml:space="preserve" version="1.1" viewBox="0 0 447 111" width="447">
<style type="text/css">
<![CDATA[
.title_font {fill:#000000; text-anchor:middle;
font-family:Roboto; font-size:20pt; font-weight:normal; font-style:normal; }
.literal_font {fill:#000000; text-anchor:middle;
font-family:Roboto; font-size:14pt; font-weight:normal; font-style:normal; }
.token_font {fill:#000000; text-anchor:middle;
font-family:Roboto; font-size:16pt; font-weight:normal; font-style:normal; }
.box_font {fill:#000000; text-anchor:middle;
font-family:Roboto; font-size:14pt; font-weight:normal; font-style:normal; }
.bubble_font {fill:#000000; text-anchor:middle;
font-family:Roboto; font-size:14pt; font-weight:normal; font-style:normal; }
.label {fill: #000; text-anchor:middle; font-size:16pt; font-weight:bold; font-family:Sans;}
.link {fill: #0D47A1;}
.link:hover {fill: #0D47A1; text-decoration:underline;}
.link:visited {fill: #4A148C;}
]]>
</style>
<defs>
<marker id="arrow" markerHeight="4" markerUnits="strokeWidth" markerWidth="5" orient="auto" refX="2.5" refY="2">
<path d="M0,0 L0.5,2 L0,4 L4.5,2 z" fill="#000000"/>
</marker>
</defs>
<rect fill="white" height="100%" width="100%"/>
<circle cx="13" cy="63" fill="#ffffff" r="3" stroke="#000000" stroke-width="2"/>
<path d="M78,78 H182 L189,64 L182,50 H78 L71,64 z" fill="#ffffff" fill-opacity="1.0" stroke="#000000" stroke-width="2"/>
<text class="literal_font" x="130" y="69">grain name</text>
<path d="M221,79 A15,15 0 0,1 221,49 H227 A15,15 0 0,1 227,79 z" fill="#ffffff" fill-opacity="1.0" stroke="#000000" stroke-width="2"/>
<text class="token_font" x="224" y="69">.</text>
<line marker-end="url(#arrow)" stroke="#000000" stroke-width="2" x1="188" x2="202" y1="63" y2="63"/>
<line stroke="#000000" stroke-width="2" x1="156" x2="157" y1="101" y2="101"/>
<line stroke="#000000" stroke-width="2" x1="33" x2="71" y1="63" y2="63"/>
<line stroke="#000000" stroke-width="2" x1="242" x2="281" y1="63" y2="63"/>
<path d="M52,82 A19,19 0 0,0 33,63" fill="none" stroke="#000000" stroke-width="2"/>
<line marker-end="url(#arrow)" stroke="#000000" stroke-width="2" x1="71" x2="152" y1="101" y2="101"/>
<line stroke="#000000" stroke-width="2" x1="157" x2="242" y1="101" y2="101"/>
<path d="M52,82 A19,19 0 0,0 71,101" fill="none" stroke="#000000" stroke-width="2"/>
<path d="M242,101 A19,19 0 0,0 261,82" fill="none" stroke="#000000" stroke-width="2"/>
<path d="M280,63 A19,19 0 0,0 261,82" fill="none" stroke="#000000" stroke-width="2"/>
<line stroke="#000000" stroke-width="2" x1="52" x2="52" y1="82" y2="82"/>
<line stroke="#000000" stroke-width="2" x1="261" x2="261" y1="82" y2="82"/>
<path d="M304,78 H407 L414,64 L407,50 H304 L297,64 z" fill="#ffffff" fill-opacity="1.0" stroke="#000000" stroke-width="2"/>
<text class="literal_font" x="355" y="69">table name</text>
<line marker-end="url(#arrow)" stroke="#000000" stroke-width="2" x1="279" x2="293" y1="63" y2="63"/>
<line marker-end="url(#arrow)" stroke="#000000" stroke-width="2" x1="15" x2="29" y1="63" y2="63"/>
<circle cx="434" cy="63" fill="#ffffff" r="3" stroke="#000000" stroke-width="2"/>
<line marker-end="url(#arrow)" stroke="#000000" stroke-width="2" x1="413" x2="427" y1="63" y2="63"/>
<text class="title_font" x="83" y="28">table_ref</text>
</svg>
