<?xml version="1.0" encoding="UTF-8" standalone="no"?>
<svg xmlns:xlink="http://www.w3.org/1999/xlink" xmlns="http://www.w3.org/2000/svg" height="209" preserveAspectRatio="xMidYMid meet" xml:space="preserve" version="1.1" viewBox="0 0 717 209" width="717">
<style type="text/css">
<![CDATA[
.title_font {fill:#000000; text-anchor:middle;
font-family:Roboto; font-size:20pt; font-weight:normal; font-style:normal; }
.literal_font {fill:#000000; text-anchor:middle;
font-family:Roboto; font-size:14pt; font-weight:normal; font-style:normal; }
.token_font {fill:#000000; text-anchor:middle;
font-family:Roboto; font-size:16pt; font-weight:normal; font-style:normal; }
.box_font {fill:#000000; text-anchor:middle;
font-family:Roboto; font-size:14pt; font-weight:normal; font-style:normal; }
.bubble_font {fill:#000000; text-anchor:middle;
font-family:Roboto; font-size:14pt; font-weight:normal; font-style:normal; }
.label {fill: #000; text-anchor:middle; font-size:16pt; font-weight:bold; font-family:Sans;}
.link {fill: #0D47A1;}
.link:hover {fill: #0D47A1; text-decoration:underline;}
.link:visited {fill: #4A148C;}
]]>
</style>
<defs>
<marker id="arrow" markerHeight="4" markerUnits="strokeWidth" markerWidth="5" orient="auto" refX="2.5" refY="2">
<path d="M0,0 L0.5,2 L0,4 L4.5,2 z" fill="#000000"/>
</marker>
</defs>
<rect fill="white" height="100%" width="100%"/>
<circle cx="13" cy="63" fill="#ffffff" r="3" stroke="#000000" stroke-width="2"/>
<rect fill="#ffffff" fill-opacity="1.0" height="28" stroke="#000000" stroke-width="2" width="139" x="81" y="50"/>
<a xlink:href="1050_celesta_sql.html#field_definition" target="_parent"><text class="box_font link" x="150" y="69">field_definition</text></a>
<path d="M133,116 A14,14 0 0,1 133,88 H234 A14,14 0 0,1 234,116 z" fill="#ffffff" fill-opacity="1.0" stroke="#000000" stroke-width="2"/>
<text class="bubble_font" x="183" y="107">CONSTRAINT</text>
<path d="M272,116 H354 L361,102 L354,88 H272 L265,102 z" fill="#ffffff" fill-opacity="1.0" stroke="#000000" stroke-width="2"/>
<text class="literal_font" x="313" y="107">pk name</text>
<line marker-end="url(#arrow)" stroke="#000000" stroke-width="2" x1="247" x2="261" y1="101" y2="101"/>
<line stroke="#000000" stroke-width="2" x1="239" x2="240" y1="139" y2="139"/>
<line stroke="#000000" stroke-width="2" x1="81" x2="119" y1="101" y2="101"/>
<line stroke="#000000" stroke-width="2" x1="361" x2="400" y1="101" y2="101"/>
<path d="M100,120 A19,19 0 0,0 81,101" fill="none" stroke="#000000" stroke-width="2"/>
<line marker-end="url(#arrow)" stroke="#000000" stroke-width="2" x1="119" x2="235" y1="139" y2="139"/>
<line stroke="#000000" stroke-width="2" x1="240" x2="361" y1="139" y2="139"/>
<path d="M100,120 A19,19 0 0,0 119,139" fill="none" stroke="#000000" stroke-width="2"/>
<path d="M361,139 A19,19 0 0,0 380,120" fill="none" stroke="#000000" stroke-width="2"/>
<path d="M399,101 A19,19 0 0,0 380,120" fill="none" stroke="#000000" stroke-width="2"/>
<line stroke="#000000" stroke-width="2" x1="100" x2="100" y1="120" y2="120"/>
<line stroke="#000000" stroke-width="2" x1="380" x2="380" y1="120" y2="120"/>
<rect fill="#ffffff" fill-opacity="1.0" height="28" stroke="#000000" stroke-width="2" width="201" x="416" y="88"/>
<a xlink:href="1050_celesta_sql.html#primary_key_definition" target="_parent"><text class="box_font link" x="516" y="107">primary_key_definition</text></a>
<line marker-end="url(#arrow)" stroke="#000000" stroke-width="2" x1="398" x2="412" y1="101" y2="101"/>
<path d="M133,176 A14,14 0 0,1 133,148 H234 A14,14 0 0,1 234,176 z" fill="#ffffff" fill-opacity="1.0" stroke="#000000" stroke-width="2"/>
<text class="bubble_font" x="183" y="167">CONSTRAINT</text>
<path d="M272,176 H350 L357,162 L350,148 H272 L265,162 z" fill="#ffffff" fill-opacity="1.0" stroke="#000000" stroke-width="2"/>
<text class="literal_font" x="311" y="167">fk name</text>
<line marker-end="url(#arrow)" stroke="#000000" stroke-width="2" x1="247" x2="261" y1="161" y2="161"/>
<line stroke="#000000" stroke-width="2" x1="237" x2="238" y1="199" y2="199"/>
<line stroke="#000000" stroke-width="2" x1="81" x2="119" y1="161" y2="161"/>
<line stroke="#000000" stroke-width="2" x1="357" x2="396" y1="161" y2="161"/>
<path d="M100,180 A19,19 0 0,0 81,161" fill="none" stroke="#000000" stroke-width="2"/>
<line marker-end="url(#arrow)" stroke="#000000" stroke-width="2" x1="119" x2="233" y1="199" y2="199"/>
<line stroke="#000000" stroke-width="2" x1="238" x2="357" y1="199" y2="199"/>
<path d="M100,180 A19,19 0 0,0 119,199" fill="none" stroke="#000000" stroke-width="2"/>
<path d="M357,199 A19,19 0 0,0 376,180" fill="none" stroke="#000000" stroke-width="2"/>
<path d="M395,161 A19,19 0 0,0 376,180" fill="none" stroke="#000000" stroke-width="2"/>
<line stroke="#000000" stroke-width="2" x1="100" x2="100" y1="180" y2="180"/>
<line stroke="#000000" stroke-width="2" x1="376" x2="376" y1="180" y2="180"/>
<rect fill="#ffffff" fill-opacity="1.0" height="28" stroke="#000000" stroke-width="2" width="196" x="412" y="148"/>
<a xlink:href="1050_celesta_sql.html#foreign_key_definition" target="_parent"><text class="box_font link" x="510" y="167">foreign_key_definition</text></a>
<line marker-end="url(#arrow)" stroke="#000000" stroke-width="2" x1="394" x2="408" y1="161" y2="161"/>
<line marker-end="url(#arrow)" stroke="#000000" stroke-width="2" x1="33" x2="77" y1="63" y2="63"/>
<line stroke="#000000" stroke-width="2" x1="220" x2="685" y1="63" y2="63"/>
<path d="M52,82 A19,19 0 0,0 33,63" fill="none" stroke="#000000" stroke-width="2"/>
<line marker-end="url(#arrow)" stroke="#000000" stroke-width="2" x1="71" x2="77" y1="101" y2="101"/>
<line stroke="#000000" stroke-width="2" x1="617" x2="646" y1="101" y2="101"/>
<path d="M52,82 A19,19 0 0,0 71,101" fill="none" stroke="#000000" stroke-width="2"/>
<path d="M646,101 A19,19 0 0,0 665,82" fill="none" stroke="#000000" stroke-width="2"/>
<line marker-end="url(#arrow)" stroke="#000000" stroke-width="2" x1="71" x2="77" y1="161" y2="161"/>
<line stroke="#000000" stroke-width="2" x1="608" x2="646" y1="161" y2="161"/>
<path d="M52,142 A19,19 0 0,0 71,161" fill="none" stroke="#000000" stroke-width="2"/>
<path d="M646,161 A19,19 0 0,0 665,142" fill="none" stroke="#000000" stroke-width="2"/>
<path d="M684,63 A19,19 0 0,0 665,82" fill="none" stroke="#000000" stroke-width="2"/>
<line stroke="#000000" stroke-width="2" x1="52" x2="52" y1="142" y2="82"/>
<line stroke="#000000" stroke-width="2" x1="665" x2="665" y1="142" y2="82"/>
<line marker-end="url(#arrow)" stroke="#000000" stroke-width="2" x1="15" x2="29" y1="63" y2="63"/>
<circle cx="704" cy="63" fill="#ffffff" r="3" stroke="#000000" stroke-width="2"/>
<line marker-end="url(#arrow)" stroke="#000000" stroke-width="2" x1="683" x2="697" y1="63" y2="63"/>
<text class="title_font" x="130" y="28">table_constituent</text>
</svg>
