<?xml version="1.0" encoding="UTF-8" standalone="no"?>
<svg xmlns:xlink="http://www.w3.org/1999/xlink" xmlns="http://www.w3.org/2000/svg" height="398" preserveAspectRatio="xMidYMid meet" xml:space="preserve" version="1.1" viewBox="0 0 618 398" width="618">
<style type="text/css">
<![CDATA[
.title_font {fill:#000000; text-anchor:middle;
font-family:Roboto; font-size:20pt; font-weight:normal; font-style:normal; }
.literal_font {fill:#000000; text-anchor:middle;
font-family:Roboto; font-size:14pt; font-weight:normal; font-style:normal; }
.token_font {fill:#000000; text-anchor:middle;
font-family:Roboto; font-size:16pt; font-weight:normal; font-style:normal; }
.box_font {fill:#000000; text-anchor:middle;
font-family:Roboto; font-size:14pt; font-weight:normal; font-style:normal; }
.bubble_font {fill:#000000; text-anchor:middle;
font-family:Roboto; font-size:14pt; font-weight:normal; font-style:normal; }
.label {fill: #000; text-anchor:middle; font-size:16pt; font-weight:bold; font-family:Sans;}
.link {fill: #0D47A1;}
.link:hover {fill: #0D47A1; text-decoration:underline;}
.link:visited {fill: #4A148C;}
]]>
</style>
<defs>
<marker id="arrow" markerHeight="4" markerUnits="strokeWidth" markerWidth="5" orient="auto" refX="2.5" refY="2">
<path d="M0,0 L0.5,2 L0,4 L4.5,2 z" fill="#000000"/>
</marker>
</defs>
<rect fill="white" height="100%" width="100%"/>
<circle cx="13" cy="63" fill="#ffffff" r="3" stroke="#000000" stroke-width="2"/>
<line stroke="#000000" stroke-width="2" x1="155" x2="156" y1="63" y2="63"/>
<path d="M153,117 A15,15 0 0,1 153,87 H159 A15,15 0 0,1 159,117 z" fill="#ffffff" fill-opacity="1.0" stroke="#000000" stroke-width="2"/>
<text class="token_font" x="156" y="107">-</text>
<line marker-end="url(#arrow)" stroke="#000000" stroke-width="2" x1="90" x2="151" y1="63" y2="63"/>
<line stroke="#000000" stroke-width="2" x1="156" x2="223" y1="63" y2="63"/>
<path d="M109,82 A19,19 0 0,0 90,63" fill="none" stroke="#000000" stroke-width="2"/>
<line marker-end="url(#arrow)" stroke="#000000" stroke-width="2" x1="128" x2="134" y1="101" y2="101"/>
<line stroke="#000000" stroke-width="2" x1="174" x2="184" y1="101" y2="101"/>
<path d="M109,82 A19,19 0 0,0 128,101" fill="none" stroke="#000000" stroke-width="2"/>
<path d="M184,101 A19,19 0 0,0 203,82" fill="none" stroke="#000000" stroke-width="2"/>
<path d="M222,63 A19,19 0 0,0 203,82" fill="none" stroke="#000000" stroke-width="2"/>
<line stroke="#000000" stroke-width="2" x1="109" x2="109" y1="82" y2="82"/>
<line stroke="#000000" stroke-width="2" x1="203" x2="203" y1="82" y2="82"/>
<rect fill="#ffffff" fill-opacity="1.0" height="28" stroke="#000000" stroke-width="2" width="127" x="287" y="50"/>
<a xlink:href="1050_celesta_sql.html#primary_term" target="_parent"><text class="box_font link" x="350" y="69">primary_term</text></a>
<path d="M302,117 A15,15 0 0,1 302,87 H309 A15,15 0 0,1 309,117 z" fill="#ffffff" fill-opacity="1.0" stroke="#000000" stroke-width="2"/>
<text class="token_font" x="305" y="107">(</text>
<rect fill="#ffffff" fill-opacity="1.0" height="28" stroke="#000000" stroke-width="2" width="57" x="341" y="88"/>
<a xlink:href="1050_celesta_sql.html#term" target="_parent"><text class="box_font link" x="369" y="107">term</text></a>
<line marker-end="url(#arrow)" stroke="#000000" stroke-width="2" x1="323" x2="337" y1="101" y2="101"/>
<path d="M430,117 A15,15 0 0,1 430,87 H437 A15,15 0 0,1 437,117 z" fill="#ffffff" fill-opacity="1.0" stroke="#000000" stroke-width="2"/>
<text class="token_font" x="433" y="107">)</text>
<line marker-end="url(#arrow)" stroke="#000000" stroke-width="2" x1="397" x2="411" y1="101" y2="101"/>
<line marker-end="url(#arrow)" stroke="#000000" stroke-width="2" x1="239" x2="283" y1="63" y2="63"/>
<line stroke="#000000" stroke-width="2" x1="414" x2="501" y1="63" y2="63"/>
<path d="M258,82 A19,19 0 0,0 239,63" fill="none" stroke="#000000" stroke-width="2"/>
<line marker-end="url(#arrow)" stroke="#000000" stroke-width="2" x1="277" x2="283" y1="101" y2="101"/>
<line stroke="#000000" stroke-width="2" x1="452" x2="462" y1="101" y2="101"/>
<path d="M258,82 A19,19 0 0,0 277,101" fill="none" stroke="#000000" stroke-width="2"/>
<path d="M462,101 A19,19 0 0,0 481,82" fill="none" stroke="#000000" stroke-width="2"/>
<path d="M500,63 A19,19 0 0,0 481,82" fill="none" stroke="#000000" stroke-width="2"/>
<line stroke="#000000" stroke-width="2" x1="258" x2="258" y1="82" y2="82"/>
<line stroke="#000000" stroke-width="2" x1="481" x2="481" y1="82" y2="82"/>
<line marker-end="url(#arrow)" stroke="#000000" stroke-width="2" x1="221" x2="235" y1="63" y2="63"/>
<path d="M162,155 A14,14 0 0,1 162,127 H212 A14,14 0 0,1 212,155 z" fill="#ffffff" fill-opacity="1.0" stroke="#000000" stroke-width="2"/>
<text class="bubble_font" x="187" y="146">UPPER</text>
<path d="M162,193 A14,14 0 0,1 162,165 H218 A14,14 0 0,1 218,193 z" fill="#ffffff" fill-opacity="1.0" stroke="#000000" stroke-width="2"/>
<text class="bubble_font" x="190" y="184">LOWER</text>
<line marker-end="url(#arrow)" stroke="#000000" stroke-width="2" x1="100" x2="144" y1="140" y2="140"/>
<line stroke="#000000" stroke-width="2" x1="226" x2="281" y1="140" y2="140"/>
<path d="M119,159 A19,19 0 0,0 100,140" fill="none" stroke="#000000" stroke-width="2"/>
<line marker-end="url(#arrow)" stroke="#000000" stroke-width="2" x1="138" x2="144" y1="178" y2="178"/>
<line stroke="#000000" stroke-width="2" x1="232" x2="242" y1="178" y2="178"/>
<path d="M119,159 A19,19 0 0,0 138,178" fill="none" stroke="#000000" stroke-width="2"/>
<path d="M242,178 A19,19 0 0,0 261,159" fill="none" stroke="#000000" stroke-width="2"/>
<path d="M280,140 A19,19 0 0,0 261,159" fill="none" stroke="#000000" stroke-width="2"/>
<line stroke="#000000" stroke-width="2" x1="119" x2="119" y1="159" y2="159"/>
<line stroke="#000000" stroke-width="2" x1="261" x2="261" y1="159" y2="159"/>
<path d="M312,156 A15,15 0 0,1 312,126 H319 A15,15 0 0,1 319,156 z" fill="#ffffff" fill-opacity="1.0" stroke="#000000" stroke-width="2"/>
<text class="token_font" x="315" y="146">(</text>
<line marker-end="url(#arrow)" stroke="#000000" stroke-width="2" x1="279" x2="293" y1="140" y2="140"/>
<rect fill="#ffffff" fill-opacity="1.0" height="28" stroke="#000000" stroke-width="2" width="57" x="351" y="127"/>
<a xlink:href="1050_celesta_sql.html#term" target="_parent"><text class="box_font link" x="379" y="146">term</text></a>
<line marker-end="url(#arrow)" stroke="#000000" stroke-width="2" x1="333" x2="347" y1="140" y2="140"/>
<path d="M440,156 A15,15 0 0,1 440,126 H447 A15,15 0 0,1 447,156 z" fill="#ffffff" fill-opacity="1.0" stroke="#000000" stroke-width="2"/>
<text class="token_font" x="443" y="146">)</text>
<line marker-end="url(#arrow)" stroke="#000000" stroke-width="2" x1="407" x2="421" y1="140" y2="140"/>
<line stroke="#000000" stroke-width="2" x1="52" x2="90" y1="63" y2="63"/>
<line stroke="#000000" stroke-width="2" x1="500" x2="577" y1="63" y2="63"/>
<path d="M71,82 A19,19 0 0,0 52,63" fill="none" stroke="#000000" stroke-width="2"/>
<line marker-end="url(#arrow)" stroke="#000000" stroke-width="2" x1="90" x2="96" y1="140" y2="140"/>
<line stroke="#000000" stroke-width="2" x1="462" x2="538" y1="140" y2="140"/>
<path d="M71,121 A19,19 0 0,0 90,140" fill="none" stroke="#000000" stroke-width="2"/>
<path d="M538,140 A19,19 0 0,0 557,121" fill="none" stroke="#000000" stroke-width="2"/>
<path d="M576,63 A19,19 0 0,0 557,82" fill="none" stroke="#000000" stroke-width="2"/>
<line stroke="#000000" stroke-width="2" x1="71" x2="71" y1="121" y2="82"/>
<line stroke="#000000" stroke-width="2" x1="557" x2="557" y1="121" y2="82"/>
<path d="M288,232 A15,15 0 0,1 288,202 H302 A15,15 0 0,1 302,232 z" fill="#ffffff" fill-opacity="1.0" stroke="#000000" stroke-width="2"/>
<text class="token_font" x="295" y="222">+</text>
<path d="M289,271 A15,15 0 0,1 289,241 H295 A15,15 0 0,1 295,271 z" fill="#ffffff" fill-opacity="1.0" stroke="#000000" stroke-width="2"/>
<text class="token_font" x="292" y="261">-</text>
<path d="M289,310 A15,15 0 0,1 289,280 H298 A15,15 0 0,1 298,310 z" fill="#ffffff" fill-opacity="1.0" stroke="#000000" stroke-width="2"/>
<text class="token_font" x="293" y="300">*</text>
<path d="M289,349 A15,15 0 0,1 289,319 H295 A15,15 0 0,1 295,349 z" fill="#ffffff" fill-opacity="1.0" stroke="#000000" stroke-width="2"/>
<text class="token_font" x="292" y="339">/</text>
<path d="M289,388 A15,15 0 0,1 289,358 H301 A15,15 0 0,1 301,388 z" fill="#ffffff" fill-opacity="1.0" stroke="#000000" stroke-width="2"/>
<text class="token_font" x="295" y="378">||</text>
<line stroke="#000000" stroke-width="2" x1="226" x2="273" y1="216" y2="216"/>
<line marker-end="url(#arrow)" stroke="#000000" stroke-width="2" x1="365" x2="321" y1="216" y2="216"/>
<path d="M245,235 A19,19 0 0,0 226,216" fill="none" stroke="#000000" stroke-width="2"/>
<line stroke="#000000" stroke-width="2" x1="264" x2="274" y1="255" y2="255"/>
<line marker-end="url(#arrow)" stroke="#000000" stroke-width="2" x1="326" x2="314" y1="255" y2="255"/>
<path d="M245,236 A19,19 0 0,0 264,255" fill="none" stroke="#000000" stroke-width="2"/>
<path d="M326,255 A19,19 0 0,0 345,236" fill="none" stroke="#000000" stroke-width="2"/>
<line stroke="#000000" stroke-width="2" x1="264" x2="274" y1="294" y2="294"/>
<line marker-end="url(#arrow)" stroke="#000000" stroke-width="2" x1="326" x2="317" y1="294" y2="294"/>
<path d="M245,275 A19,19 0 0,0 264,294" fill="none" stroke="#000000" stroke-width="2"/>
<path d="M326,294 A19,19 0 0,0 345,275" fill="none" stroke="#000000" stroke-width="2"/>
<line stroke="#000000" stroke-width="2" x1="264" x2="274" y1="333" y2="333"/>
<line marker-end="url(#arrow)" stroke="#000000" stroke-width="2" x1="326" x2="314" y1="333" y2="333"/>
<path d="M245,314 A19,19 0 0,0 264,333" fill="none" stroke="#000000" stroke-width="2"/>
<path d="M326,333 A19,19 0 0,0 345,314" fill="none" stroke="#000000" stroke-width="2"/>
<line stroke="#000000" stroke-width="2" x1="264" x2="274" y1="372" y2="372"/>
<line marker-end="url(#arrow)" stroke="#000000" stroke-width="2" x1="326" x2="320" y1="372" y2="372"/>
<path d="M245,353 A19,19 0 0,0 264,372" fill="none" stroke="#000000" stroke-width="2"/>
<path d="M326,372 A19,19 0 0,0 345,353" fill="none" stroke="#000000" stroke-width="2"/>
<path d="M364,216 A19,19 0 0,0 345,235" fill="none" stroke="#000000" stroke-width="2"/>
<line stroke="#000000" stroke-width="2" x1="245" x2="245" y1="353" y2="235"/>
<line stroke="#000000" stroke-width="2" x1="345" x2="345" y1="353" y2="235"/>
<line stroke="#000000" stroke-width="2" x1="52" x2="226" y1="216" y2="216"/>
<line marker-end="url(#arrow)" stroke="#000000" stroke-width="2" x1="576" x2="368" y1="216" y2="216"/>
<line stroke="#000000" stroke-width="2" x1="33" x2="52" y1="63" y2="63"/>
<path d="M52,63 A9,9 0 0,0 43,72" fill="none" stroke="#000000" stroke-width="2"/>
<line marker-end="url(#arrow)" stroke="#000000" stroke-width="2" x1="43" x2="43" y1="207" y2="143"/>
<line stroke="#000000" stroke-width="2" x1="43" x2="43" y1="139" y2="72"/>
<path d="M43,207 A9,9 0 0,0 52,216" fill="none" stroke="#000000" stroke-width="2"/>
<path d="M585,72 A9,9 0 0,0 576,63" fill="none" stroke="#000000" stroke-width="2"/>
<line marker-end="url(#arrow)" stroke="#000000" stroke-width="2" x1="585" x2="585" y1="72" y2="135"/>
<line stroke="#000000" stroke-width="2" x1="585" x2="585" y1="139" y2="207"/>
<path d="M576,216 A9,9 0 0,0 585,207" fill="none" stroke="#000000" stroke-width="2"/>
<line stroke="#000000" stroke-width="2" x1="576" x2="585" y1="63" y2="63"/>
<line marker-end="url(#arrow)" stroke="#000000" stroke-width="2" x1="15" x2="29" y1="63" y2="63"/>
<circle cx="605" cy="63" fill="#ffffff" r="3" stroke="#000000" stroke-width="2"/>
<line marker-end="url(#arrow)" stroke="#000000" stroke-width="2" x1="584" x2="598" y1="63" y2="63"/>
<text class="title_font" x="60" y="28">term</text>
</svg>
