<?xml version="1.0" encoding="UTF-8" standalone="no"?>
<svg xmlns:xlink="http://www.w3.org/1999/xlink" xmlns="http://www.w3.org/2000/svg" height="255" preserveAspectRatio="xMidYMid meet" xml:space="preserve" version="1.1" viewBox="0 0 731 255" width="731">
<style type="text/css">
<![CDATA[
.title_font {fill:#000000; text-anchor:middle;
font-family:Roboto; font-size:20pt; font-weight:normal; font-style:normal; }
.literal_font {fill:#000000; text-anchor:middle;
font-family:Roboto; font-size:14pt; font-weight:normal; font-style:normal; }
.token_font {fill:#000000; text-anchor:middle;
font-family:Roboto; font-size:16pt; font-weight:normal; font-style:normal; }
.box_font {fill:#000000; text-anchor:middle;
font-family:Roboto; font-size:14pt; font-weight:normal; font-style:normal; }
.bubble_font {fill:#000000; text-anchor:middle;
font-family:Roboto; font-size:14pt; font-weight:normal; font-style:normal; }
.label {fill: #000; text-anchor:middle; font-size:16pt; font-weight:bold; font-family:Sans;}
.link {fill: #0D47A1;}
.link:hover {fill: #0D47A1; text-decoration:underline;}
.link:visited {fill: #4A148C;}
]]>
</style>
<defs>
<marker id="arrow" markerHeight="4" markerUnits="strokeWidth" markerWidth="5" orient="auto" refX="2.5" refY="2">
<path d="M0,0 L0.5,2 L0,4 L4.5,2 z" fill="#000000"/>
</marker>
</defs>
<rect fill="white" height="100%" width="100%"/>
<circle cx="13" cy="63" fill="#ffffff" r="3" stroke="#000000" stroke-width="2"/>
<path d="M85,78 A14,14 0 0,1 85,50 H160 A14,14 0 0,1 160,78 z" fill="#ffffff" fill-opacity="1.0" stroke="#000000" stroke-width="2"/>
<text class="bubble_font" x="122" y="69">VARCHAR</text>
<path d="M206,79 A15,15 0 0,1 206,49 H213 A15,15 0 0,1 213,79 z" fill="#ffffff" fill-opacity="1.0" stroke="#000000" stroke-width="2"/>
<text class="token_font" x="209" y="69">(</text>
<line marker-end="url(#arrow)" stroke="#000000" stroke-width="2" x1="173" x2="187" y1="63" y2="63"/>
<path d="M252,78 H375 L382,64 L375,50 H252 L245,64 z" fill="#ffffff" fill-opacity="1.0" stroke="#000000" stroke-width="2"/>
<text class="literal_font" x="313" y="69">integer literal</text>
<line marker-end="url(#arrow)" stroke="#000000" stroke-width="2" x1="227" x2="241" y1="63" y2="63"/>
<path d="M414,79 A15,15 0 0,1 414,49 H421 A15,15 0 0,1 421,79 z" fill="#ffffff" fill-opacity="1.0" stroke="#000000" stroke-width="2"/>
<text class="token_font" x="417" y="69">)</text>
<line marker-end="url(#arrow)" stroke="#000000" stroke-width="2" x1="381" x2="395" y1="63" y2="63"/>
<path d="M95,116 A14,14 0 0,1 95,88 H134 A14,14 0 0,1 134,116 z" fill="#ffffff" fill-opacity="1.0" stroke="#000000" stroke-width="2"/>
<text class="bubble_font" x="114" y="107">TEXT</text>
<line stroke="#000000" stroke-width="2" x1="33" x2="71" y1="63" y2="63"/>
<line stroke="#000000" stroke-width="2" x1="436" x2="475" y1="63" y2="63"/>
<path d="M52,82 A19,19 0 0,0 33,63" fill="none" stroke="#000000" stroke-width="2"/>
<line marker-end="url(#arrow)" stroke="#000000" stroke-width="2" x1="71" x2="77" y1="101" y2="101"/>
<line stroke="#000000" stroke-width="2" x1="148" x2="436" y1="101" y2="101"/>
<path d="M52,82 A19,19 0 0,0 71,101" fill="none" stroke="#000000" stroke-width="2"/>
<path d="M436,101 A19,19 0 0,0 455,82" fill="none" stroke="#000000" stroke-width="2"/>
<path d="M474,63 A19,19 0 0,0 455,82" fill="none" stroke="#000000" stroke-width="2"/>
<line stroke="#000000" stroke-width="2" x1="52" x2="52" y1="82" y2="82"/>
<line stroke="#000000" stroke-width="2" x1="455" x2="455" y1="82" y2="82"/>
<rect fill="#ffffff" fill-opacity="1.0" height="28" stroke="#000000" stroke-width="2" width="99" x="279" y="194"/>
<a xlink:href="1050_celesta_sql.html#nullability" target="_parent"><text class="box_font link" x="328" y="213">nullability</text></a>
<path d="M447,222 A14,14 0 0,1 447,194 H517 A14,14 0 0,1 517,222 z" fill="#ffffff" fill-opacity="1.0" stroke="#000000" stroke-width="2"/>
<text class="bubble_font" x="482" y="213">DEFAULT</text>
<path d="M555,222 H653 L660,208 L653,194 H555 L548,208 z" fill="#ffffff" fill-opacity="1.0" stroke="#000000" stroke-width="2"/>
<text class="literal_font" x="604" y="213">text literal</text>
<line marker-end="url(#arrow)" stroke="#000000" stroke-width="2" x1="530" x2="544" y1="207" y2="207"/>
<line stroke="#000000" stroke-width="2" x1="546" x2="547" y1="245" y2="245"/>
<line stroke="#000000" stroke-width="2" x1="395" x2="433" y1="207" y2="207"/>
<line stroke="#000000" stroke-width="2" x1="660" x2="699" y1="207" y2="207"/>
<path d="M414,226 A19,19 0 0,0 395,207" fill="none" stroke="#000000" stroke-width="2"/>
<line marker-end="url(#arrow)" stroke="#000000" stroke-width="2" x1="433" x2="542" y1="245" y2="245"/>
<line stroke="#000000" stroke-width="2" x1="547" x2="660" y1="245" y2="245"/>
<path d="M414,226 A19,19 0 0,0 433,245" fill="none" stroke="#000000" stroke-width="2"/>
<path d="M660,245 A19,19 0 0,0 679,226" fill="none" stroke="#000000" stroke-width="2"/>
<path d="M698,207 A19,19 0 0,0 679,226" fill="none" stroke="#000000" stroke-width="2"/>
<line stroke="#000000" stroke-width="2" x1="414" x2="414" y1="226" y2="226"/>
<line stroke="#000000" stroke-width="2" x1="679" x2="679" y1="226" y2="226"/>
<line marker-end="url(#arrow)" stroke="#000000" stroke-width="2" x1="377" x2="391" y1="207" y2="207"/>
<line stroke="#000000" stroke-width="2" x1="474" x2="512" y1="63" y2="63"/>
<path d="M521,72 A9,9 0 0,0 512,63" fill="none" stroke="#000000" stroke-width="2"/>
<line marker-end="url(#arrow)" stroke="#000000" stroke-width="2" x1="521" x2="521" y1="72" y2="105"/>
<line stroke="#000000" stroke-width="2" x1="521" x2="521" y1="109" y2="146"/>
<path d="M512,155 A9,9 0 0,0 521,146" fill="none" stroke="#000000" stroke-width="2"/>
<line marker-end="url(#arrow)" stroke="#000000" stroke-width="2" x1="512" x2="380" y1="155" y2="155"/>
<line stroke="#000000" stroke-width="2" x1="376" x2="241" y1="155" y2="155"/>
<path d="M241,155 A9,9 0 0,0 232,164" fill="none" stroke="#000000" stroke-width="2"/>
<line marker-end="url(#arrow)" stroke="#000000" stroke-width="2" x1="232" x2="232" y1="164" y2="177"/>
<line stroke="#000000" stroke-width="2" x1="232" x2="232" y1="181" y2="198"/>
<path d="M232,198 A9,9 0 0,0 241,207" fill="none" stroke="#000000" stroke-width="2"/>
<line marker-end="url(#arrow)" stroke="#000000" stroke-width="2" x1="241" x2="275" y1="207" y2="207"/>
<line marker-end="url(#arrow)" stroke="#000000" stroke-width="2" x1="15" x2="29" y1="63" y2="63"/>
<circle cx="718" cy="207" fill="#ffffff" r="3" stroke="#000000" stroke-width="2"/>
<line marker-end="url(#arrow)" stroke="#000000" stroke-width="2" x1="697" x2="711" y1="207" y2="207"/>
<text class="title_font" x="86" y="28">text_field</text>
</svg>
